MyriadPro-KenDump.ufo
<glyph name="zero" format="1">
  <advance width="168"/>
  <unicode hex="0030"/>
  <outline>
    <contour>
      <point x="83" y="719" type="line"/>
      <point x="132" y="719"/>
      <point x="156" y="759"/>
      <point x="156" y="820" type="curve" smooth="yes"/>
      <point x="156" y="881"/>
      <point x="131" y="919"/>
      <point x="85" y="919" type="curve" smooth="yes"/>
      <point x="40" y="919"/>
      <point x="11" y="880"/>
      <point x="11" y="818" type="curve" smooth="yes"/>
      <point x="11" y="756"/>
      <point x="39" y="719"/>
      <point x="82" y="719" type="curve"/>
    </contour>
    <contour>
      <point x="83" y="744" type="line"/>
      <point x="61" y="744"/>
      <point x="46" y="771"/>
      <point x="46" y="819" type="curve" smooth="yes"/>
      <point x="46" y="866"/>
      <point x="61" y="893"/>
      <point x="84" y="893" type="curve" smooth="yes"/>
      <point x="109" y="893"/>
      <point x="121" y="866"/>
      <point x="121" y="819" type="curve" smooth="yes"/>
      <point x="121" y="772"/>
      <point x="108" y="744"/>
      <point x="84" y="744" type="curve"/>
    </contour>
  </outline>
</glyph>
<glyph name="one" format="1">
  <advance width="122"/>
  <unicode hex="0031"/>
  <outline>
    <contour>
      <point x="88" y="721" type="line"/>
      <point x="88" y="916" type="line"/>
      <point x="58" y="916" type="line"/>
      <point x="11" y="894" type="line"/>
      <point x="16" y="868" type="line"/>
      <point x="52" y="885" type="line"/>
      <point x="53" y="885" type="line"/>
      <point x="53" y="721" type="line"/>
    </contour>
  </outline>
</glyph>
<glyph name="two" format="1">
  <advance width="156"/>
  <unicode hex="0032"/>
  <outline>
    <contour>
      <point x="6" y="722" type="line"/>
      <point x="141" y="722" type="line"/>
      <point x="141" y="749" type="line"/>
      <point x="56" y="749" type="line"/>
      <point x="56" y="750" type="line"/>
      <point x="71" y="764" type="line" smooth="yes"/>
      <point x="109" y="797"/>
      <point x="138" y="825"/>
      <point x="138" y="863" type="curve" smooth="yes"/>
      <point x="138" y="889"/>
      <point x="118" y="919"/>
      <point x="71" y="919" type="curve" smooth="yes"/>
      <point x="46" y="919"/>
      <point x="24" y="909"/>
      <point x="10" y="898" type="curve"/>
      <point x="21" y="875" type="line"/>
      <point x="30" y="882"/>
      <point x="45" y="891"/>
      <point x="63" y="891" type="curve" smooth="yes"/>
      <point x="89" y="891"/>
      <point x="101" y="875"/>
      <point x="101" y="856" type="curve" smooth="yes"/>
      <point x="101" y="831"/>
      <point x="79" y="807"/>
      <point x="38" y="769" type="curve" smooth="yes"/>
      <point x="6" y="740" type="line"/>
    </contour>
  </outline>
</glyph>
<glyph name="three" format="1">
  <advance width="153"/>
  <unicode hex="0033"/>
  <outline>
    <contour>
      <point x="23" y="879" type="line"/>
      <point x="31" y="885"/>
      <point x="47" y="893"/>
      <point x="65" y="893" type="curve" smooth="yes"/>
      <point x="88" y="893"/>
      <point x="97" y="880"/>
      <point x="97" y="868" type="curve" smooth="yes"/>
      <point x="96" y="845"/>
      <point x="70" y="836"/>
      <point x="51" y="836" type="curve" smooth="yes"/>
      <point x="37" y="836" type="line"/>
      <point x="37" y="813" type="line"/>
      <point x="51" y="813" type="line" smooth="yes"/>
      <point x="77" y="813"/>
      <point x="104" y="803"/>
      <point x="104" y="778" type="curve" smooth="yes"/>
      <point x="104" y="762"/>
      <point x="91" y="744"/>
      <point x="60" y="744" type="curve" smooth="yes"/>
      <point x="41" y="744"/>
      <point x="22" y="752"/>
      <point x="14" y="757" type="curve"/>
      <point x="5" y="732" type="line"/>
      <point x="16" y="725"/>
      <point x="38" y="719"/>
      <point x="62" y="719" type="curve" smooth="yes"/>
      <point x="113" y="719"/>
      <point x="141" y="746"/>
      <point x="141" y="777" type="curve" smooth="yes"/>
      <point x="141" y="802"/>
      <point x="122" y="822"/>
      <point x="94" y="825" type="curve"/>
      <point x="94" y="826" type="line"/>
      <point x="118" y="835"/>
      <point x="133" y="851"/>
      <point x="133" y="871" type="curve" smooth="yes"/>
      <point x="133" y="896"/>
      <point x="115" y="919"/>
      <point x="72" y="919" type="curve" smooth="yes"/>
      <point x="47" y="919"/>
      <point x="26" y="910"/>
      <point x="14" y="903" type="curve"/>
    </contour>
  </outline>
</glyph>
<glyph name="four" format="1">
  <advance width="173"/>
  <unicode hex="0034"/>
  <outline>
    <contour>
      <point x="136" y="721" type="line"/>
      <point x="136" y="772" type="line"/>
      <point x="164" y="772" type="line"/>
      <point x="164" y="797" type="line"/>
      <point x="136" y="797" type="line"/>
      <point x="136" y="916" type="line"/>
      <point x="96" y="916" type="line"/>
      <point x="8" y="793" type="line"/>
      <point x="8" y="772" type="line"/>
      <point x="102" y="772" type="line"/>
      <point x="102" y="721" type="line"/>
    </contour>
    <contour>
      <point x="102" y="797" type="line"/>
      <point x="43" y="797" type="line"/>
      <point x="42" y="798" type="line"/>
      <point x="86" y="857" type="line" smooth="yes"/>
      <point x="92" y="866"/>
      <point x="97" y="875"/>
      <point x="103" y="887" type="curve"/>
      <point x="104" y="886" type="line"/>
      <point x="103" y="877"/>
      <point x="102" y="866"/>
      <point x="102" y="855" type="curve" smooth="yes"/>
    </contour>
  </outline>
</glyph>
<glyph name="five" format="1">
  <advance width="154"/>
  <unicode hex="0035"/>
  <outline>
    <contour>
      <point x="134" y="915" type="line"/>
      <point x="33" y="915" type="line"/>
      <point x="20" y="820" type="line"/>
      <point x="28" y="821"/>
      <point x="37" y="822"/>
      <point x="49" y="822" type="curve" smooth="yes"/>
      <point x="89" y="822"/>
      <point x="105" y="806"/>
      <point x="105" y="782" type="curve" smooth="yes"/>
      <point x="105" y="759"/>
      <point x="84" y="745"/>
      <point x="61" y="745" type="curve" smooth="yes"/>
      <point x="42" y="745"/>
      <point x="25" y="751"/>
      <point x="17" y="755" type="curve"/>
      <point x="10" y="730" type="line"/>
      <point x="20" y="725"/>
      <point x="40" y="718"/>
      <point x="62" y="718" type="curve" smooth="yes"/>
      <point x="108" y="718"/>
      <point x="140" y="747"/>
      <point x="140" y="785" type="curve" smooth="yes"/>
      <point x="140" y="810"/>
      <point x="127" y="827"/>
      <point x="112" y="835" type="curve" smooth="yes"/>
      <point x="99" y="843"/>
      <point x="82" y="846"/>
      <point x="66" y="846" type="curve" smooth="yes"/>
      <point x="59" y="846"/>
      <point x="54" y="846"/>
      <point x="50" y="846" type="curve"/>
      <point x="57" y="888" type="line"/>
      <point x="134" y="888" type="line"/>
    </contour>
  </outline>
</glyph>
<glyph name="six" format="1">
  <advance width="166"/>
  <unicode hex="0036"/>
  <outline>
    <contour>
      <point x="133" y="918" type="line"/>
      <point x="128" y="918"/>
      <point x="121" y="918"/>
      <point x="113" y="917" type="curve" smooth="yes"/>
      <point x="85" y="914"/>
      <point x="62" y="905"/>
      <point x="45" y="888" type="curve" smooth="yes"/>
      <point x="25" y="869"/>
      <point x="11" y="839"/>
      <point x="11" y="802" type="curve" smooth="yes"/>
      <point x="11" y="753"/>
      <point x="39" y="719"/>
      <point x="85" y="719" type="curve" smooth="yes"/>
      <point x="125" y="719"/>
      <point x="154" y="750"/>
      <point x="154" y="788" type="curve" smooth="yes"/>
      <point x="154" y="826"/>
      <point x="129" y="851"/>
      <point x="93" y="851" type="curve" smooth="yes"/>
      <point x="72" y="851"/>
      <point x="56" y="841"/>
      <point x="46" y="830" type="curve"/>
      <point x="46" y="830" type="line"/>
      <point x="51" y="860"/>
      <point x="73" y="886"/>
      <point x="113" y="891" type="curve" smooth="yes"/>
      <point x="120" y="892"/>
      <point x="128" y="892"/>
      <point x="133" y="892" type="curve"/>
    </contour>
    <contour>
      <point x="85" y="744" type="curve"/>
      <point x="58" y="744"/>
      <point x="44" y="766"/>
      <point x="44" y="793" type="curve" smooth="yes"/>
      <point x="44" y="798"/>
      <point x="45" y="801"/>
      <point x="47" y="804" type="curve" smooth="yes"/>
      <point x="53" y="817"/>
      <point x="67" y="827"/>
      <point x="82" y="827" type="curve" smooth="yes"/>
      <point x="106" y="827"/>
      <point x="120" y="810"/>
      <point x="120" y="786" type="curve" smooth="yes"/>
      <point x="120" y="762"/>
      <point x="106" y="744"/>
    </contour>
  </outline>
</glyph>
<glyph name="seven" format="1">
  <advance width="147"/>
  <unicode hex="0037"/>
  <outline>
    <contour>
      <point x="10" y="915" type="line"/>
      <point x="10" y="888" type="line"/>
      <point x="106" y="888" type="line"/>
      <point x="106" y="888" type="line"/>
      <point x="20" y="722" type="line"/>
      <point x="56" y="722" type="line"/>
      <point x="141" y="894" type="line"/>
      <point x="141" y="915" type="line"/>
    </contour>
  </outline>
</glyph>
<glyph name="eight" format="1">
  <advance width="164"/>
  <unicode hex="0038"/>
  <outline>
    <contour>
      <point x="83" y="919" type="line"/>
      <point x="47" y="919"/>
      <point x="19" y="897"/>
      <point x="19" y="866" type="curve" smooth="yes"/>
      <point x="19" y="849"/>
      <point x="29" y="832"/>
      <point x="50" y="823" type="curve"/>
      <point x="50" y="822" type="line"/>
      <point x="26" y="812"/>
      <point x="12" y="795"/>
      <point x="12" y="771" type="curve" smooth="yes"/>
      <point x="12" y="744"/>
      <point x="36" y="719"/>
      <point x="81" y="719" type="curve" smooth="yes"/>
      <point x="122" y="719"/>
      <point x="152" y="742"/>
      <point x="152" y="776" type="curve" smooth="yes"/>
      <point x="152" y="800"/>
      <point x="135" y="816"/>
      <point x="113" y="825" type="curve"/>
      <point x="113" y="826" type="line"/>
      <point x="135" y="836"/>
      <point x="144" y="853"/>
      <point x="144" y="870" type="curve" smooth="yes"/>
      <point x="144" y="895"/>
      <point x="124" y="919"/>
      <point x="84" y="919" type="curve"/>
    </contour>
    <contour>
      <point x="82" y="742" type="curve"/>
      <point x="59" y="742"/>
      <point x="45" y="758"/>
      <point x="45" y="775" type="curve" smooth="yes"/>
      <point x="45" y="792"/>
      <point x="57" y="805"/>
      <point x="78" y="811" type="curve"/>
      <point x="102" y="805"/>
      <point x="118" y="795"/>
      <point x="118" y="773" type="curve" smooth="yes"/>
      <point x="118" y="756"/>
      <point x="104" y="742"/>
    </contour>
    <contour>
      <point x="82" y="895" type="curve"/>
      <point x="104" y="895"/>
      <point x="113" y="881"/>
      <point x="113" y="867" type="curve" smooth="yes"/>
      <point x="113" y="850"/>
      <point x="101" y="840"/>
      <point x="85" y="835" type="curve"/>
      <point x="64" y="840"/>
      <point x="50" y="850"/>
      <point x="50" y="868" type="curve" smooth="yes"/>
      <point x="50" y="882"/>
      <point x="61" y="895"/>
    </contour>
  </outline>
</glyph>
<glyph name="nine" format="1">
  <advance width="163"/>
  <unicode hex="0039"/>
  <outline>
    <contour>
      <point x="29" y="719" type="line"/>
      <point x="34" y="718"/>
      <point x="43" y="719"/>
      <point x="52" y="720" type="curve" smooth="yes"/>
      <point x="77" y="722"/>
      <point x="101" y="730"/>
      <point x="117" y="746" type="curve" smooth="yes"/>
      <point x="137" y="764"/>
      <point x="152" y="794"/>
      <point x="152" y="836" type="curve" smooth="yes"/>
      <point x="152" y="884"/>
      <point x="127" y="919"/>
      <point x="82" y="919" type="curve" smooth="yes"/>
      <point x="40" y="919"/>
      <point x="11" y="887"/>
      <point x="11" y="849" type="curve" smooth="yes"/>
      <point x="11" y="814"/>
      <point x="36" y="789"/>
      <point x="72" y="789" type="curve" smooth="yes"/>
      <point x="91" y="789"/>
      <point x="106" y="797"/>
      <point x="117" y="809" type="curve"/>
      <point x="117" y="808" type="line"/>
      <point x="114" y="788"/>
      <point x="105" y="773"/>
      <point x="92" y="762" type="curve" smooth="yes"/>
      <point x="80" y="753"/>
      <point x="65" y="747"/>
      <point x="50" y="746" type="curve" smooth="yes"/>
      <point x="42" y="745"/>
      <point x="34" y="745"/>
      <point x="29" y="745" type="curve"/>
    </contour>
    <contour>
      <point x="80" y="893" type="curve"/>
      <point x="107" y="893"/>
      <point x="118" y="870"/>
      <point x="118" y="842" type="curve" smooth="yes"/>
      <point x="118" y="837"/>
      <point x="117" y="834"/>
      <point x="116" y="832" type="curve" smooth="yes"/>
      <point x="109" y="821"/>
      <point x="97" y="813"/>
      <point x="80" y="813" type="curve" smooth="yes"/>
      <point x="58" y="813"/>
      <point x="45" y="830"/>
      <point x="45" y="851" type="curve" smooth="yes"/>
      <point x="45" y="875"/>
      <point x="59" y="893"/>
    </contour>
  </outline>
</glyph>
<glyph name="gravecomb" format="1">
  <advance width="0"/>
  <unicode hex="0300"/>
  <outline>
    <contour>
      <point x="-131" y="693" type="line"/>
      <point x="-9" y="550" type="line"/>
      <point x="53" y="550" type="line"/>
      <point x="-34" y="693" type="line"/>
    </contour>
  </outline>
</glyph>
<glyph name="acutecomb" format="1">
  <advance width="0"/>
  <unicode hex="0301"/>
  <outline>
    <contour>
      <point x="33" y="693" type="line"/>
      <point x="-54" y="550" type="line"/>
      <point x="9" y="550" type="line"/>
      <point x="131" y="693" type="line"/>
    </contour>
  </outline>
</glyph>
<glyph name="AE" format="1">
  <advance width="788"/>
  <outline>
    <contour>
      <point x="89" y="0" type="line"/>
      <point x="197" y="238" type="line"/>
      <point x="404" y="238" type="line"/>
      <point x="434" y="0" type="line"/>
      <point x="755" y="0" type="line"/>
      <point x="756" y="73" type="line"/>
      <point x="509" y="73" type="line"/>
      <point x="479" y="314" type="line"/>
      <point x="719" y="314" type="line"/>
      <point x="719" y="386" type="line"/>
      <point x="468" y="386" type="line"/>
      <point x="442" y="601" type="line"/>
      <point x="729" y="601" type="line"/>
      <point x="729" y="674" type="line"/>
      <point x="307" y="674" type="line"/>
      <point x="-1" y="0" type="line"/>
    </contour>
    <contour>
      <point x="226" y="308" type="line"/>
      <point x="313" y="505" type="line"/>
      <point x="328" y="541"/>
      <point x="344" y="579"/>
      <point x="356" y="611" type="curve"/>
      <point x="360" y="611" type="line"/>
      <point x="362" y="577"/>
      <point x="368" y="534"/>
      <point x="372" y="502" type="curve" smooth="yes"/>
      <point x="394" y="308" type="line"/>
    </contour>
  </outline>
</glyph>
<glyph name="A" format="1">
  <advance width="612"/>
  <outline>
    <contour>
      <point x="424" y="212" type="line"/>
      <point x="496" y="0" type="line"/>
      <point x="589" y="0" type="line"/>
      <point x="359" y="674" type="line"/>
      <point x="254" y="674" type="line"/>
      <point x="25" y="0" type="line"/>
      <point x="115" y="0" type="line"/>
      <point x="185" y="212" type="line"/>
    </contour>
    <contour>
      <point x="203" y="280" type="line"/>
      <point x="269" y="475" type="line" smooth="yes"/>
      <point x="282" y="516"/>
      <point x="293" y="557"/>
      <point x="303" y="597" type="curve"/>
      <point x="305" y="597" type="line"/>
      <point x="315" y="558"/>
      <point x="325" y="518"/>
      <point x="340" y="474" type="curve" smooth="yes"/>
      <point x="406" y="280" type="line"/>
    </contour>
  </outline>
</glyph>
<glyph name="Aacute" format="1">
  <advance width="612"/>
  <outline>
    <contour>
      <point x="347" y="827" type="line"/>
      <point x="254" y="710" type="line"/>
      <point x="329" y="710" type="line"/>
      <point x="456" y="827" type="line"/>
    </contour>
    <component base="A"/>
  </outline>
</glyph>
<glyph name="Acircumflex" format="1">
  <advance width="612"/>
  <outline>
    <contour>
      <point x="278" y="824" type="line"/>
      <point x="174" y="710" type="line"/>
      <point x="245" y="710" type="line"/>
      <point x="309" y="779" type="line"/>
      <point x="311" y="779" type="line"/>
      <point x="374" y="710" type="line"/>
      <point x="448" y="710" type="line"/>
      <point x="342" y="824" type="line"/>
    </contour>
    <component base="A"/>
  </outline>
</glyph>
<glyph name="Adieresis" format="1">
  <advance width="612"/>
  <outline>
    <contour>
      <point x="217" y="720" type="curve" smooth="yes"/>
      <point x="246" y="720"/>
      <point x="266" y="744"/>
      <point x="266" y="771" type="curve" smooth="yes"/>
      <point x="266" y="800"/>
      <point x="245" y="822"/>
      <point x="217" y="822" type="curve" smooth="yes"/>
      <point x="189" y="822"/>
      <point x="166" y="799"/>
      <point x="166" y="771" type="curve" smooth="yes"/>
      <point x="166" y="744"/>
      <point x="187" y="720"/>
    </contour>
    <contour>
      <point x="402" y="720" type="curve" smooth="yes"/>
      <point x="432" y="720"/>
      <point x="452" y="744"/>
      <point x="452" y="771" type="curve" smooth="yes"/>
      <point x="452" y="800"/>
      <point x="431" y="822"/>
      <point x="403" y="822" type="curve" smooth="yes"/>
      <point x="374" y="822"/>
      <point x="352" y="799"/>
      <point x="352" y="771" type="curve" smooth="yes"/>
      <point x="352" y="744"/>
      <point x="372" y="720"/>
    </contour>
    <component base="A"/>
  </outline>
</glyph>
<glyph name="Agrave" format="1">
  <advance width="612"/>
  <outline>
    <contour>
      <point x="159" y="827" type="line"/>
      <point x="286" y="711" type="line"/>
      <point x="361" y="711" type="line"/>
      <point x="268" y="827" type="line"/>
    </contour>
    <component base="A"/>
  </outline>
</glyph>
<glyph name="Aring" format="1">
  <advance width="612"/>
  <outline>
    <contour>
      <point x="307" y="700" type="curve" smooth="yes"/>
      <point x="367" y="700"/>
      <point x="409" y="739"/>
      <point x="409" y="790" type="curve" smooth="yes"/>
      <point x="409" y="839"/>
      <point x="369" y="878"/>
      <point x="307" y="878" type="curve" smooth="yes"/>
      <point x="243" y="878"/>
      <point x="204" y="837"/>
      <point x="204" y="789" type="curve" smooth="yes"/>
      <point x="204" y="739"/>
      <point x="244" y="700"/>
    </contour>
    <contour>
      <point x="306" y="739" type="curve" smooth="yes"/>
      <point x="274" y="739"/>
      <point x="257" y="766"/>
      <point x="257" y="790" type="curve" smooth="yes"/>
      <point x="257" y="814"/>
      <point x="274" y="840"/>
      <point x="307" y="840" type="curve" smooth="yes"/>
      <point x="340" y="840"/>
      <point x="357" y="813"/>
      <point x="357" y="789" type="curve" smooth="yes"/>
      <point x="357" y="764"/>
      <point x="339" y="739"/>
    </contour>
    <component base="A"/>
  </outline>
</glyph>
<glyph name="Atilde" format="1">
  <advance width="612"/>
  <outline>
    <contour>
      <point x="226" y="715" type="line"/>
      <point x="228" y="744"/>
      <point x="237" y="762"/>
      <point x="255" y="762" type="curve" smooth="yes"/>
      <point x="268" y="762"/>
      <point x="280" y="755"/>
      <point x="303" y="744" type="curve" smooth="yes"/>
      <point x="327" y="732"/>
      <point x="347" y="722"/>
      <point x="371" y="722" type="curve" smooth="yes"/>
      <point x="423" y="722"/>
      <point x="448" y="758"/>
      <point x="446" y="828" type="curve"/>
      <point x="396" y="828" type="line"/>
      <point x="393" y="794"/>
      <point x="382" y="785"/>
      <point x="365" y="785" type="curve" smooth="yes"/>
      <point x="351" y="785"/>
      <point x="336" y="793"/>
      <point x="318" y="802" type="curve" smooth="yes"/>
      <point x="291" y="815"/>
      <point x="273" y="825"/>
      <point x="249" y="825" type="curve" smooth="yes"/>
      <point x="201" y="825"/>
      <point x="171" y="784"/>
      <point x="173" y="715" type="curve"/>
    </contour>
    <component base="A"/>
  </outline>
</glyph>
<glyph name="B" format="1">
  <advance width="542"/>
  <outline>
    <contour>
      <point x="76" y="2" type="line"/>
      <point x="105" y="-2"/>
      <point x="151" y="-6"/>
      <point x="211" y="-6" type="curve" smooth="yes"/>
      <point x="321" y="-6"/>
      <point x="397" y="14"/>
      <point x="444" y="57" type="curve" smooth="yes"/>
      <point x="478" y="90"/>
      <point x="501" y="134"/>
      <point x="501" y="192" type="curve" smooth="yes"/>
      <point x="501" y="292"/>
      <point x="426" y="345"/>
      <point x="362" y="361" type="curve"/>
      <point x="362" y="363" type="line"/>
      <point x="433" y="389"/>
      <point x="476" y="446"/>
      <point x="476" y="511" type="curve" smooth="yes"/>
      <point x="476" y="564"/>
      <point x="455" y="604"/>
      <point x="420" y="630" type="curve" smooth="yes"/>
      <point x="378" y="664"/>
      <point x="322" y="679"/>
      <point x="235" y="679" type="curve" smooth="yes"/>
      <point x="174" y="679"/>
      <point x="114" y="673"/>
      <point x="76" y="665" type="curve"/>
    </contour>
    <contour>
      <point x="163" y="606" type="line"/>
      <point x="177" y="609"/>
      <point x="200" y="612"/>
      <point x="240" y="612" type="curve" smooth="yes"/>
      <point x="328" y="612"/>
      <point x="388" y="581"/>
      <point x="388" y="502" type="curve" smooth="yes"/>
      <point x="388" y="437"/>
      <point x="334" y="389"/>
      <point x="242" y="389" type="curve" smooth="yes"/>
      <point x="163" y="389" type="line"/>
    </contour>
    <contour>
      <point x="163" y="323" type="line"/>
      <point x="235" y="323" type="line" smooth="yes"/>
      <point x="330" y="323"/>
      <point x="409" y="285"/>
      <point x="409" y="193" type="curve" smooth="yes"/>
      <point x="409" y="95"/>
      <point x="326" y="62"/>
      <point x="236" y="62" type="curve" smooth="yes"/>
      <point x="205" y="62"/>
      <point x="180" y="63"/>
      <point x="163" y="66" type="curve"/>
    </contour>
  </outline>
</glyph>
<glyph name="C" format="1">
  <advance width="580"/>
  <outline>
    <contour>
      <point x="529" y="91" type="line"/>
      <point x="494" y="74"/>
      <point x="440" y="63"/>
      <point x="387" y="63" type="curve" smooth="yes"/>
      <point x="223" y="63"/>
      <point x="128" y="169"/>
      <point x="128" y="334" type="curve" smooth="yes"/>
      <point x="128" y="511"/>
      <point x="233" y="612"/>
      <point x="391" y="612" type="curve" smooth="yes"/>
      <point x="447" y="612"/>
      <point x="494" y="600"/>
      <point x="527" y="584" type="curve"/>
      <point x="548" y="655" type="line"/>
      <point x="525" y="667"/>
      <point x="472" y="685"/>
      <point x="388" y="685" type="curve" smooth="yes"/>
      <point x="179" y="685"/>
      <point x="36" y="542"/>
      <point x="36" y="331" type="curve" smooth="yes"/>
      <point x="36" y="110"/>
      <point x="179" y="-11"/>
      <point x="369" y="-11" type="curve" smooth="yes"/>
      <point x="451" y="-11"/>
      <point x="515" y="6"/>
      <point x="547" y="22" type="curve"/>
    </contour>
  </outline>
</glyph>
<glyph name="Ccedilla" format="1">
  <advance width="585"/>
  <outline>
    <contour>
      <point x="529" y="91" type="line"/>
      <point x="494" y="74"/>
      <point x="440" y="63"/>
      <point x="387" y="63" type="curve" smooth="yes"/>
      <point x="223" y="63"/>
      <point x="128" y="169"/>
      <point x="128" y="334" type="curve" smooth="yes"/>
      <point x="128" y="511"/>
      <point x="233" y="612"/>
      <point x="391" y="612" type="curve" smooth="yes"/>
      <point x="447" y="612"/>
      <point x="494" y="600"/>
      <point x="527" y="584" type="curve"/>
      <point x="548" y="655" type="line"/>
      <point x="525" y="667"/>
      <point x="472" y="685"/>
      <point x="388" y="685" type="curve" smooth="yes"/>
      <point x="179" y="685"/>
      <point x="36" y="542"/>
      <point x="36" y="331" type="curve" smooth="yes"/>
      <point x="36" y="128"/>
      <point x="155" y="12"/>
      <point x="319" y="-7" type="curve"/>
      <point x="277" y="-84" type="line"/>
      <point x="324" y="-89"/>
      <point x="355" y="-100"/>
      <point x="355" y="-126" type="curve" smooth="yes"/>
      <point x="355" y="-148"/>
      <point x="335" y="-157"/>
      <point x="312" y="-157" type="curve" smooth="yes"/>
      <point x="292" y="-157"/>
      <point x="272" y="-152"/>
      <point x="257" y="-144" type="curve"/>
      <point x="243" y="-189" type="line"/>
      <point x="260" y="-199"/>
      <point x="288" y="-206"/>
      <point x="314" y="-206" type="curve" smooth="yes"/>
      <point x="366" y="-206"/>
      <point x="417" y="-183"/>
      <point x="417" y="-125" type="curve" smooth="yes"/>
      <point x="417" y="-84"/>
      <point x="384" y="-57"/>
      <point x="347" y="-50" type="curve"/>
      <point x="371" y="-10" type="line"/>
      <point x="455" y="-9"/>
      <point x="516" y="6"/>
      <point x="547" y="22" type="curve"/>
    </contour>
  </outline>
</glyph>
<glyph name="D" format="1">
  <advance width="666"/>
  <outline>
    <contour>
      <point x="76" y="2" type="line"/>
      <point x="120" y="-3"/>
      <point x="172" y="-6"/>
      <point x="234" y="-6" type="curve" smooth="yes"/>
      <point x="365" y="-6"/>
      <point x="469" y="28"/>
      <point x="532" y="91" type="curve" smooth="yes"/>
      <point x="595" y="153"/>
      <point x="629" y="243"/>
      <point x="629" y="353" type="curve" smooth="yes"/>
      <point x="629" y="462"/>
      <point x="594" y="540"/>
      <point x="534" y="595" type="curve" smooth="yes"/>
      <point x="475" y="650"/>
      <point x="386" y="679"/>
      <point x="261" y="679" type="curve" smooth="yes"/>
      <point x="192" y="679"/>
      <point x="129" y="673"/>
      <point x="76" y="665" type="curve"/>
    </contour>
    <contour>
      <point x="163" y="601" type="line"/>
      <point x="186" y="606"/>
      <point x="220" y="610"/>
      <point x="265" y="610" type="curve" smooth="yes"/>
      <point x="449" y="610"/>
      <point x="539" y="509"/>
      <point x="538" y="350" type="curve" smooth="yes"/>
      <point x="538" y="168"/>
      <point x="437" y="64"/>
      <point x="251" y="64" type="curve" smooth="yes"/>
      <point x="217" y="64"/>
      <point x="185" y="65"/>
      <point x="163" y="69" type="curve"/>
    </contour>
  </outline>
</glyph>
<glyph name="E" format="1">
  <advance width="492"/>
  <outline>
    <contour>
      <point x="425" y="388" type="line"/>
      <point x="163" y="388" type="line"/>
      <point x="163" y="601" type="line"/>
      <point x="440" y="601" type="line"/>
      <point x="440" y="674" type="line"/>
      <point x="76" y="674" type="line"/>
      <point x="76" y="0" type="line"/>
      <point x="455" y="0" type="line"/>
      <point x="455" y="73" type="line"/>
      <point x="163" y="73" type="line"/>
      <point x="163" y="316" type="line"/>
      <point x="425" y="316" type="line"/>
    </contour>
  </outline>
</glyph>
<glyph name="Eacute" format="1">
  <advance width="492"/>
  <outline>
    <contour>
      <point x="301" y="827" type="line"/>
      <point x="208" y="710" type="line"/>
      <point x="283" y="710" type="line"/>
      <point x="410" y="827" type="line"/>
    </contour>
    <component base="E"/>
  </outline>
</glyph>
<glyph name="Ecircumflex" format="1">
  <advance width="492"/>
  <outline>
    <contour>
      <point x="224" y="824" type="line"/>
      <point x="121" y="710" type="line"/>
      <point x="192" y="710" type="line"/>
      <point x="255" y="779" type="line"/>
      <point x="257" y="779" type="line"/>
      <point x="321" y="710" type="line"/>
      <point x="394" y="710" type="line"/>
      <point x="288" y="824" type="line"/>
    </contour>
    <component base="E"/>
  </outline>
</glyph>
<glyph name="Edieresis" format="1">
  <advance width="492"/>
  <outline>
    <contour>
      <point x="162" y="722" type="curve" smooth="yes"/>
      <point x="191" y="722"/>
      <point x="211" y="745"/>
      <point x="211" y="773" type="curve" smooth="yes"/>
      <point x="211" y="801"/>
      <point x="190" y="824"/>
      <point x="163" y="824" type="curve" smooth="yes"/>
      <point x="134" y="824"/>
      <point x="112" y="801"/>
      <point x="112" y="773" type="curve" smooth="yes"/>
      <point x="112" y="745"/>
      <point x="132" y="722"/>
    </contour>
    <contour>
      <point x="348" y="722" type="curve" smooth="yes"/>
      <point x="377" y="722"/>
      <point x="397" y="745"/>
      <point x="397" y="773" type="curve" smooth="yes"/>
      <point x="397" y="801"/>
      <point x="376" y="824"/>
      <point x="348" y="824" type="curve" smooth="yes"/>
      <point x="320" y="824"/>
      <point x="298" y="801"/>
      <point x="298" y="773" type="curve" smooth="yes"/>
      <point x="298" y="745"/>
      <point x="318" y="722"/>
    </contour>
    <component base="E"/>
  </outline>
</glyph>
<glyph name="Egrave" format="1">
  <advance width="492"/>
  <outline>
    <contour>
      <point x="118" y="827" type="line"/>
      <point x="244" y="711" type="line"/>
      <point x="319" y="711" type="line"/>
      <point x="227" y="827" type="line"/>
    </contour>
    <component base="E"/>
  </outline>
</glyph>
<glyph name="Eth" format="1">
  <advance width="671"/>
  <outline>
    <contour>
      <point x="-2" y="307" type="line"/>
      <point x="81" y="307" type="line"/>
      <point x="81" y="0" type="line"/>
      <point x="125" y="-5"/>
      <point x="176" y="-7"/>
      <point x="239" y="-7" type="curve" smooth="yes"/>
      <point x="369" y="-7"/>
      <point x="474" y="27"/>
      <point x="537" y="90" type="curve" smooth="yes"/>
      <point x="600" y="153"/>
      <point x="634" y="242"/>
      <point x="634" y="353" type="curve" smooth="yes"/>
      <point x="634" y="464"/>
      <point x="599" y="543"/>
      <point x="539" y="598" type="curve" smooth="yes"/>
      <point x="480" y="653"/>
      <point x="390" y="681"/>
      <point x="266" y="681" type="curve" smooth="yes"/>
      <point x="197" y="681"/>
      <point x="134" y="676"/>
      <point x="81" y="667" type="curve"/>
      <point x="81" y="377" type="line"/>
      <point x="-2" y="377" type="line"/>
    </contour>
    <contour>
      <point x="348" y="377" type="line"/>
      <point x="168" y="377" type="line"/>
      <point x="168" y="603" type="line"/>
      <point x="191" y="608"/>
      <point x="225" y="612"/>
      <point x="270" y="612" type="curve" smooth="yes"/>
      <point x="454" y="612"/>
      <point x="544" y="513"/>
      <point x="543" y="352" type="curve" smooth="yes"/>
      <point x="543" y="166"/>
      <point x="443" y="63"/>
      <point x="255" y="63" type="curve" smooth="yes"/>
      <point x="222" y="63"/>
      <point x="190" y="64"/>
      <point x="168" y="67" type="curve"/>
      <point x="168" y="307" type="line"/>
      <point x="348" y="307" type="line"/>
    </contour>
  </outline>
</glyph>
<glyph name="F" format="1">
  <advance width="487"/>
  <outline>
    <contour>
      <point x="76" y="0" type="line"/>
      <point x="163" y="0" type="line"/>
      <point x="163" y="305" type="line"/>
      <point x="418" y="305" type="line"/>
      <point x="418" y="377" type="line"/>
      <point x="163" y="377" type="line"/>
      <point x="163" y="601" type="line"/>
      <point x="439" y="601" type="line"/>
      <point x="439" y="674" type="line"/>
      <point x="76" y="674" type="line"/>
    </contour>
  </outline>
</glyph>
<glyph name="G" format="1">
  <advance width="646"/>
  <outline>
    <contour>
      <point x="589" y="354" type="line"/>
      <point x="367" y="354" type="line"/>
      <point x="367" y="284" type="line"/>
      <point x="504" y="284" type="line"/>
      <point x="504" y="83" type="line"/>
      <point x="484" y="73"/>
      <point x="445" y="65"/>
      <point x="388" y="65" type="curve" smooth="yes"/>
      <point x="231" y="65"/>
      <point x="128" y="166"/>
      <point x="128" y="337" type="curve" smooth="yes"/>
      <point x="128" y="506"/>
      <point x="235" y="608"/>
      <point x="399" y="608" type="curve" smooth="yes"/>
      <point x="467" y="608"/>
      <point x="512" y="595"/>
      <point x="548" y="579" type="curve"/>
      <point x="569" y="650" type="line"/>
      <point x="540" y="664"/>
      <point x="479" y="681"/>
      <point x="401" y="681" type="curve" smooth="yes"/>
      <point x="175" y="681"/>
      <point x="37" y="534"/>
      <point x="36" y="333" type="curve" smooth="yes"/>
      <point x="36" y="228"/>
      <point x="72" y="138"/>
      <point x="130" y="82" type="curve" smooth="yes"/>
      <point x="196" y="19"/>
      <point x="280" y="-7"/>
      <point x="382" y="-7" type="curve" smooth="yes"/>
      <point x="473" y="-7"/>
      <point x="550" y="16"/>
      <point x="589" y="30" type="curve"/>
    </contour>
  </outline>
</glyph>
<glyph name="H" format="1">
  <advance width="652"/>
  <outline>
    <contour>
      <point x="76" y="674" type="line"/>
      <point x="76" y="0" type="line"/>
      <point x="163" y="0" type="line"/>
      <point x="163" y="316" type="line"/>
      <point x="489" y="316" type="line"/>
      <point x="489" y="0" type="line"/>
      <point x="577" y="0" type="line"/>
      <point x="577" y="674" type="line"/>
      <point x="489" y="674" type="line"/>
      <point x="489" y="392" type="line"/>
      <point x="163" y="392" type="line"/>
      <point x="163" y="674" type="line"/>
    </contour>
  </outline>
</glyph>
<glyph name="I" format="1">
  <advance width="239"/>
  <outline>
    <contour>
      <point x="76" y="674" type="line"/>
      <point x="76" y="0" type="line"/>
      <point x="163" y="0" type="line"/>
      <point x="163" y="674" type="line"/>
    </contour>
  </outline>
</glyph>
<glyph name="Iacute" format="1">
  <advance width="239"/>
  <outline>
    <contour>
      <point x="158" y="827" type="line"/>
      <point x="66" y="710" type="line"/>
      <point x="141" y="710" type="line"/>
      <point x="267" y="827" type="line"/>
    </contour>
    <component base="I"/>
  </outline>
</glyph>
<glyph name="Icircumflex" format="1">
  <advance width="239"/>
  <outline>
    <contour>
      <point x="87" y="824" type="line"/>
      <point x="-17" y="710" type="line"/>
      <point x="54" y="710" type="line"/>
      <point x="118" y="779" type="line"/>
      <point x="120" y="779" type="line"/>
      <point x="184" y="710" type="line"/>
      <point x="257" y="710" type="line"/>
      <point x="151" y="824" type="line"/>
    </contour>
    <component base="I"/>
  </outline>
</glyph>
<glyph name="Idieresis" format="1">
  <advance width="239"/>
  <outline>
    <contour>
      <point x="27" y="722" type="curve" smooth="yes"/>
      <point x="57" y="722"/>
      <point x="76" y="745"/>
      <point x="76" y="773" type="curve" smooth="yes"/>
      <point x="76" y="801"/>
      <point x="55" y="824"/>
      <point x="28" y="824" type="curve" smooth="yes"/>
      <point x="-1" y="824"/>
      <point x="-23" y="801"/>
      <point x="-23" y="773" type="curve" smooth="yes"/>
      <point x="-23" y="745"/>
      <point x="-3" y="722"/>
    </contour>
    <contour>
      <point x="213" y="722" type="curve" smooth="yes"/>
      <point x="243" y="722"/>
      <point x="262" y="745"/>
      <point x="262" y="773" type="curve" smooth="yes"/>
      <point x="262" y="801"/>
      <point x="241" y="824"/>
      <point x="213" y="824" type="curve" smooth="yes"/>
      <point x="185" y="824"/>
      <point x="163" y="801"/>
      <point x="163" y="773" type="curve" smooth="yes"/>
      <point x="163" y="745"/>
      <point x="183" y="722"/>
    </contour>
    <component base="I"/>
  </outline>
</glyph>
<glyph name="Igrave" format="1">
  <advance width="239"/>
  <outline>
    <contour>
      <point x="-27" y="827" type="line"/>
      <point x="100" y="711" type="line"/>
      <point x="175" y="711" type="line"/>
      <point x="83" y="827" type="line"/>
    </contour>
    <component base="I"/>
  </outline>
</glyph>
<glyph name="J" format="1">
  <advance width="370"/>
  <outline>
    <contour>
      <point x="214" y="230" type="line"/>
      <point x="214" y="98"/>
      <point x="168" y="63"/>
      <point x="90" y="63" type="curve" smooth="yes"/>
      <point x="61" y="63"/>
      <point x="35" y="69"/>
      <point x="17" y="76" type="curve"/>
      <point x="4" y="5" type="line"/>
      <point x="26" y="-4"/>
      <point x="65" y="-11"/>
      <point x="97" y="-11" type="curve" smooth="yes"/>
      <point x="213" y="-11"/>
      <point x="301" y="44"/>
      <point x="301" y="223" type="curve" smooth="yes"/>
      <point x="301" y="674" type="line"/>
      <point x="214" y="674" type="line"/>
    </contour>
  </outline>
</glyph>
<glyph name="K" format="1">
  <advance width="542"/>
  <outline>
    <contour>
      <point x="76" y="0" type="line"/>
      <point x="163" y="0" type="line"/>
      <point x="163" y="257" type="line"/>
      <point x="227" y="331" type="line"/>
      <point x="449" y="0" type="line"/>
      <point x="552" y="0" type="line"/>
      <point x="289" y="388" type="line"/>
      <point x="533" y="674" type="line"/>
      <point x="425" y="674" type="line"/>
      <point x="219" y="421" type="line" smooth="yes"/>
      <point x="202" y="399"/>
      <point x="184" y="375"/>
      <point x="166" y="349" type="curve"/>
      <point x="163" y="349" type="line"/>
      <point x="163" y="674" type="line"/>
      <point x="76" y="674" type="line"/>
    </contour>
  </outline>
</glyph>
<glyph name="L" format="1">
  <advance width="472"/>
  <outline>
    <contour>
      <point x="76" y="0" type="line"/>
      <point x="451" y="0" type="line"/>
      <point x="451" y="73" type="line"/>
      <point x="163" y="73" type="line"/>
      <point x="163" y="674" type="line"/>
      <point x="76" y="674" type="line"/>
    </contour>
  </outline>
</glyph>
<glyph name="Lslash" format="1">
  <advance width="476"/>
  <outline>
    <contour>
      <point x="455" y="0" type="line"/>
      <point x="455" y="73" type="line"/>
      <point x="167" y="73" type="line"/>
      <point x="167" y="329" type="line"/>
      <point x="301" y="425" type="line"/>
      <point x="301" y="494" type="line"/>
      <point x="167" y="397" type="line"/>
      <point x="167" y="674" type="line"/>
      <point x="80" y="674" type="line"/>
      <point x="80" y="337" type="line"/>
      <point x="-4" y="276" type="line"/>
      <point x="-4" y="208" type="line"/>
      <point x="80" y="270" type="line"/>
      <point x="80" y="0" type="line"/>
    </contour>
  </outline>
</glyph>
<glyph name="M" format="1">
  <advance width="804"/>
  <outline>
    <contour>
      <point x="661" y="0" type="line"/>
      <point x="746" y="0" type="line"/>
      <point x="704" y="674" type="line"/>
      <point x="593" y="674" type="line"/>
      <point x="473" y="348" type="line" smooth="yes"/>
      <point x="443" y="263"/>
      <point x="419" y="189"/>
      <point x="402" y="121" type="curve"/>
      <point x="399" y="121" type="line"/>
      <point x="382" y="191"/>
      <point x="359" y="265"/>
      <point x="331" y="348" type="curve" smooth="yes"/>
      <point x="216" y="674" type="line"/>
      <point x="105" y="674" type="line"/>
      <point x="58" y="0" type="line"/>
      <point x="141" y="0" type="line"/>
      <point x="159" y="289" type="line" smooth="yes"/>
      <point x="165" y="390"/>
      <point x="170" y="503"/>
      <point x="172" y="587" type="curve"/>
      <point x="174" y="587" type="line"/>
      <point x="193" y="507"/>
      <point x="220" y="420"/>
      <point x="252" y="325" type="curve" smooth="yes"/>
      <point x="361" y="4" type="line"/>
      <point x="427" y="4" type="line"/>
      <point x="546" y="331" type="line" smooth="yes"/>
      <point x="580" y="423"/>
      <point x="608" y="508"/>
      <point x="631" y="587" type="curve"/>
      <point x="634" y="587" type="line"/>
      <point x="633" y="503"/>
      <point x="639" y="390"/>
      <point x="644" y="296" type="curve" smooth="yes"/>
    </contour>
  </outline>
</glyph>
<glyph name="N" format="1">
  <advance width="658"/>
  <outline>
    <contour>
      <point x="158" y="0" type="line"/>
      <point x="158" y="288" type="line" smooth="yes"/>
      <point x="158" y="400"/>
      <point x="156" y="481"/>
      <point x="151" y="566" type="curve"/>
      <point x="154" y="567" type="line"/>
      <point x="188" y="494"/>
      <point x="233" y="417"/>
      <point x="280" y="342" type="curve" smooth="yes"/>
      <point x="494" y="0" type="line"/>
      <point x="582" y="0" type="line"/>
      <point x="582" y="674" type="line"/>
      <point x="500" y="674" type="line"/>
      <point x="500" y="392" type="line" smooth="yes"/>
      <point x="500" y="287"/>
      <point x="502" y="205"/>
      <point x="510" y="115" type="curve"/>
      <point x="508" y="114" type="line"/>
      <point x="476" y="183"/>
      <point x="437" y="254"/>
      <point x="387" y="333" type="curve" smooth="yes"/>
      <point x="171" y="674" type="line"/>
      <point x="76" y="674" type="line"/>
      <point x="76" y="0" type="line"/>
    </contour>
  </outline>
</glyph>
<glyph name="Ntilde" format="1">
  <advance width="658"/>
  <outline>
    <contour>
      <point x="250" y="715" type="line"/>
      <point x="252" y="744"/>
      <point x="262" y="762"/>
      <point x="279" y="762" type="curve" smooth="yes"/>
      <point x="293" y="762"/>
      <point x="305" y="755"/>
      <point x="328" y="744" type="curve" smooth="yes"/>
      <point x="351" y="732"/>
      <point x="372" y="722"/>
      <point x="396" y="722" type="curve" smooth="yes"/>
      <point x="448" y="722"/>
      <point x="472" y="758"/>
      <point x="471" y="828" type="curve"/>
      <point x="420" y="828" type="line"/>
      <point x="417" y="794"/>
      <point x="406" y="785"/>
      <point x="390" y="785" type="curve" smooth="yes"/>
      <point x="376" y="785"/>
      <point x="360" y="793"/>
      <point x="342" y="802" type="curve" smooth="yes"/>
      <point x="316" y="815"/>
      <point x="297" y="825"/>
      <point x="273" y="825" type="curve" smooth="yes"/>
      <point x="226" y="825"/>
      <point x="196" y="784"/>
      <point x="198" y="715" type="curve"/>
    </contour>
    <component base="N"/>
  </outline>
</glyph>
<glyph name="OE" format="1">
  <advance width="894"/>
  <outline>
    <contour>
      <point x="857" y="73" type="line"/>
      <point x="565" y="73" type="line"/>
      <point x="565" y="315" type="line"/>
      <point x="826" y="315" type="line"/>
      <point x="826" y="388" type="line"/>
      <point x="565" y="388" type="line"/>
      <point x="565" y="601" type="line"/>
      <point x="842" y="601" type="line"/>
      <point x="842" y="674" type="line"/>
      <point x="511" y="674" type="line"/>
      <point x="473" y="678"/>
      <point x="422" y="685"/>
      <point x="370" y="685" type="curve" smooth="yes"/>
      <point x="176" y="685"/>
      <point x="36" y="554"/>
      <point x="36" y="332" type="curve" smooth="yes"/>
      <point x="36" y="139"/>
      <point x="154" y="-11"/>
      <point x="363" y="-11" type="curve" smooth="yes"/>
      <point x="417" y="-11"/>
      <point x="458" y="-6"/>
      <point x="504" y="0" type="curve"/>
      <point x="857" y="0" type="line"/>
    </contour>
    <contour>
      <point x="477" y="73" type="line"/>
      <point x="455" y="65"/>
      <point x="416" y="60"/>
      <point x="379" y="60" type="curve" smooth="yes"/>
      <point x="221" y="60"/>
      <point x="128" y="172"/>
      <point x="129" y="336" type="curve" smooth="yes"/>
      <point x="128" y="501"/>
      <point x="220" y="614"/>
      <point x="371" y="614" type="curve" smooth="yes"/>
      <point x="419" y="614"/>
      <point x="451" y="608"/>
      <point x="477" y="599" type="curve"/>
    </contour>
  </outline>
</glyph>
<glyph name="O" format="1">
  <advance width="689"/>
  <outline>
    <contour>
      <point x="349" y="685" type="curve" smooth="yes"/>
      <point x="169" y="685"/>
      <point x="36" y="545"/>
      <point x="36" y="331" type="curve" smooth="yes"/>
      <point x="36" y="127"/>
      <point x="161" y="-11"/>
      <point x="339" y="-11" type="curve" smooth="yes"/>
      <point x="511" y="-11"/>
      <point x="652" y="112"/>
      <point x="652" y="344" type="curve" smooth="yes"/>
      <point x="652" y="544"/>
      <point x="533" y="685"/>
    </contour>
    <contour>
      <point x="345" y="614" type="curve" smooth="yes"/>
      <point x="490" y="614"/>
      <point x="560" y="474"/>
      <point x="560" y="340" type="curve" smooth="yes"/>
      <point x="560" y="187"/>
      <point x="482" y="60"/>
      <point x="344" y="60" type="curve" smooth="yes"/>
      <point x="207" y="60"/>
      <point x="129" y="189"/>
      <point x="129" y="333" type="curve" smooth="yes"/>
      <point x="129" y="481"/>
      <point x="201" y="614"/>
    </contour>
  </outline>
</glyph>
<glyph name="Oacute" format="1">
  <advance width="689"/>
  <outline>
    <contour>
      <point x="383" y="829" type="line"/>
      <point x="290" y="713" type="line"/>
      <point x="365" y="713" type="line"/>
      <point x="492" y="829" type="line"/>
    </contour>
    <component base="O"/>
  </outline>
</glyph>
<glyph name="Ocircumflex" format="1">
  <advance width="689"/>
  <outline>
    <contour>
      <point x="311" y="827" type="line"/>
      <point x="208" y="713" type="line"/>
      <point x="279" y="713" type="line"/>
      <point x="342" y="782" type="line"/>
      <point x="344" y="782" type="line"/>
      <point x="408" y="713" type="line"/>
      <point x="481" y="713" type="line"/>
      <point x="375" y="827" type="line"/>
    </contour>
    <component base="O"/>
  </outline>
</glyph>
<glyph name="Odieresis" format="1">
  <advance width="689"/>
  <outline>
    <contour>
      <point x="251" y="722" type="curve" smooth="yes"/>
      <point x="281" y="722"/>
      <point x="300" y="745"/>
      <point x="300" y="773" type="curve" smooth="yes"/>
      <point x="300" y="801"/>
      <point x="279" y="824"/>
      <point x="252" y="824" type="curve" smooth="yes"/>
      <point x="223" y="824"/>
      <point x="201" y="801"/>
      <point x="201" y="773" type="curve" smooth="yes"/>
      <point x="201" y="745"/>
      <point x="221" y="722"/>
    </contour>
    <contour>
      <point x="437" y="722" type="curve" smooth="yes"/>
      <point x="467" y="722"/>
      <point x="486" y="745"/>
      <point x="486" y="773" type="curve" smooth="yes"/>
      <point x="486" y="801"/>
      <point x="465" y="824"/>
      <point x="438" y="824" type="curve" smooth="yes"/>
      <point x="409" y="824"/>
      <point x="387" y="801"/>
      <point x="387" y="773" type="curve" smooth="yes"/>
      <point x="387" y="745"/>
      <point x="407" y="722"/>
    </contour>
    <component base="O"/>
  </outline>
</glyph>
<glyph name="Ograve" format="1">
  <advance width="689"/>
  <outline>
    <contour>
      <point x="198" y="829" type="line"/>
      <point x="325" y="713" type="line"/>
      <point x="400" y="713" type="line"/>
      <point x="307" y="829" type="line"/>
    </contour>
    <component base="O"/>
  </outline>
</glyph>
<glyph name="Oslash" format="1">
  <advance width="689"/>
  <outline>
    <contour>
      <point x="112" y="-43" type="line"/>
      <point x="175" y="43" type="line"/>
      <point x="223" y="8"/>
      <point x="282" y="-11"/>
      <point x="346" y="-11" type="curve" smooth="yes"/>
      <point x="507" y="-11"/>
      <point x="652" y="108"/>
      <point x="652" y="343" type="curve" smooth="yes"/>
      <point x="652" y="442"/>
      <point x="621" y="530"/>
      <point x="565" y="591" type="curve"/>
      <point x="627" y="677" type="line"/>
      <point x="574" y="713" type="line"/>
      <point x="515" y="632" type="line"/>
      <point x="467" y="667"/>
      <point x="409" y="685"/>
      <point x="347" y="685" type="curve" smooth="yes"/>
      <point x="171" y="685"/>
      <point x="36" y="546"/>
      <point x="36" y="333" type="curve" smooth="yes"/>
      <point x="36" y="233"/>
      <point x="69" y="144"/>
      <point x="125" y="84" type="curve"/>
      <point x="63" y="-4" type="line"/>
    </contour>
    <contour>
      <point x="176" y="158" type="line"/>
      <point x="175" y="157" type="line"/>
      <point x="145" y="209"/>
      <point x="125" y="263"/>
      <point x="125" y="338" type="curve" smooth="yes"/>
      <point x="125" y="479"/>
      <point x="199" y="615"/>
      <point x="346" y="615" type="curve" smooth="yes"/>
      <point x="396" y="615"/>
      <point x="438" y="597"/>
      <point x="472" y="568" type="curve"/>
    </contour>
    <contour>
      <point x="513" y="515" type="line"/>
      <point x="516" y="515" type="line"/>
      <point x="551" y="458"/>
      <point x="563" y="397"/>
      <point x="563" y="340" type="curve" smooth="yes"/>
      <point x="563" y="188"/>
      <point x="485" y="59"/>
      <point x="344" y="59" type="curve" smooth="yes"/>
      <point x="290" y="59"/>
      <point x="251" y="76"/>
      <point x="218" y="107" type="curve"/>
    </contour>
  </outline>
</glyph>
<glyph name="Otilde" format="1">
  <advance width="689"/>
  <outline>
    <contour>
      <point x="260" y="717" type="line"/>
      <point x="262" y="747"/>
      <point x="272" y="764"/>
      <point x="289" y="764" type="curve" smooth="yes"/>
      <point x="303" y="764"/>
      <point x="315" y="758"/>
      <point x="338" y="746" type="curve" smooth="yes"/>
      <point x="361" y="734"/>
      <point x="382" y="724"/>
      <point x="406" y="724" type="curve" smooth="yes"/>
      <point x="458" y="724"/>
      <point x="482" y="760"/>
      <point x="481" y="831" type="curve"/>
      <point x="430" y="831" type="line"/>
      <point x="427" y="796"/>
      <point x="416" y="787"/>
      <point x="400" y="787" type="curve" smooth="yes"/>
      <point x="386" y="787"/>
      <point x="370" y="795"/>
      <point x="352" y="804" type="curve" smooth="yes"/>
      <point x="326" y="817"/>
      <point x="307" y="827"/>
      <point x="283" y="827" type="curve" smooth="yes"/>
      <point x="236" y="827"/>
      <point x="206" y="786"/>
      <point x="208" y="717" type="curve"/>
    </contour>
    <component base="O"/>
  </outline>
</glyph>
<glyph name="P" format="1">
  <advance width="532"/>
  <outline>
    <contour>
      <point x="76" y="0" type="line"/>
      <point x="163" y="0" type="line"/>
      <point x="163" y="269" type="line"/>
      <point x="183" y="263"/>
      <point x="207" y="262"/>
      <point x="233" y="262" type="curve" smooth="yes"/>
      <point x="318" y="262"/>
      <point x="393" y="287"/>
      <point x="439" y="336" type="curve" smooth="yes"/>
      <point x="473" y="371"/>
      <point x="491" y="420"/>
      <point x="491" y="481" type="curve" smooth="yes"/>
      <point x="491" y="542"/>
      <point x="469" y="591"/>
      <point x="432" y="623" type="curve" smooth="yes"/>
      <point x="392" y="659"/>
      <point x="329" y="679"/>
      <point x="243" y="679" type="curve" smooth="yes"/>
      <point x="173" y="679"/>
      <point x="118" y="673"/>
      <point x="76" y="666" type="curve"/>
    </contour>
    <contour>
      <point x="163" y="603" type="line"/>
      <point x="178" y="607"/>
      <point x="207" y="610"/>
      <point x="245" y="610" type="curve" smooth="yes"/>
      <point x="341" y="610"/>
      <point x="404" y="567"/>
      <point x="404" y="477" type="curve" smooth="yes"/>
      <point x="404" y="384"/>
      <point x="340" y="332"/>
      <point x="235" y="332" type="curve" smooth="yes"/>
      <point x="206" y="332"/>
      <point x="182" y="334"/>
      <point x="163" y="340" type="curve"/>
    </contour>
  </outline>
</glyph>
<glyph name="Q" format="1">
  <advance width="689"/>
  <outline>
    <contour>
      <point x="657" y="-26" type="line"/>
      <point x="600" y="-16"/>
      <point x="527" y="0"/>
      <point x="460" y="17" type="curve"/>
      <point x="460" y="21" type="line"/>
      <point x="572" y="60"/>
      <point x="652" y="171"/>
      <point x="652" y="344" type="curve" smooth="yes"/>
      <point x="652" y="543"/>
      <point x="533" y="685"/>
      <point x="350" y="685" type="curve" smooth="yes"/>
      <point x="168" y="685"/>
      <point x="36" y="546"/>
      <point x="36" y="330" type="curve" smooth="yes"/>
      <point x="36" y="113"/>
      <point x="173" y="-5"/>
      <point x="333" y="-11" type="curve" smooth="yes"/>
      <point x="346" y="-11"/>
      <point x="360" y="-16"/>
      <point x="374" y="-21" type="curve" smooth="yes"/>
      <point x="452" y="-48"/>
      <point x="541" y="-75"/>
      <point x="632" y="-99" type="curve"/>
    </contour>
    <contour>
      <point x="343" y="60" type="line"/>
      <point x="207" y="60"/>
      <point x="128" y="189"/>
      <point x="129" y="332" type="curve" smooth="yes"/>
      <point x="128" y="478"/>
      <point x="200" y="614"/>
      <point x="347" y="614" type="curve" smooth="yes"/>
      <point x="490" y="614"/>
      <point x="560" y="475"/>
      <point x="560" y="340" type="curve" smooth="yes"/>
      <point x="560" y="186"/>
      <point x="482" y="60"/>
      <point x="344" y="60" type="curve"/>
    </contour>
  </outline>
</glyph>
<glyph name="R" format="1">
  <advance width="538"/>
  <outline>
    <contour>
      <point x="76" y="0" type="line"/>
      <point x="163" y="0" type="line"/>
      <point x="163" y="292" type="line"/>
      <point x="245" y="292" type="line" smooth="yes"/>
      <point x="324" y="289"/>
      <point x="360" y="254"/>
      <point x="380" y="161" type="curve" smooth="yes"/>
      <point x="399" y="77"/>
      <point x="414" y="20"/>
      <point x="425" y="0" type="curve"/>
      <point x="515" y="0" type="line"/>
      <point x="501" y="26"/>
      <point x="485" y="91"/>
      <point x="463" y="185" type="curve" smooth="yes"/>
      <point x="447" y="255"/>
      <point x="416" y="303"/>
      <point x="364" y="321" type="curve"/>
      <point x="364" y="324" type="line"/>
      <point x="435" y="348"/>
      <point x="491" y="407"/>
      <point x="491" y="496" type="curve" smooth="yes"/>
      <point x="491" y="548"/>
      <point x="472" y="594"/>
      <point x="438" y="624" type="curve" smooth="yes"/>
      <point x="396" y="662"/>
      <point x="336" y="679"/>
      <point x="243" y="679" type="curve" smooth="yes"/>
      <point x="183" y="679"/>
      <point x="120" y="674"/>
      <point x="76" y="665" type="curve"/>
    </contour>
    <contour>
      <point x="163" y="604" type="line"/>
      <point x="177" y="608"/>
      <point x="207" y="612"/>
      <point x="249" y="612" type="curve" smooth="yes"/>
      <point x="341" y="611"/>
      <point x="404" y="573"/>
      <point x="404" y="486" type="curve" smooth="yes"/>
      <point x="404" y="409"/>
      <point x="345" y="358"/>
      <point x="252" y="358" type="curve" smooth="yes"/>
      <point x="163" y="358" type="line"/>
    </contour>
  </outline>
</glyph>
<glyph name="S" format="1">
  <advance width="493"/>
  <outline>
    <contour>
      <point x="42" y="33" type="line"/>
      <point x="78" y="9"/>
      <point x="149" y="-11"/>
      <point x="214" y="-11" type="curve" smooth="yes"/>
      <point x="373" y="-11"/>
      <point x="450" y="80"/>
      <point x="450" y="184" type="curve" smooth="yes"/>
      <point x="450" y="283"/>
      <point x="392" y="338"/>
      <point x="278" y="382" type="curve" smooth="yes"/>
      <point x="185" y="418"/>
      <point x="144" y="449"/>
      <point x="144" y="512" type="curve" smooth="yes"/>
      <point x="144" y="558"/>
      <point x="179" y="613"/>
      <point x="271" y="613" type="curve" smooth="yes"/>
      <point x="332" y="613"/>
      <point x="377" y="593"/>
      <point x="399" y="581" type="curve"/>
      <point x="423" y="652" type="line"/>
      <point x="393" y="669"/>
      <point x="343" y="685"/>
      <point x="274" y="685" type="curve" smooth="yes"/>
      <point x="143" y="685"/>
      <point x="56" y="607"/>
      <point x="56" y="502" type="curve" smooth="yes"/>
      <point x="56" y="407"/>
      <point x="124" y="350"/>
      <point x="234" y="311" type="curve" smooth="yes"/>
      <point x="325" y="276"/>
      <point x="361" y="240"/>
      <point x="361" y="177" type="curve" smooth="yes"/>
      <point x="361" y="109"/>
      <point x="309" y="62"/>
      <point x="220" y="62" type="curve" smooth="yes"/>
      <point x="160" y="62"/>
      <point x="103" y="82"/>
      <point x="64" y="106" type="curve"/>
    </contour>
  </outline>
</glyph>
<glyph name="Scaron" format="1">
  <advance width="493"/>
  <outline>
    <contour>
      <point x="292" y="713" type="line"/>
      <point x="394" y="827" type="line"/>
      <point x="323" y="827" type="line"/>
      <point x="260" y="757" type="line"/>
      <point x="258" y="757" type="line"/>
      <point x="194" y="827" type="line"/>
      <point x="120" y="827" type="line"/>
      <point x="225" y="713" type="line"/>
    </contour>
    <component base="S"/>
  </outline>
</glyph>
<glyph name="T" format="1">
  <advance width="497"/>
  <outline>
    <contour>
      <point x="204" y="0" type="line"/>
      <point x="292" y="0" type="line"/>
      <point x="292" y="600" type="line"/>
      <point x="498" y="600" type="line"/>
      <point x="498" y="674" type="line"/>
      <point x="-1" y="674" type="line"/>
      <point x="-1" y="600" type="line"/>
      <point x="204" y="600" type="line"/>
    </contour>
  </outline>
</glyph>
<glyph name="Thorn" format="1">
  <advance width="531"/>
  <outline>
    <contour>
      <point x="76" y="0" type="line"/>
      <point x="162" y="0" type="line"/>
      <point x="162" y="156" type="line"/>
      <point x="183" y="153"/>
      <point x="210" y="151"/>
      <point x="238" y="151" type="curve" smooth="yes"/>
      <point x="384" y="151"/>
      <point x="491" y="222"/>
      <point x="491" y="364" type="curve" smooth="yes"/>
      <point x="491" y="416"/>
      <point x="471" y="462"/>
      <point x="436" y="495" type="curve" smooth="yes"/>
      <point x="395" y="531"/>
      <point x="337" y="550"/>
      <point x="258" y="550" type="curve" smooth="yes"/>
      <point x="222" y="550"/>
      <point x="189" y="547"/>
      <point x="162" y="542" type="curve"/>
      <point x="162" y="674" type="line"/>
      <point x="76" y="674" type="line"/>
    </contour>
    <contour>
      <point x="162" y="473" type="line"/>
      <point x="178" y="477"/>
      <point x="210" y="481"/>
      <point x="250" y="481" type="curve" smooth="yes"/>
      <point x="342" y="481"/>
      <point x="404" y="442"/>
      <point x="404" y="355" type="curve" smooth="yes"/>
      <point x="404" y="273"/>
      <point x="345" y="221"/>
      <point x="237" y="221" type="curve" smooth="yes"/>
      <point x="211" y="221"/>
      <point x="185" y="223"/>
      <point x="162" y="227" type="curve"/>
    </contour>
  </outline>
</glyph>
<glyph name="U" format="1">
  <advance width="647"/>
  <outline>
    <contour>
      <point x="75" y="674" type="line"/>
      <point x="75" y="276" type="line" smooth="yes"/>
      <point x="75" y="67"/>
      <point x="179" y="-11"/>
      <point x="317" y="-11" type="curve" smooth="yes"/>
      <point x="463" y="-11"/>
      <point x="572" y="73"/>
      <point x="572" y="280" type="curve" smooth="yes"/>
      <point x="572" y="674" type="line"/>
      <point x="484" y="674" type="line"/>
      <point x="484" y="274" type="line" smooth="yes"/>
      <point x="484" y="126"/>
      <point x="420" y="60"/>
      <point x="320" y="60" type="curve" smooth="yes"/>
      <point x="230" y="60"/>
      <point x="163" y="124"/>
      <point x="163" y="274" type="curve" smooth="yes"/>
      <point x="163" y="674" type="line"/>
    </contour>
  </outline>
</glyph>
<glyph name="Uacute" format="1">
  <advance width="647"/>
  <outline>
    <contour>
      <point x="365" y="827" type="line"/>
      <point x="273" y="710" type="line"/>
      <point x="348" y="710" type="line"/>
      <point x="474" y="827" type="line"/>
    </contour>
    <component base="U"/>
  </outline>
</glyph>
<glyph name="Ucircumflex" format="1">
  <advance width="647"/>
  <outline>
    <contour>
      <point x="297" y="824" type="line"/>
      <point x="193" y="710" type="line"/>
      <point x="264" y="710" type="line"/>
      <point x="328" y="779" type="line"/>
      <point x="330" y="779" type="line"/>
      <point x="393" y="710" type="line"/>
      <point x="466" y="710" type="line"/>
      <point x="361" y="824" type="line"/>
    </contour>
    <component base="U"/>
  </outline>
</glyph>
<glyph name="Udieresis" format="1">
  <advance width="647"/>
  <outline>
    <contour>
      <point x="233" y="722" type="curve" smooth="yes"/>
      <point x="262" y="722"/>
      <point x="282" y="745"/>
      <point x="282" y="773" type="curve" smooth="yes"/>
      <point x="282" y="801"/>
      <point x="261" y="824"/>
      <point x="234" y="824" type="curve" smooth="yes"/>
      <point x="205" y="824"/>
      <point x="183" y="801"/>
      <point x="183" y="773" type="curve" smooth="yes"/>
      <point x="183" y="745"/>
      <point x="203" y="722"/>
    </contour>
    <contour>
      <point x="418" y="722" type="curve" smooth="yes"/>
      <point x="448" y="722"/>
      <point x="468" y="745"/>
      <point x="468" y="773" type="curve" smooth="yes"/>
      <point x="468" y="801"/>
      <point x="447" y="824"/>
      <point x="419" y="824" type="curve" smooth="yes"/>
      <point x="390" y="824"/>
      <point x="368" y="801"/>
      <point x="368" y="773" type="curve" smooth="yes"/>
      <point x="368" y="745"/>
      <point x="388" y="722"/>
    </contour>
    <component base="U"/>
  </outline>
</glyph>
<glyph name="Ugrave" format="1">
  <advance width="647"/>
  <outline>
    <contour>
      <point x="182" y="827" type="line"/>
      <point x="308" y="711" type="line"/>
      <point x="383" y="711" type="line"/>
      <point x="291" y="827" type="line"/>
    </contour>
    <component base="U"/>
  </outline>
</glyph>
<glyph name="V" format="1">
  <advance width="558"/>
  <outline>
    <contour>
      <point x="320" y="0" type="line"/>
      <point x="561" y="674" type="line"/>
      <point x="468" y="674" type="line"/>
      <point x="354" y="341" type="line" smooth="yes"/>
      <point x="324" y="253"/>
      <point x="296" y="168"/>
      <point x="277" y="90" type="curve"/>
      <point x="275" y="90" type="line"/>
      <point x="257" y="169"/>
      <point x="232" y="251"/>
      <point x="203" y="342" type="curve" smooth="yes"/>
      <point x="98" y="674" type="line"/>
      <point x="4" y="674" type="line"/>
      <point x="224" y="0" type="line"/>
    </contour>
  </outline>
</glyph>
<glyph name="W" format="1">
  <advance width="846"/>
  <outline>
    <contour>
      <point x="277" y="0" type="line"/>
      <point x="373" y="351" type="line" smooth="yes"/>
      <point x="398" y="438"/>
      <point x="413" y="504"/>
      <point x="425" y="571" type="curve"/>
      <point x="427" y="571" type="line"/>
      <point x="436" y="503"/>
      <point x="450" y="437"/>
      <point x="471" y="351" type="curve" smooth="yes"/>
      <point x="556" y="0" type="line"/>
      <point x="647" y="0" type="line"/>
      <point x="838" y="674" type="line"/>
      <point x="749" y="674" type="line"/>
      <point x="660" y="334" type="line" smooth="yes"/>
      <point x="639" y="250"/>
      <point x="620" y="175"/>
      <point x="606" y="101" type="curve"/>
      <point x="604" y="101" type="line"/>
      <point x="594" y="172"/>
      <point x="576" y="252"/>
      <point x="557" y="332" type="curve" smooth="yes"/>
      <point x="475" y="674" type="line"/>
      <point x="384" y="674" type="line"/>
      <point x="294" y="334" type="line" smooth="yes"/>
      <point x="271" y="247"/>
      <point x="250" y="167"/>
      <point x="239" y="100" type="curve"/>
      <point x="237" y="100" type="line"/>
      <point x="225" y="165"/>
      <point x="207" y="249"/>
      <point x="187" y="333" type="curve" smooth="yes"/>
      <point x="107" y="674" type="line"/>
      <point x="15" y="674" type="line"/>
      <point x="186" y="0" type="line"/>
    </contour>
  </outline>
</glyph>
<glyph name="X" format="1">
  <advance width="571"/>
  <outline>
    <contour>
      <point x="546" y="0" type="line"/>
      <point x="336" y="346" type="line"/>
      <point x="541" y="674" type="line"/>
      <point x="441" y="674" type="line"/>
      <point x="349" y="516" type="line" smooth="yes"/>
      <point x="324" y="473"/>
      <point x="307" y="442"/>
      <point x="288" y="402" type="curve"/>
      <point x="285" y="402" type="line"/>
      <point x="267" y="438"/>
      <point x="248" y="472"/>
      <point x="223" y="516" type="curve" smooth="yes"/>
      <point x="134" y="674" type="line"/>
      <point x="33" y="674" type="line"/>
      <point x="231" y="341" type="line"/>
      <point x="25" y="0" type="line"/>
      <point x="125" y="0" type="line"/>
      <point x="206" y="148" type="line" smooth="yes"/>
      <point x="241" y="207"/>
      <point x="260" y="243"/>
      <point x="279" y="282" type="curve"/>
      <point x="281" y="282" type="line"/>
      <point x="302" y="243"/>
      <point x="324" y="206"/>
      <point x="359" y="149" type="curve" smooth="yes"/>
      <point x="445" y="0" type="line"/>
    </contour>
  </outline>
</glyph>
<glyph name="Y" format="1">
  <advance width="541"/>
  <outline>
    <contour>
      <point x="314" y="0" type="line"/>
      <point x="314" y="287" type="line"/>
      <point x="540" y="674" type="line"/>
      <point x="441" y="674" type="line"/>
      <point x="344" y="488" type="line" smooth="yes"/>
      <point x="318" y="437"/>
      <point x="295" y="393"/>
      <point x="276" y="349" type="curve"/>
      <point x="274" y="349" type="line"/>
      <point x="253" y="396"/>
      <point x="233" y="437"/>
      <point x="207" y="488" type="curve" smooth="yes"/>
      <point x="112" y="674" type="line"/>
      <point x="13" y="674" type="line"/>
      <point x="226" y="286" type="line"/>
      <point x="226" y="0" type="line"/>
    </contour>
  </outline>
</glyph>
<glyph name="Yacute" format="1">
  <advance width="541"/>
  <outline>
    <contour>
      <point x="319" y="821" type="line"/>
      <point x="226" y="705" type="line"/>
      <point x="301" y="705" type="line"/>
      <point x="428" y="821" type="line"/>
    </contour>
    <component base="Y"/>
  </outline>
</glyph>
<glyph name="Ydieresis" format="1">
  <advance width="541"/>
  <outline>
    <contour>
      <point x="187" y="715" type="curve" smooth="yes"/>
      <point x="216" y="715"/>
      <point x="236" y="738"/>
      <point x="236" y="766" type="curve" smooth="yes"/>
      <point x="236" y="794"/>
      <point x="215" y="817"/>
      <point x="187" y="817" type="curve" smooth="yes"/>
      <point x="159" y="817"/>
      <point x="136" y="794"/>
      <point x="136" y="766" type="curve" smooth="yes"/>
      <point x="136" y="738"/>
      <point x="157" y="715"/>
    </contour>
    <contour>
      <point x="372" y="715" type="curve" smooth="yes"/>
      <point x="402" y="715"/>
      <point x="422" y="738"/>
      <point x="422" y="766" type="curve" smooth="yes"/>
      <point x="422" y="794"/>
      <point x="401" y="817"/>
      <point x="373" y="817" type="curve" smooth="yes"/>
      <point x="344" y="817"/>
      <point x="322" y="794"/>
      <point x="322" y="766" type="curve" smooth="yes"/>
      <point x="322" y="738"/>
      <point x="342" y="715"/>
    </contour>
    <component base="Y"/>
  </outline>
</glyph>
<glyph name="Z" format="1">
  <advance width="553"/>
  <outline>
    <contour>
      <point x="30" y="0" type="line"/>
      <point x="522" y="0" type="line"/>
      <point x="522" y="73" type="line"/>
      <point x="145" y="73" type="line"/>
      <point x="145" y="76" type="line"/>
      <point x="517" y="621" type="line"/>
      <point x="517" y="674" type="line"/>
      <point x="62" y="674" type="line"/>
      <point x="62" y="601" type="line"/>
      <point x="404" y="601" type="line"/>
      <point x="404" y="598" type="line"/>
      <point x="30" y="51" type="line"/>
    </contour>
  </outline>
</glyph>
<glyph name="Zcaron" format="1">
  <advance width="553"/>
  <outline>
    <contour>
      <point x="320" y="710" type="line"/>
      <point x="423" y="824" type="line"/>
      <point x="352" y="824" type="line"/>
      <point x="288" y="755" type="line"/>
      <point x="286" y="755" type="line"/>
      <point x="222" y="824" type="line"/>
      <point x="149" y="824" type="line"/>
      <point x="253" y="710" type="line"/>
    </contour>
    <component base="Z"/>
  </outline>
</glyph>
<glyph name="a" format="1">
  <advance width="482"/>
  <outline>
    <contour>
      <point x="413" y="297" type="line"/>
      <point x="413" y="394"/>
      <point x="377" y="495"/>
      <point x="229" y="495" type="curve" smooth="yes"/>
      <point x="168" y="495"/>
      <point x="110" y="478"/>
      <point x="70" y="452" type="curve"/>
      <point x="90" y="394" type="line"/>
      <point x="124" y="416"/>
      <point x="171" y="430"/>
      <point x="216" y="430" type="curve" smooth="yes"/>
      <point x="315" y="430"/>
      <point x="326" y="358"/>
      <point x="326" y="318" type="curve" smooth="yes"/>
      <point x="326" y="308" type="line"/>
      <point x="139" y="309"/>
      <point x="35" y="245"/>
      <point x="35" y="128" type="curve" smooth="yes"/>
      <point x="35" y="58"/>
      <point x="85" y="-11"/>
      <point x="183" y="-11" type="curve" smooth="yes"/>
      <point x="252" y="-11"/>
      <point x="304" y="23"/>
      <point x="331" y="61" type="curve"/>
      <point x="334" y="61" type="line"/>
      <point x="341" y="0" type="line"/>
      <point x="421" y="0" type="line"/>
      <point x="415" y="33"/>
      <point x="413" y="74"/>
      <point x="413" y="116" type="curve" smooth="yes"/>
    </contour>
    <contour>
      <point x="328" y="163" type="line"/>
      <point x="328" y="154"/>
      <point x="326" y="144"/>
      <point x="323" y="135" type="curve" smooth="yes"/>
      <point x="309" y="94"/>
      <point x="269" y="54"/>
      <point x="206" y="54" type="curve" smooth="yes"/>
      <point x="161" y="54"/>
      <point x="123" y="81"/>
      <point x="123" y="138" type="curve" smooth="yes"/>
      <point x="123" y="232"/>
      <point x="232" y="249"/>
      <point x="328" y="247" type="curve"/>
    </contour>
  </outline>
</glyph>
<glyph name="acute" format="1">
  <advance width="300"/>
  <outline>
    <contour>
      <point x="188" y="693" type="line"/>
      <point x="101" y="550" type="line"/>
      <point x="164" y="550" type="line"/>
      <point x="286" y="693" type="line"/>
    </contour>
  </outline>
</glyph>
<glyph name="ae" format="1">
  <advance width="773"/>
  <outline>
    <contour>
      <point x="734" y="233" type="line"/>
      <point x="736" y="242"/>
      <point x="737" y="257"/>
      <point x="737" y="272" type="curve" smooth="yes"/>
      <point x="737" y="352"/>
      <point x="696" y="495"/>
      <point x="548" y="495" type="curve" smooth="yes"/>
      <point x="472" y="495"/>
      <point x="412" y="456"/>
      <point x="379" y="393" type="curve"/>
      <point x="377" y="393" type="line"/>
      <point x="357" y="454"/>
      <point x="308" y="495"/>
      <point x="221" y="495" type="curve" smooth="yes"/>
      <point x="173" y="495"/>
      <point x="113" y="478"/>
      <point x="70" y="451" type="curve"/>
      <point x="91" y="393" type="line"/>
      <point x="120" y="413"/>
      <point x="169" y="430"/>
      <point x="215" y="430" type="curve" smooth="yes"/>
      <point x="313" y="430"/>
      <point x="328" y="346"/>
      <point x="328" y="322" type="curve" smooth="yes"/>
      <point x="328" y="302" type="line"/>
      <point x="140" y="304"/>
      <point x="36" y="239"/>
      <point x="36" y="127" type="curve" smooth="yes"/>
      <point x="36" y="57"/>
      <point x="86" y="-11"/>
      <point x="187" y="-11" type="curve" smooth="yes"/>
      <point x="270" y="-11"/>
      <point x="336" y="29"/>
      <point x="367" y="96" type="curve"/>
      <point x="369" y="96" type="line"/>
      <point x="397" y="28"/>
      <point x="471" y="-11"/>
      <point x="553" y="-11" type="curve" smooth="yes"/>
      <point x="617" y="-11"/>
      <point x="673" y="2"/>
      <point x="712" y="23" type="curve"/>
      <point x="696" y="85" type="line"/>
      <point x="669" y="72"/>
      <point x="631" y="57"/>
      <point x="564" y="57" type="curve" smooth="yes"/>
      <point x="473" y="57"/>
      <point x="407" y="118"/>
      <point x="410" y="233" type="curve"/>
    </contour>
    <contour>
      <point x="329" y="172" type="line"/>
      <point x="329" y="160"/>
      <point x="328" y="148"/>
      <point x="324" y="137" type="curve" smooth="yes"/>
      <point x="310" y="93"/>
      <point x="270" y="54"/>
      <point x="207" y="54" type="curve" smooth="yes"/>
      <point x="161" y="54"/>
      <point x="123" y="83"/>
      <point x="123" y="134" type="curve" smooth="yes"/>
      <point x="123" y="229"/>
      <point x="236" y="245"/>
      <point x="329" y="243" type="curve"/>
    </contour>
    <contour>
      <point x="409" y="296" type="line"/>
      <point x="412" y="351"/>
      <point x="452" y="432"/>
      <point x="539" y="432" type="curve" smooth="yes"/>
      <point x="628" y="432"/>
      <point x="655" y="345"/>
      <point x="652" y="296" type="curve"/>
    </contour>
  </outline>
</glyph>
<glyph name="ampersand" format="1">
  <advance width="605"/>
  <outline>
    <contour>
      <point x="602" y="0" type="line"/>
      <point x="562" y="43"/>
      <point x="527" y="81"/>
      <point x="491" y="119" type="curve"/>
      <point x="541" y="178"/>
      <point x="570" y="262"/>
      <point x="588" y="368" type="curve"/>
      <point x="508" y="368" type="line"/>
      <point x="495" y="283"/>
      <point x="474" y="218"/>
      <point x="443" y="171" type="curve"/>
      <point x="400" y="219"/>
      <point x="336" y="293"/>
      <point x="279" y="359" type="curve"/>
      <point x="279" y="362" type="line"/>
      <point x="386" y="415"/>
      <point x="427" y="471"/>
      <point x="427" y="542" type="curve" smooth="yes"/>
      <point x="427" y="629"/>
      <point x="362" y="685"/>
      <point x="278" y="685" type="curve" smooth="yes"/>
      <point x="166" y="685"/>
      <point x="107" y="601"/>
      <point x="107" y="519" type="curve" smooth="yes"/>
      <point x="107" y="471"/>
      <point x="128" y="422"/>
      <point x="163" y="378" type="curve"/>
      <point x="163" y="375" type="line"/>
      <point x="86" y="333"/>
      <point x="31" y="270"/>
      <point x="31" y="178" type="curve" smooth="yes"/>
      <point x="31" y="77"/>
      <point x="107" y="-11"/>
      <point x="238" y="-11" type="curve" smooth="yes"/>
      <point x="312" y="-11"/>
      <point x="377" y="12"/>
      <point x="435" y="66" type="curve"/>
      <point x="461" y="38"/>
      <point x="479" y="19"/>
      <point x="498" y="0" type="curve"/>
    </contour>
    <contour>
      <point x="253" y="55" type="line"/>
      <point x="172" y="55"/>
      <point x="115" y="114"/>
      <point x="115" y="191" type="curve" smooth="yes"/>
      <point x="115" y="262"/>
      <point x="166" y="305"/>
      <point x="202" y="328" type="curve"/>
      <point x="277" y="242"/>
      <point x="352" y="160"/>
      <point x="392" y="116" type="curve"/>
      <point x="360" y="81"/>
      <point x="311" y="55"/>
      <point x="254" y="55" type="curve"/>
    </contour>
    <contour>
      <point x="272" y="625" type="line"/>
      <point x="327" y="625"/>
      <point x="350" y="579"/>
      <point x="350" y="538" type="curve" smooth="yes"/>
      <point x="350" y="481"/>
      <point x="306" y="445"/>
      <point x="238" y="406" type="curve"/>
      <point x="209" y="442"/>
      <point x="187" y="479"/>
      <point x="187" y="527" type="curve" smooth="yes"/>
      <point x="187" y="579"/>
      <point x="216" y="625"/>
      <point x="271" y="625" type="curve"/>
    </contour>
  </outline>
</glyph>
<glyph name="asciicircum" format="1">
  <advance width="596"/>
  <outline>
    <contour>
      <point x="536" y="189" type="line"/>
      <point x="329" y="650" type="line"/>
      <point x="267" y="650" type="line"/>
      <point x="60" y="189" type="line"/>
      <point x="130" y="189" type="line"/>
      <point x="297" y="577" type="line"/>
      <point x="299" y="577" type="line"/>
      <point x="466" y="189" type="line"/>
    </contour>
  </outline>
</glyph>
<glyph name="asciitilde" format="1">
  <advance width="596"/>
  <outline>
    <contour>
      <point x="108" y="210" type="line"/>
      <point x="110" y="270"/>
      <point x="132" y="295"/>
      <point x="168" y="295" type="curve" smooth="yes"/>
      <point x="204" y="295"/>
      <point x="241" y="274"/>
      <point x="288" y="251" type="curve" smooth="yes"/>
      <point x="357" y="219"/>
      <point x="393" y="207"/>
      <point x="433" y="207" type="curve" smooth="yes"/>
      <point x="495" y="207"/>
      <point x="553" y="246"/>
      <point x="548" y="358" type="curve"/>
      <point x="488" y="358" type="line"/>
      <point x="487" y="303"/>
      <point x="470" y="274"/>
      <point x="434" y="274" type="curve" smooth="yes"/>
      <point x="397" y="274"/>
      <point x="360" y="292"/>
      <point x="309" y="316" type="curve" smooth="yes"/>
      <point x="242" y="348"/>
      <point x="210" y="361"/>
      <point x="168" y="361" type="curve" smooth="yes"/>
      <point x="99" y="361"/>
      <point x="45" y="310"/>
      <point x="49" y="210" type="curve"/>
    </contour>
  </outline>
</glyph>
<glyph name="asterisk" format="1">
  <advance width="415"/>
  <outline>
    <contour>
      <point x="269" y="685" type="line"/>
      <point x="208" y="545" type="line"/>
      <point x="206" y="545" type="line"/>
      <point x="144" y="684" type="line"/>
      <point x="83" y="649" type="line"/>
      <point x="177" y="527" type="line"/>
      <point x="177" y="525" type="line"/>
      <point x="30" y="544" type="line"/>
      <point x="30" y="476" type="line"/>
      <point x="178" y="495" type="line"/>
      <point x="178" y="493" type="line"/>
      <point x="83" y="371" type="line"/>
      <point x="140" y="335" type="line"/>
      <point x="205" y="476" type="line"/>
      <point x="207" y="476" type="line"/>
      <point x="267" y="336" type="line"/>
      <point x="330" y="372" type="line"/>
      <point x="234" y="492" type="line"/>
      <point x="234" y="494" type="line"/>
      <point x="385" y="476" type="line"/>
      <point x="385" y="544" type="line"/>
      <point x="234" y="524" type="line"/>
      <point x="234" y="526" type="line"/>
      <point x="329" y="651" type="line"/>
    </contour>
  </outline>
</glyph>
<glyph name="at" format="1">
  <advance width="737"/>
  <outline>
    <contour>
      <point x="448" y="255" type="line"/>
      <point x="437" y="193"/>
      <point x="384" y="119"/>
      <point x="326" y="119" type="curve" smooth="yes"/>
      <point x="282" y="119"/>
      <point x="260" y="151"/>
      <point x="260" y="195" type="curve" smooth="yes"/>
      <point x="260" y="292"/>
      <point x="331" y="375"/>
      <point x="419" y="375" type="curve" smooth="yes"/>
      <point x="442" y="375"/>
      <point x="459" y="371"/>
      <point x="469" y="368" type="curve"/>
    </contour>
    <contour>
      <point x="508" y="-22" type="line"/>
      <point x="467" y="-45"/>
      <point x="414" y="-57"/>
      <point x="357" y="-57" type="curve" smooth="yes"/>
      <point x="209" y="-57"/>
      <point x="100" y="47"/>
      <point x="100" y="214" type="curve" smooth="yes"/>
      <point x="100" y="417"/>
      <point x="237" y="547"/>
      <point x="400" y="547" type="curve" smooth="yes"/>
      <point x="555" y="547"/>
      <point x="642" y="442"/>
      <point x="642" y="297" type="curve" smooth="yes"/>
      <point x="642" y="181"/>
      <point x="585" y="113"/>
      <point x="534" y="114" type="curve" smooth="yes"/>
      <point x="501" y="115"/>
      <point x="489" y="150"/>
      <point x="504" y="226" type="curve" smooth="yes"/>
      <point x="538" y="407" type="line"/>
      <point x="512" y="419"/>
      <point x="474" y="428"/>
      <point x="431" y="428" type="curve" smooth="yes"/>
      <point x="292" y="428"/>
      <point x="194" y="315"/>
      <point x="194" y="191" type="curve" smooth="yes"/>
      <point x="194" y="112"/>
      <point x="244" y="65"/>
      <point x="302" y="65" type="curve" smooth="yes"/>
      <point x="362" y="65"/>
      <point x="408" y="94"/>
      <point x="443" y="153" type="curve"/>
      <point x="447" y="153" type="line"/>
      <point x="444" y="92"/>
      <point x="481" y="65"/>
      <point x="521" y="65" type="curve" smooth="yes"/>
      <point x="615" y="65"/>
      <point x="699" y="153"/>
      <point x="699" y="303" type="curve" smooth="yes"/>
      <point x="699" y="470"/>
      <point x="582" y="593"/>
      <point x="408" y="593" type="curve" smooth="yes"/>
      <point x="186" y="593"/>
      <point x="43" y="414"/>
      <point x="43" y="208" type="curve" smooth="yes"/>
      <point x="43" y="15"/>
      <point x="182" y="-105"/>
      <point x="346" y="-105" type="curve" smooth="yes"/>
      <point x="413" y="-105"/>
      <point x="469" y="-94"/>
      <point x="524" y="-65" type="curve"/>
    </contour>
  </outline>
</glyph>
<glyph name="b" format="1">
  <advance width="569"/>
  <outline>
    <contour>
      <point x="73" y="125" type="line"/>
      <point x="73" y="82"/>
      <point x="71" y="33"/>
      <point x="69" y="0" type="curve"/>
      <point x="145" y="0" type="line"/>
      <point x="149" y="80" type="line"/>
      <point x="152" y="80" type="line"/>
      <point x="188" y="16"/>
      <point x="244" y="-11"/>
      <point x="314" y="-11" type="curve" smooth="yes"/>
      <point x="422" y="-11"/>
      <point x="531" y="75"/>
      <point x="531" y="248" type="curve" smooth="yes"/>
      <point x="532" y="395"/>
      <point x="447" y="495"/>
      <point x="327" y="495" type="curve" smooth="yes"/>
      <point x="249" y="495"/>
      <point x="193" y="460"/>
      <point x="162" y="406" type="curve"/>
      <point x="160" y="406" type="line"/>
      <point x="160" y="710" type="line"/>
      <point x="73" y="710" type="line"/>
    </contour>
    <contour>
      <point x="160" y="281" type="line"/>
      <point x="160" y="295"/>
      <point x="163" y="307"/>
      <point x="165" y="317" type="curve" smooth="yes"/>
      <point x="183" y="384"/>
      <point x="239" y="425"/>
      <point x="299" y="425" type="curve" smooth="yes"/>
      <point x="393" y="425"/>
      <point x="443" y="342"/>
      <point x="443" y="245" type="curve" smooth="yes"/>
      <point x="443" y="134"/>
      <point x="388" y="59"/>
      <point x="296" y="59" type="curve" smooth="yes"/>
      <point x="232" y="59"/>
      <point x="181" y="101"/>
      <point x="164" y="162" type="curve" smooth="yes"/>
      <point x="162" y="172"/>
      <point x="160" y="183"/>
      <point x="160" y="194" type="curve" smooth="yes"/>
    </contour>
  </outline>
</glyph>
<glyph name="backslash" format="1">
  <advance width="341"/>
  <outline>
    <contour>
      <point x="342" y="-40" type="line"/>
      <point x="70" y="685" type="line"/>
      <point x="2" y="685" type="line"/>
      <point x="274" y="-40" type="line"/>
    </contour>
  </outline>
</glyph>
<glyph name="bar" format="1">
  <advance width="239"/>
  <outline>
    <contour>
      <point x="86" y="750" type="line"/>
      <point x="86" y="-250" type="line"/>
      <point x="153" y="-250" type="line"/>
      <point x="153" y="750" type="line"/>
    </contour>
  </outline>
</glyph>
<glyph name="braceleft" format="1">
  <advance width="284"/>
  <outline>
    <contour>
      <point x="28" y="262" type="line"/>
      <point x="99" y="262"/>
      <point x="109" y="219"/>
      <point x="109" y="188" type="curve" smooth="yes"/>
      <point x="109" y="161"/>
      <point x="105" y="134"/>
      <point x="101" y="107" type="curve" smooth="yes"/>
      <point x="97" y="80"/>
      <point x="93" y="52"/>
      <point x="93" y="25" type="curve" smooth="yes"/>
      <point x="93" y="-76"/>
      <point x="155" y="-112"/>
      <point x="238" y="-112" type="curve" smooth="yes"/>
      <point x="259" y="-112" type="line"/>
      <point x="259" y="-57" type="line"/>
      <point x="241" y="-57" type="line"/>
      <point x="185" y="-56"/>
      <point x="162" y="-26"/>
      <point x="162" y="30" type="curve" smooth="yes"/>
      <point x="162" y="54"/>
      <point x="165" y="77"/>
      <point x="169" y="102" type="curve" smooth="yes"/>
      <point x="173" y="126"/>
      <point x="176" y="151"/>
      <point x="176" y="178" type="curve" smooth="yes"/>
      <point x="177" y="242"/>
      <point x="149" y="276"/>
      <point x="104" y="287" type="curve"/>
      <point x="104" y="289" type="line"/>
      <point x="149" y="301"/>
      <point x="177" y="333"/>
      <point x="176" y="397" type="curve" smooth="yes"/>
      <point x="176" y="424"/>
      <point x="173" y="449"/>
      <point x="169" y="473" type="curve" smooth="yes"/>
      <point x="165" y="497"/>
      <point x="162" y="521"/>
      <point x="162" y="545" type="curve" smooth="yes"/>
      <point x="162" y="599"/>
      <point x="182" y="630"/>
      <point x="241" y="631" type="curve"/>
      <point x="259" y="631" type="line"/>
      <point x="259" y="686" type="line"/>
      <point x="238" y="686" type="line" smooth="yes"/>
      <point x="153" y="686"/>
      <point x="93" y="647"/>
      <point x="93" y="555" type="curve" smooth="yes"/>
      <point x="93" y="527"/>
      <point x="97" y="499"/>
      <point x="101" y="471" type="curve" smooth="yes"/>
      <point x="105" y="443"/>
      <point x="109" y="415"/>
      <point x="109" y="388" type="curve" smooth="yes"/>
      <point x="109" y="352"/>
      <point x="99" y="313"/>
      <point x="28" y="313" type="curve"/>
    </contour>
  </outline>
</glyph>
<glyph name="braceright" format="1">
  <advance width="284"/>
  <outline>
    <contour>
      <point x="256" y="313" type="line"/>
      <point x="185" y="313"/>
      <point x="175" y="352"/>
      <point x="175" y="388" type="curve" smooth="yes"/>
      <point x="175" y="415"/>
      <point x="179" y="443"/>
      <point x="183" y="471" type="curve" smooth="yes"/>
      <point x="187" y="499"/>
      <point x="191" y="527"/>
      <point x="191" y="555" type="curve" smooth="yes"/>
      <point x="191" y="647"/>
      <point x="130" y="686"/>
      <point x="45" y="686" type="curve" smooth="yes"/>
      <point x="25" y="686" type="line"/>
      <point x="25" y="631" type="line"/>
      <point x="43" y="631" type="line"/>
      <point x="101" y="630"/>
      <point x="122" y="599"/>
      <point x="122" y="545" type="curve" smooth="yes"/>
      <point x="122" y="521"/>
      <point x="118" y="497"/>
      <point x="115" y="473" type="curve" smooth="yes"/>
      <point x="111" y="449"/>
      <point x="107" y="424"/>
      <point x="107" y="397" type="curve" smooth="yes"/>
      <point x="107" y="333"/>
      <point x="135" y="301"/>
      <point x="179" y="289" type="curve"/>
      <point x="179" y="287" type="line"/>
      <point x="135" y="276"/>
      <point x="107" y="242"/>
      <point x="107" y="178" type="curve" smooth="yes"/>
      <point x="107" y="151"/>
      <point x="111" y="126"/>
      <point x="115" y="102" type="curve" smooth="yes"/>
      <point x="118" y="77"/>
      <point x="122" y="54"/>
      <point x="122" y="30" type="curve" smooth="yes"/>
      <point x="122" y="-26"/>
      <point x="98" y="-56"/>
      <point x="42" y="-57" type="curve"/>
      <point x="25" y="-57" type="line"/>
      <point x="25" y="-112" type="line"/>
      <point x="46" y="-112" type="line" smooth="yes"/>
      <point x="128" y="-112"/>
      <point x="191" y="-76"/>
      <point x="191" y="25" type="curve" smooth="yes"/>
      <point x="191" y="52"/>
      <point x="187" y="80"/>
      <point x="183" y="107" type="curve" smooth="yes"/>
      <point x="179" y="134"/>
      <point x="175" y="161"/>
      <point x="175" y="188" type="curve" smooth="yes"/>
      <point x="175" y="219"/>
      <point x="185" y="262"/>
      <point x="256" y="262" type="curve"/>
    </contour>
  </outline>
</glyph>
<glyph name="bracketleft" format="1">
  <advance width="284"/>
  <outline>
    <contour>
      <point x="265" y="-112" type="line"/>
      <point x="265" y="-57" type="line"/>
      <point x="150" y="-57" type="line"/>
      <point x="150" y="631" type="line"/>
      <point x="265" y="631" type="line"/>
      <point x="265" y="686" type="line"/>
      <point x="82" y="686" type="line"/>
      <point x="82" y="-112" type="line"/>
    </contour>
  </outline>
</glyph>
<glyph name="bracketright" format="1">
  <advance width="284"/>
  <outline>
    <contour>
      <point x="19" y="686" type="line"/>
      <point x="19" y="631" type="line"/>
      <point x="134" y="631" type="line"/>
      <point x="134" y="-57" type="line"/>
      <point x="19" y="-57" type="line"/>
      <point x="19" y="-112" type="line"/>
      <point x="202" y="-112" type="line"/>
      <point x="202" y="686" type="line"/>
    </contour>
  </outline>
</glyph>
<glyph name="breve" format="1">
  <advance width="300"/>
  <outline>
    <contour>
      <point x="26" y="682" type="line"/>
      <point x="26" y="620"/>
      <point x="62" y="558"/>
      <point x="150" y="558" type="curve" smooth="yes"/>
      <point x="225" y="558"/>
      <point x="274" y="608"/>
      <point x="274" y="682" type="curve"/>
      <point x="222" y="682" type="line"/>
      <point x="219" y="649"/>
      <point x="197" y="613"/>
      <point x="150" y="613" type="curve" smooth="yes"/>
      <point x="109" y="613"/>
      <point x="84" y="643"/>
      <point x="78" y="682" type="curve"/>
    </contour>
  </outline>
</glyph>
<glyph name="brokenbar" format="1">
  <advance width="239"/>
  <outline>
    <contour>
      <point x="86" y="174" type="line"/>
      <point x="86" y="-176" type="line"/>
      <point x="153" y="-176" type="line"/>
      <point x="153" y="174" type="line"/>
    </contour>
    <contour>
      <point x="86" y="674" type="line"/>
      <point x="86" y="324" type="line"/>
      <point x="153" y="324" type="line"/>
      <point x="153" y="674" type="line"/>
    </contour>
  </outline>
</glyph>
<glyph name="bullet" format="1">
  <advance width="282"/>
  <outline>
    <contour>
      <point x="141" y="157" type="line"/>
      <point x="200" y="157"/>
      <point x="246" y="203"/>
      <point x="246" y="262" type="curve" smooth="yes"/>
      <point x="246" y="320"/>
      <point x="199" y="367"/>
      <point x="141" y="367" type="curve" smooth="yes"/>
      <point x="83" y="367"/>
      <point x="35" y="320"/>
      <point x="36" y="261" type="curve"/>
      <point x="36" y="202"/>
      <point x="83" y="157"/>
      <point x="140" y="157" type="curve"/>
    </contour>
  </outline>
</glyph>
<glyph name="c" format="1">
  <advance width="448"/>
  <outline>
    <contour>
      <point x="403" y="84" type="line"/>
      <point x="378" y="73"/>
      <point x="345" y="60"/>
      <point x="295" y="60" type="curve" smooth="yes"/>
      <point x="199" y="60"/>
      <point x="127" y="129"/>
      <point x="127" y="241" type="curve" smooth="yes"/>
      <point x="127" y="342"/>
      <point x="187" y="424"/>
      <point x="298" y="424" type="curve" smooth="yes"/>
      <point x="346" y="424"/>
      <point x="379" y="413"/>
      <point x="400" y="401" type="curve"/>
      <point x="420" y="469" type="line"/>
      <point x="396" y="481"/>
      <point x="350" y="494"/>
      <point x="298" y="494" type="curve" smooth="yes"/>
      <point x="140" y="494"/>
      <point x="38" y="386"/>
      <point x="38" y="237" type="curve" smooth="yes"/>
      <point x="38" y="89"/>
      <point x="133" y="-11"/>
      <point x="279" y="-11" type="curve" smooth="yes"/>
      <point x="344" y="-11"/>
      <point x="395" y="6"/>
      <point x="418" y="18" type="curve"/>
    </contour>
  </outline>
</glyph>
<glyph name="caron" format="1">
  <advance width="300"/>
  <outline>
    <contour>
      <point x="183" y="550" type="line"/>
      <point x="277" y="693" type="line"/>
      <point x="211" y="693" type="line"/>
      <point x="152" y="598" type="line"/>
      <point x="150" y="598" type="line"/>
      <point x="91" y="693" type="line"/>
      <point x="23" y="693" type="line"/>
      <point x="119" y="550" type="line"/>
    </contour>
  </outline>
</glyph>
<glyph name="ccedilla" format="1">
  <advance width="447"/>
  <outline>
    <contour>
      <point x="403" y="84" type="line"/>
      <point x="379" y="73"/>
      <point x="345" y="60"/>
      <point x="295" y="60" type="curve" smooth="yes"/>
      <point x="199" y="60"/>
      <point x="127" y="129"/>
      <point x="127" y="241" type="curve" smooth="yes"/>
      <point x="127" y="342"/>
      <point x="187" y="424"/>
      <point x="298" y="424" type="curve" smooth="yes"/>
      <point x="346" y="424"/>
      <point x="379" y="413"/>
      <point x="400" y="401" type="curve"/>
      <point x="420" y="469" type="line"/>
      <point x="396" y="481"/>
      <point x="350" y="494"/>
      <point x="298" y="494" type="curve" smooth="yes"/>
      <point x="140" y="494"/>
      <point x="38" y="386"/>
      <point x="38" y="237" type="curve" smooth="yes"/>
      <point x="38" y="103"/>
      <point x="117" y="8"/>
      <point x="240" y="-7" type="curve"/>
      <point x="198" y="-84" type="line"/>
      <point x="245" y="-89"/>
      <point x="275" y="-99"/>
      <point x="276" y="-126" type="curve" smooth="yes"/>
      <point x="276" y="-150"/>
      <point x="256" y="-157"/>
      <point x="233" y="-157" type="curve" smooth="yes"/>
      <point x="213" y="-157"/>
      <point x="193" y="-153"/>
      <point x="178" y="-144" type="curve"/>
      <point x="163" y="-189" type="line"/>
      <point x="182" y="-200"/>
      <point x="210" y="-206"/>
      <point x="233" y="-206" type="curve" smooth="yes"/>
      <point x="287" y="-206"/>
      <point x="337" y="-183"/>
      <point x="337" y="-123" type="curve" smooth="yes"/>
      <point x="337" y="-82"/>
      <point x="303" y="-57"/>
      <point x="267" y="-50" type="curve"/>
      <point x="292" y="-10" type="line"/>
      <point x="352" y="-9"/>
      <point x="398" y="7"/>
      <point x="419" y="18" type="curve"/>
    </contour>
  </outline>
</glyph>
<glyph name="cedilla" format="1">
  <advance width="300"/>
  <outline>
    <contour>
      <point x="136" y="2" type="curve"/>
      <point x="90" y="-84" type="line"/>
      <point x="137" y="-89"/>
      <point x="168" y="-100"/>
      <point x="168" y="-126" type="curve" smooth="yes"/>
      <point x="169" y="-150"/>
      <point x="148" y="-157"/>
      <point x="125" y="-157" type="curve" smooth="yes"/>
      <point x="106" y="-157"/>
      <point x="86" y="-153"/>
      <point x="70" y="-144" type="curve"/>
      <point x="56" y="-189" type="line"/>
      <point x="74" y="-200"/>
      <point x="102" y="-206"/>
      <point x="125" y="-206" type="curve" smooth="yes"/>
      <point x="179" y="-206"/>
      <point x="229" y="-183"/>
      <point x="229" y="-123" type="curve" smooth="yes"/>
      <point x="229" y="-82"/>
      <point x="196" y="-57"/>
      <point x="159" y="-50" type="curve"/>
      <point x="190" y="2" type="line"/>
      <point x="190" y="2"/>
      <point x="136" y="2"/>
    </contour>
  </outline>
</glyph>
<glyph name="cent" format="1">
  <advance width="513"/>
  <outline>
    <contour>
      <point x="330" y="-14" type="line"/>
      <point x="330" y="87" type="line"/>
      <point x="379" y="89"/>
      <point x="421" y="105"/>
      <point x="441" y="116" type="curve"/>
      <point x="425" y="179" type="line"/>
      <point x="401" y="168"/>
      <point x="366" y="154"/>
      <point x="311" y="154" type="curve" smooth="yes"/>
      <point x="223" y="154"/>
      <point x="155" y="219"/>
      <point x="155" y="330" type="curve" smooth="yes"/>
      <point x="155" y="428"/>
      <point x="216" y="508"/>
      <point x="315" y="508" type="curve" smooth="yes"/>
      <point x="365" y="508"/>
      <point x="399" y="495"/>
      <point x="419" y="483" type="curve"/>
      <point x="439" y="550" type="line"/>
      <point x="416" y="562"/>
      <point x="375" y="575"/>
      <point x="330" y="575" type="curve"/>
      <point x="330" y="673" type="line"/>
      <point x="268" y="673" type="line"/>
      <point x="268" y="573" type="line"/>
      <point x="146" y="553"/>
      <point x="67" y="455"/>
      <point x="67" y="326" type="curve" smooth="yes"/>
      <point x="67" y="253"/>
      <point x="89" y="195"/>
      <point x="123" y="157" type="curve" smooth="yes"/>
      <point x="159" y="118"/>
      <point x="204" y="95"/>
      <point x="268" y="87" type="curve"/>
      <point x="268" y="-14" type="line"/>
    </contour>
  </outline>
</glyph>
<glyph name="circumflex" format="1">
  <advance width="300"/>
  <outline>
    <contour>
      <point x="119" y="693" type="line"/>
      <point x="25" y="550" type="line"/>
      <point x="90" y="550" type="line"/>
      <point x="148" y="645" type="line"/>
      <point x="150" y="645" type="line"/>
      <point x="208" y="550" type="line"/>
      <point x="276" y="550" type="line"/>
      <point x="180" y="693" type="line"/>
    </contour>
  </outline>
</glyph>
<glyph name="colon" format="1">
  <advance width="207"/>
  <outline>
    <contour>
      <point x="111" y="342" type="line"/>
      <point x="148" y="342"/>
      <point x="171" y="369"/>
      <point x="171" y="404" type="curve" smooth="yes"/>
      <point x="170" y="441"/>
      <point x="147" y="468"/>
      <point x="112" y="468" type="curve" smooth="yes"/>
      <point x="77" y="468"/>
      <point x="52" y="441"/>
      <point x="52" y="404" type="curve" smooth="yes"/>
      <point x="52" y="369"/>
      <point x="76" y="342"/>
      <point x="110" y="342" type="curve"/>
    </contour>
    <contour>
      <point x="111" y="-11" type="line"/>
      <point x="148" y="-11"/>
      <point x="171" y="16"/>
      <point x="171" y="51" type="curve" smooth="yes"/>
      <point x="170" y="88"/>
      <point x="147" y="114"/>
      <point x="112" y="114" type="curve" smooth="yes"/>
      <point x="77" y="114"/>
      <point x="52" y="88"/>
      <point x="52" y="51" type="curve" smooth="yes"/>
      <point x="52" y="16"/>
      <point x="76" y="-11"/>
      <point x="110" y="-11" type="curve"/>
    </contour>
  </outline>
</glyph>
<glyph name="comma" format="1">
  <advance width="207"/>
  <outline>
    <contour>
      <point x="79" y="-117" type="line"/>
      <point x="107" y="-70"/>
      <point x="151" y="41"/>
      <point x="174" y="126" type="curve"/>
      <point x="76" y="116" type="line"/>
      <point x="65" y="43"/>
      <point x="38" y="-64"/>
      <point x="16" y="-123" type="curve"/>
    </contour>
  </outline>
</glyph>
<glyph name="copyright" format="1">
  <advance width="677"/>
  <outline>
    <contour>
      <point x="340" y="648" type="line"/>
      <point x="170" y="648"/>
      <point x="36" y="510"/>
      <point x="36" y="340" type="curve" smooth="yes"/>
      <point x="36" y="168"/>
      <point x="170" y="30"/>
      <point x="340" y="30" type="curve" smooth="yes"/>
      <point x="509" y="30"/>
      <point x="641" y="168"/>
      <point x="641" y="340" type="curve" smooth="yes"/>
      <point x="641" y="510"/>
      <point x="509" y="648"/>
      <point x="341" y="648" type="curve"/>
    </contour>
    <contour>
      <point x="340" y="607" type="line"/>
      <point x="481" y="607"/>
      <point x="591" y="489"/>
      <point x="591" y="340" type="curve" smooth="yes"/>
      <point x="591" y="188"/>
      <point x="481" y="70"/>
      <point x="340" y="71" type="curve"/>
      <point x="196" y="72"/>
      <point x="86" y="188"/>
      <point x="86" y="337" type="curve" smooth="yes"/>
      <point x="86" y="489"/>
      <point x="196" y="607"/>
      <point x="339" y="607" type="curve"/>
    </contour>
    <contour>
      <point x="474" y="493" type="line"/>
      <point x="461" y="505"/>
      <point x="416" y="520"/>
      <point x="364" y="520" type="curve" smooth="yes"/>
      <point x="263" y="520"/>
      <point x="173" y="448"/>
      <point x="173" y="334" type="curve" smooth="yes"/>
      <point x="173" y="233"/>
      <point x="240" y="153"/>
      <point x="356" y="153" type="curve" smooth="yes"/>
      <point x="398" y="153"/>
      <point x="444" y="161"/>
      <point x="479" y="184" type="curve"/>
      <point x="467" y="222" type="line"/>
      <point x="444" y="207"/>
      <point x="406" y="196"/>
      <point x="366" y="196" type="curve" smooth="yes"/>
      <point x="274" y="196"/>
      <point x="225" y="259"/>
      <point x="225" y="337" type="curve" smooth="yes"/>
      <point x="225" y="417"/>
      <point x="271" y="477"/>
      <point x="365" y="477" type="curve" smooth="yes"/>
      <point x="412" y="477"/>
      <point x="449" y="461"/>
      <point x="462" y="454" type="curve"/>
    </contour>
  </outline>
</glyph>
<glyph name="currency" format="1">
  <advance width="513"/>
  <outline>
    <contour>
      <point x="256" y="534" type="line"/>
      <point x="212" y="534"/>
      <point x="170" y="518"/>
      <point x="142" y="493" type="curve"/>
      <point x="73" y="569" type="line"/>
      <point x="29" y="523" type="line"/>
      <point x="104" y="452" type="line"/>
      <point x="83" y="424"/>
      <point x="65" y="381"/>
      <point x="65" y="329" type="curve" smooth="yes"/>
      <point x="65" y="280"/>
      <point x="82" y="235"/>
      <point x="102" y="209" type="curve"/>
      <point x="30" y="138" type="line"/>
      <point x="73" y="94" type="line"/>
      <point x="140" y="168" type="line"/>
      <point x="167" y="143"/>
      <point x="213" y="128"/>
      <point x="254" y="128" type="curve" smooth="yes"/>
      <point x="294" y="128"/>
      <point x="341" y="142"/>
      <point x="371" y="171" type="curve"/>
      <point x="439" y="94" type="line"/>
      <point x="484" y="138" type="line"/>
      <point x="409" y="212" type="line"/>
      <point x="427" y="237"/>
      <point x="444" y="280"/>
      <point x="444" y="335" type="curve" smooth="yes"/>
      <point x="444" y="383"/>
      <point x="428" y="425"/>
      <point x="409" y="452" type="curve"/>
      <point x="487" y="523" type="line"/>
      <point x="443" y="569" type="line"/>
      <point x="372" y="494" type="line"/>
      <point x="344" y="518"/>
      <point x="303" y="534"/>
      <point x="257" y="534" type="curve"/>
    </contour>
    <contour>
      <point x="255" y="471" type="line"/>
      <point x="332" y="471"/>
      <point x="373" y="403"/>
      <point x="373" y="334" type="curve" smooth="yes"/>
      <point x="373" y="231"/>
      <point x="310" y="191"/>
      <point x="254" y="191" type="curve"/>
      <point x="203" y="191"/>
      <point x="136" y="233"/>
      <point x="136" y="330" type="curve" smooth="yes"/>
      <point x="136" y="408"/>
      <point x="181" y="471"/>
      <point x="254" y="471" type="curve"/>
    </contour>
  </outline>
</glyph>
<glyph name="d" format="1">
  <advance width="564"/>
  <outline>
    <contour>
      <point x="403" y="710" type="line"/>
      <point x="403" y="421" type="line"/>
      <point x="401" y="421" type="line"/>
      <point x="379" y="460"/>
      <point x="329" y="495"/>
      <point x="255" y="495" type="curve" smooth="yes"/>
      <point x="137" y="495"/>
      <point x="37" y="396"/>
      <point x="38" y="235" type="curve" smooth="yes"/>
      <point x="38" y="88"/>
      <point x="128" y="-11"/>
      <point x="245" y="-11" type="curve" smooth="yes"/>
      <point x="324" y="-11"/>
      <point x="383" y="30"/>
      <point x="410" y="84" type="curve"/>
      <point x="412" y="84" type="line"/>
      <point x="416" y="0" type="line"/>
      <point x="495" y="0" type="line"/>
      <point x="492" y="33"/>
      <point x="491" y="82"/>
      <point x="491" y="125" type="curve" smooth="yes"/>
      <point x="491" y="710" type="line"/>
    </contour>
    <contour>
      <point x="403" y="203" type="line"/>
      <point x="403" y="189"/>
      <point x="402" y="177"/>
      <point x="399" y="165" type="curve" smooth="yes"/>
      <point x="383" y="99"/>
      <point x="329" y="60"/>
      <point x="270" y="60" type="curve" smooth="yes"/>
      <point x="175" y="60"/>
      <point x="127" y="141"/>
      <point x="127" y="239" type="curve" smooth="yes"/>
      <point x="127" y="346"/>
      <point x="181" y="426"/>
      <point x="272" y="426" type="curve" smooth="yes"/>
      <point x="338" y="426"/>
      <point x="386" y="380"/>
      <point x="399" y="324" type="curve" smooth="yes"/>
      <point x="402" y="313"/>
      <point x="403" y="298"/>
      <point x="403" y="287" type="curve" smooth="yes"/>
    </contour>
  </outline>
</glyph>
<glyph name="dagger" format="1">
  <advance width="500"/>
  <outline>
    <contour>
      <point x="209" y="674" type="line"/>
      <point x="217" y="463" type="line"/>
      <point x="43" y="470" type="line"/>
      <point x="43" y="398" type="line"/>
      <point x="217" y="406" type="line"/>
      <point x="209" y="-50" type="line"/>
      <point x="291" y="-50" type="line"/>
      <point x="283" y="406" type="line"/>
      <point x="457" y="398" type="line"/>
      <point x="457" y="470" type="line"/>
      <point x="283" y="463" type="line"/>
      <point x="291" y="674" type="line"/>
    </contour>
  </outline>
</glyph>
<glyph name="daggerdbl" format="1">
  <advance width="500"/>
  <outline>
    <contour>
      <point x="210" y="674" type="line"/>
      <point x="216" y="473" type="line"/>
      <point x="43" y="481" type="line"/>
      <point x="43" y="409" type="line"/>
      <point x="216" y="416" type="line"/>
      <point x="216" y="212" type="line"/>
      <point x="43" y="220" type="line"/>
      <point x="43" y="148" type="line"/>
      <point x="215" y="155" type="line"/>
      <point x="210" y="-50" type="line"/>
      <point x="291" y="-50" type="line"/>
      <point x="284" y="155" type="line"/>
      <point x="457" y="148" type="line"/>
      <point x="457" y="220" type="line"/>
      <point x="284" y="212" type="line"/>
      <point x="284" y="416" type="line"/>
      <point x="457" y="409" type="line"/>
      <point x="457" y="481" type="line"/>
      <point x="284" y="473" type="line"/>
      <point x="291" y="674" type="line"/>
    </contour>
  </outline>
</glyph>
<glyph name="degree" format="1">
  <advance width="318"/>
  <outline>
    <contour>
      <point x="162" y="686" type="line"/>
      <point x="88" y="686"/>
      <point x="28" y="627"/>
      <point x="29" y="550" type="curve"/>
      <point x="29" y="481"/>
      <point x="82" y="422"/>
      <point x="160" y="422" type="curve" smooth="yes"/>
      <point x="229" y="422"/>
      <point x="294" y="475"/>
      <point x="294" y="556" type="curve" smooth="yes"/>
      <point x="294" y="624"/>
      <point x="244" y="686"/>
      <point x="163" y="686" type="curve"/>
    </contour>
    <contour>
      <point x="161" y="639" type="line"/>
      <point x="218" y="639"/>
      <point x="240" y="592"/>
      <point x="240" y="554" type="curve" smooth="yes"/>
      <point x="240" y="505"/>
      <point x="206" y="469"/>
      <point x="161" y="469" type="curve" smooth="yes"/>
      <point x="117" y="469"/>
      <point x="83" y="505"/>
      <point x="83" y="551" type="curve" smooth="yes"/>
      <point x="83" y="593"/>
      <point x="109" y="639"/>
      <point x="160" y="639" type="curve"/>
    </contour>
  </outline>
</glyph>
<glyph name="dieresis" format="1">
  <advance width="300"/>
  <outline>
    <contour>
      <point x="58" y="570" type="curve" smooth="yes"/>
      <point x="87" y="570"/>
      <point x="107" y="594"/>
      <point x="107" y="621" type="curve" smooth="yes"/>
      <point x="107" y="650"/>
      <point x="86" y="672"/>
      <point x="58" y="672" type="curve" smooth="yes"/>
      <point x="30" y="672"/>
      <point x="7" y="649"/>
      <point x="7" y="621" type="curve" smooth="yes"/>
      <point x="7" y="594"/>
      <point x="28" y="570"/>
    </contour>
    <contour>
      <point x="243" y="570" type="curve" smooth="yes"/>
      <point x="272" y="570"/>
      <point x="292" y="594"/>
      <point x="292" y="621" type="curve" smooth="yes"/>
      <point x="292" y="650"/>
      <point x="271" y="672"/>
      <point x="243" y="672" type="curve" smooth="yes"/>
      <point x="215" y="672"/>
      <point x="193" y="649"/>
      <point x="193" y="621" type="curve" smooth="yes"/>
      <point x="193" y="594"/>
      <point x="213" y="570"/>
    </contour>
  </outline>
</glyph>
<glyph name="divide" format="1">
  <advance width="596"/>
  <outline>
    <contour>
      <point x="298" y="387" type="line"/>
      <point x="331" y="387"/>
      <point x="351" y="411"/>
      <point x="351" y="442" type="curve" smooth="yes"/>
      <point x="351" y="475"/>
      <point x="330" y="498"/>
      <point x="299" y="498" type="curve" smooth="yes"/>
      <point x="267" y="498"/>
      <point x="245" y="475"/>
      <point x="245" y="442" type="curve" smooth="yes"/>
      <point x="245" y="411"/>
      <point x="266" y="387"/>
      <point x="297" y="387" type="curve"/>
    </contour>
    <contour>
      <point x="556" y="237" type="line"/>
      <point x="556" y="297" type="line"/>
      <point x="40" y="297" type="line"/>
      <point x="40" y="237" type="line"/>
    </contour>
    <contour>
      <point x="298" y="36" type="line"/>
      <point x="331" y="36"/>
      <point x="351" y="60"/>
      <point x="351" y="91" type="curve" smooth="yes"/>
      <point x="351" y="124"/>
      <point x="330" y="147"/>
      <point x="299" y="147" type="curve" smooth="yes"/>
      <point x="267" y="147"/>
      <point x="245" y="124"/>
      <point x="245" y="91" type="curve" smooth="yes"/>
      <point x="245" y="60"/>
      <point x="266" y="36"/>
      <point x="297" y="36" type="curve"/>
    </contour>
  </outline>
</glyph>
<glyph name="dollar" format="1">
  <advance width="513"/>
  <outline>
    <contour>
      <point x="281" y="-86" type="line"/>
      <point x="281" y="18" type="line"/>
      <point x="384" y="35"/>
      <point x="439" y="109"/>
      <point x="439" y="188" type="curve" smooth="yes"/>
      <point x="439" y="277"/>
      <point x="387" y="329"/>
      <point x="284" y="371" type="curve" smooth="yes"/>
      <point x="197" y="407"/>
      <point x="160" y="433"/>
      <point x="160" y="485" type="curve" smooth="yes"/>
      <point x="160" y="525"/>
      <point x="189" y="571"/>
      <point x="266" y="571" type="curve" smooth="yes"/>
      <point x="330" y="571"/>
      <point x="371" y="549"/>
      <point x="392" y="537" type="curve"/>
      <point x="417" y="603" type="line"/>
      <point x="388" y="620"/>
      <point x="347" y="636"/>
      <point x="287" y="638" type="curve"/>
      <point x="287" y="735" type="line"/>
      <point x="225" y="735" type="line"/>
      <point x="225" y="634" type="line"/>
      <point x="133" y="619"/>
      <point x="74" y="556"/>
      <point x="74" y="473" type="curve" smooth="yes"/>
      <point x="74" y="386"/>
      <point x="137" y="340"/>
      <point x="239" y="300" type="curve" smooth="yes"/>
      <point x="313" y="270"/>
      <point x="352" y="236"/>
      <point x="352" y="181" type="curve" smooth="yes"/>
      <point x="352" y="124"/>
      <point x="304" y="83"/>
      <point x="233" y="83" type="curve" smooth="yes"/>
      <point x="177" y="83"/>
      <point x="125" y="102"/>
      <point x="89" y="126" type="curve"/>
      <point x="65" y="59" type="line"/>
      <point x="100" y="34"/>
      <point x="160" y="16"/>
      <point x="218" y="15" type="curve"/>
      <point x="218" y="-86" type="line"/>
    </contour>
  </outline>
</glyph>
<glyph name="dotaccent" format="1">
  <advance width="300"/>
  <outline>
    <contour>
      <point x="140" y="570" type="curve" smooth="yes"/>
      <point x="169" y="570"/>
      <point x="189" y="594"/>
      <point x="189" y="621" type="curve" smooth="yes"/>
      <point x="189" y="650"/>
      <point x="168" y="673"/>
      <point x="140" y="673" type="curve" smooth="yes"/>
      <point x="111" y="673"/>
      <point x="89" y="650"/>
      <point x="89" y="621" type="curve" smooth="yes"/>
      <point x="89" y="594"/>
      <point x="110" y="570"/>
    </contour>
  </outline>
</glyph>
<glyph name="dotlessi" format="1">
  <advance width="234"/>
  <outline>
    <contour>
      <point x="161" y="0" type="line"/>
      <point x="161" y="484" type="line"/>
      <point x="73" y="484" type="line"/>
      <point x="73" y="0" type="line"/>
    </contour>
  </outline>
</glyph>
<glyph name="e" format="1">
  <advance width="501"/>
  <outline>
    <contour>
      <point x="462" y="226" type="line"/>
      <point x="463" y="235"/>
      <point x="465" y="249"/>
      <point x="465" y="267" type="curve" smooth="yes"/>
      <point x="465" y="356"/>
      <point x="423" y="495"/>
      <point x="265" y="495" type="curve" smooth="yes"/>
      <point x="124" y="495"/>
      <point x="38" y="380"/>
      <point x="38" y="234" type="curve" smooth="yes"/>
      <point x="38" y="88"/>
      <point x="127" y="-11"/>
      <point x="276" y="-11" type="curve" smooth="yes"/>
      <point x="353" y="-11"/>
      <point x="406" y="6"/>
      <point x="437" y="20" type="curve"/>
      <point x="422" y="83" type="line"/>
      <point x="389" y="69"/>
      <point x="351" y="58"/>
      <point x="288" y="58" type="curve" smooth="yes"/>
      <point x="200" y="58"/>
      <point x="124" y="107"/>
      <point x="122" y="226" type="curve"/>
    </contour>
    <contour>
      <point x="123" y="289" type="line"/>
      <point x="130" y="350"/>
      <point x="169" y="432"/>
      <point x="258" y="432" type="curve" smooth="yes"/>
      <point x="357" y="432"/>
      <point x="381" y="345"/>
      <point x="380" y="289" type="curve"/>
    </contour>
  </outline>
</glyph>
<glyph name="ellipsis" format="1">
  <advance width="1000"/>
  <outline>
    <contour>
      <point x="167" y="-11" type="line"/>
      <point x="203" y="-11"/>
      <point x="226" y="16"/>
      <point x="226" y="52" type="curve" smooth="yes"/>
      <point x="226" y="89"/>
      <point x="203" y="115"/>
      <point x="167" y="115" type="curve" smooth="yes"/>
      <point x="132" y="115"/>
      <point x="108" y="89"/>
      <point x="108" y="52" type="curve" smooth="yes"/>
      <point x="107" y="16"/>
      <point x="132" y="-11"/>
      <point x="166" y="-11" type="curve"/>
    </contour>
    <contour>
      <point x="500" y="-11" type="line"/>
      <point x="536" y="-11"/>
      <point x="560" y="16"/>
      <point x="560" y="52" type="curve" smooth="yes"/>
      <point x="559" y="89"/>
      <point x="536" y="115"/>
      <point x="501" y="115" type="curve" smooth="yes"/>
      <point x="466" y="115"/>
      <point x="441" y="89"/>
      <point x="441" y="52" type="curve" smooth="yes"/>
      <point x="440" y="16"/>
      <point x="465" y="-11"/>
      <point x="499" y="-11" type="curve"/>
    </contour>
    <contour>
      <point x="833" y="-11" type="line"/>
      <point x="870" y="-11"/>
      <point x="893" y="16"/>
      <point x="893" y="52" type="curve" smooth="yes"/>
      <point x="893" y="89"/>
      <point x="869" y="115"/>
      <point x="834" y="115" type="curve" smooth="yes"/>
      <point x="799" y="115"/>
      <point x="774" y="89"/>
      <point x="774" y="52" type="curve" smooth="yes"/>
      <point x="774" y="16"/>
      <point x="798" y="-11"/>
      <point x="832" y="-11" type="curve"/>
    </contour>
  </outline>
</glyph>
<glyph name="emdash" format="1">
  <advance width="1000"/>
  <outline>
    <contour>
      <point x="30" y="284" type="line"/>
      <point x="30" y="224" type="line"/>
      <point x="970" y="224" type="line"/>
      <point x="970" y="284" type="line"/>
    </contour>
  </outline>
</glyph>
<glyph name="endash" format="1">
  <advance width="500"/>
  <outline>
    <contour>
      <point x="30" y="284" type="line"/>
      <point x="30" y="224" type="line"/>
      <point x="470" y="224" type="line"/>
      <point x="470" y="284" type="line"/>
    </contour>
  </outline>
</glyph>
<glyph name="equal" format="1">
  <advance width="596"/>
  <outline>
    <contour>
      <point x="556" y="337" type="line"/>
      <point x="556" y="397" type="line"/>
      <point x="40" y="397" type="line"/>
      <point x="40" y="337" type="line"/>
    </contour>
    <contour>
      <point x="556" y="141" type="line"/>
      <point x="556" y="201" type="line"/>
      <point x="40" y="201" type="line"/>
      <point x="40" y="141" type="line"/>
    </contour>
  </outline>
</glyph>
<glyph name="eth" format="1">
  <advance width="541"/>
  <outline>
    <contour>
      <point x="267" y="55" type="line"/>
      <point x="186" y="55"/>
      <point x="127" y="135"/>
      <point x="127" y="237" type="curve" smooth="yes"/>
      <point x="127" y="317"/>
      <point x="167" y="424"/>
      <point x="271" y="424" type="curve" smooth="yes"/>
      <point x="322" y="424"/>
      <point x="355" y="402"/>
      <point x="377" y="377" type="curve" smooth="yes"/>
      <point x="402" y="346"/>
      <point x="411" y="306"/>
      <point x="411" y="243" type="curve" smooth="yes"/>
      <point x="411" y="133"/>
      <point x="355" y="55"/>
      <point x="268" y="55" type="curve"/>
    </contour>
    <contour>
      <point x="116" y="507" type="line"/>
      <point x="258" y="573" type="line"/>
      <point x="309" y="535"/>
      <point x="347" y="492"/>
      <point x="376" y="444" type="curve"/>
      <point x="374" y="441" type="line"/>
      <point x="336" y="477"/>
      <point x="299" y="484"/>
      <point x="261" y="484" type="curve" smooth="yes"/>
      <point x="146" y="483"/>
      <point x="38" y="392"/>
      <point x="38" y="236" type="curve" smooth="yes"/>
      <point x="38" y="85"/>
      <point x="136" y="-11"/>
      <point x="267" y="-11" type="curve" smooth="yes"/>
      <point x="383" y="-11"/>
      <point x="502" y="67"/>
      <point x="501" y="253" type="curve" smooth="yes"/>
      <point x="501" y="327"/>
      <point x="486" y="391"/>
      <point x="459" y="447" type="curve" smooth="yes"/>
      <point x="430" y="507"/>
      <point x="386" y="561"/>
      <point x="331" y="606" type="curve"/>
      <point x="437" y="656" type="line"/>
      <point x="416" y="700" type="line"/>
      <point x="288" y="639" type="line"/>
      <point x="245" y="670"/>
      <point x="195" y="698"/>
      <point x="147" y="720" type="curve"/>
      <point x="109" y="665" type="line"/>
      <point x="146" y="647"/>
      <point x="183" y="627"/>
      <point x="213" y="605" type="curve"/>
      <point x="97" y="550" type="line"/>
    </contour>
  </outline>
</glyph>
<glyph name="exclam" format="1">
  <advance width="230"/>
  <outline>
    <contour>
      <point x="149" y="194" type="line"/>
      <point x="163" y="674" type="line"/>
      <point x="67" y="674" type="line"/>
      <point x="81" y="194" type="line"/>
    </contour>
    <contour>
      <point x="115" y="-11" type="line"/>
      <point x="151" y="-11"/>
      <point x="174" y="16"/>
      <point x="174" y="51" type="curve" smooth="yes"/>
      <point x="174" y="87"/>
      <point x="151" y="113"/>
      <point x="115" y="113" type="curve" smooth="yes"/>
      <point x="81" y="113"/>
      <point x="56" y="87"/>
      <point x="56" y="51" type="curve" smooth="yes"/>
      <point x="56" y="16"/>
      <point x="80" y="-11"/>
      <point x="114" y="-11" type="curve"/>
    </contour>
  </outline>
</glyph>
<glyph name="exclamdown" format="1">
  <advance width="230"/>
  <outline>
    <contour>
      <point x="164" y="-195" type="line"/>
      <point x="149" y="282" type="line"/>
      <point x="81" y="282" type="line"/>
      <point x="67" y="-195" type="line"/>
    </contour>
    <contour>
      <point x="116" y="488" type="line"/>
      <point x="81" y="488"/>
      <point x="56" y="462"/>
      <point x="56" y="426" type="curve" smooth="yes"/>
      <point x="56" y="391"/>
      <point x="80" y="364"/>
      <point x="115" y="364" type="curve" smooth="yes"/>
      <point x="151" y="364"/>
      <point x="174" y="391"/>
      <point x="174" y="426" type="curve" smooth="yes"/>
      <point x="174" y="462"/>
      <point x="151" y="488"/>
      <point x="117" y="488" type="curve"/>
    </contour>
  </outline>
</glyph>
<glyph name="f" format="1">
  <advance width="292"/>
  <outline>
    <contour>
      <point x="169" y="0" type="line"/>
      <point x="169" y="417" type="line"/>
      <point x="286" y="417" type="line"/>
      <point x="286" y="484" type="line"/>
      <point x="169" y="484" type="line"/>
      <point x="169" y="510" type="line" smooth="yes"/>
      <point x="169" y="584"/>
      <point x="188" y="650"/>
      <point x="263" y="650" type="curve" smooth="yes"/>
      <point x="288" y="650"/>
      <point x="306" y="645"/>
      <point x="319" y="639" type="curve"/>
      <point x="331" y="707" type="line"/>
      <point x="314" y="714"/>
      <point x="287" y="721"/>
      <point x="256" y="721" type="curve" smooth="yes"/>
      <point x="215" y="721"/>
      <point x="171" y="708"/>
      <point x="138" y="676" type="curve" smooth="yes"/>
      <point x="97" y="637"/>
      <point x="82" y="575"/>
      <point x="82" y="507" type="curve" smooth="yes"/>
      <point x="82" y="484" type="line"/>
      <point x="14" y="484" type="line"/>
      <point x="14" y="417" type="line"/>
      <point x="82" y="417" type="line"/>
      <point x="82" y="0" type="line"/>
    </contour>
  </outline>
</glyph>
<glyph name="florin" format="1">
  <advance width="513"/>
  <outline>
    <contour>
      <point x="111" y="338" type="line"/>
      <point x="203" y="338" type="line"/>
      <point x="180" y="141" type="line" smooth="yes"/>
      <point x="168" y="39"/>
      <point x="145" y="-16"/>
      <point x="83" y="-16" type="curve" smooth="yes"/>
      <point x="62" y="-16"/>
      <point x="44" y="-13"/>
      <point x="27" y="-5" type="curve"/>
      <point x="11" y="-68" type="line"/>
      <point x="28" y="-77"/>
      <point x="56" y="-84"/>
      <point x="89" y="-84" type="curve"/>
      <point x="206" y="-84"/>
      <point x="247" y="4"/>
      <point x="263" y="133" type="curve" smooth="yes"/>
      <point x="287" y="338" type="line"/>
      <point x="415" y="338" type="line"/>
      <point x="415" y="401" type="line"/>
      <point x="295" y="401" type="line"/>
      <point x="301" y="453" type="line" smooth="yes"/>
      <point x="309" y="527"/>
      <point x="339" y="592"/>
      <point x="407" y="592" type="curve" smooth="yes"/>
      <point x="427" y="592"/>
      <point x="444" y="588"/>
      <point x="459" y="582" type="curve"/>
      <point x="475" y="646" type="line"/>
      <point x="461" y="654"/>
      <point x="437" y="660"/>
      <point x="407" y="661" type="curve" smooth="yes"/>
      <point x="272" y="661"/>
      <point x="228" y="546"/>
      <point x="216" y="447" type="curve"/>
      <point x="210" y="401" type="line"/>
      <point x="111" y="401" type="line"/>
    </contour>
  </outline>
</glyph>
<glyph name="fraction" format="1">
  <advance width="121"/>
  <outline>
    <contour>
      <point x="-101" y="-11" type="line"/>
      <point x="279" y="661" type="line"/>
      <point x="222" y="661" type="line"/>
      <point x="-157" y="-11" type="line"/>
    </contour>
  </outline>
</glyph>
<glyph name="g" format="1">
  <advance width="559"/>
  <outline>
    <contour>
      <point x="486" y="351" type="line"/>
      <point x="486" y="410"/>
      <point x="488" y="449"/>
      <point x="490" y="484" type="curve"/>
      <point x="413" y="484" type="line"/>
      <point x="409" y="411" type="line"/>
      <point x="407" y="411" type="line"/>
      <point x="386" y="451"/>
      <point x="340" y="495"/>
      <point x="256" y="495" type="curve" smooth="yes"/>
      <point x="145" y="495"/>
      <point x="38" y="402"/>
      <point x="38" y="238" type="curve" smooth="yes"/>
      <point x="38" y="104"/>
      <point x="124" y="2"/>
      <point x="244" y="2" type="curve" smooth="yes"/>
      <point x="319" y="2"/>
      <point x="371" y="38"/>
      <point x="398" y="83" type="curve"/>
      <point x="400" y="83" type="line"/>
      <point x="400" y="29" type="line" smooth="yes"/>
      <point x="400" y="-93"/>
      <point x="334" y="-140"/>
      <point x="244" y="-140" type="curve" smooth="yes"/>
      <point x="184" y="-140"/>
      <point x="134" y="-122"/>
      <point x="102" y="-102" type="curve"/>
      <point x="80" y="-169" type="line"/>
      <point x="119" y="-195"/>
      <point x="183" y="-209"/>
      <point x="241" y="-209" type="curve" smooth="yes"/>
      <point x="302" y="-209"/>
      <point x="370" y="-195"/>
      <point x="417" y="-151" type="curve" smooth="yes"/>
      <point x="464" y="-109"/>
      <point x="486" y="-41"/>
      <point x="486" y="70" type="curve" smooth="yes"/>
    </contour>
    <contour>
      <point x="399" y="206" type="line"/>
      <point x="399" y="191"/>
      <point x="397" y="174"/>
      <point x="392" y="159" type="curve" smooth="yes"/>
      <point x="373" y="103"/>
      <point x="324" y="69"/>
      <point x="270" y="69" type="curve" smooth="yes"/>
      <point x="175" y="69"/>
      <point x="127" y="148"/>
      <point x="127" y="243" type="curve" smooth="yes"/>
      <point x="127" y="355"/>
      <point x="187" y="426"/>
      <point x="271" y="426" type="curve" smooth="yes"/>
      <point x="335" y="426"/>
      <point x="378" y="384"/>
      <point x="394" y="333" type="curve" smooth="yes"/>
      <point x="398" y="321"/>
      <point x="399" y="308"/>
      <point x="399" y="293" type="curve" smooth="yes"/>
    </contour>
  </outline>
</glyph>
<glyph name="germandbls" format="1">
  <advance width="548"/>
  <outline>
    <contour>
      <point x="161" y="0" type="line"/>
      <point x="161" y="456" type="line" smooth="yes"/>
      <point x="161" y="598"/>
      <point x="204" y="652"/>
      <point x="281" y="652" type="curve" smooth="yes"/>
      <point x="343" y="652"/>
      <point x="385" y="612"/>
      <point x="385" y="543" type="curve" smooth="yes"/>
      <point x="385" y="526"/>
      <point x="381" y="512"/>
      <point x="376" y="500" type="curve"/>
      <point x="319" y="472"/>
      <point x="287" y="428"/>
      <point x="287" y="377" type="curve" smooth="yes"/>
      <point x="287" y="321"/>
      <point x="323" y="284"/>
      <point x="365" y="244" type="curve" smooth="yes"/>
      <point x="401" y="211"/>
      <point x="419" y="183"/>
      <point x="419" y="141" type="curve" smooth="yes"/>
      <point x="419" y="95"/>
      <point x="385" y="57"/>
      <point x="321" y="57" type="curve" smooth="yes"/>
      <point x="291" y="57"/>
      <point x="263" y="64"/>
      <point x="237" y="77" type="curve"/>
      <point x="221" y="10" type="line"/>
      <point x="250" y="-5"/>
      <point x="290" y="-11"/>
      <point x="327" y="-11" type="curve" smooth="yes"/>
      <point x="438" y="-11"/>
      <point x="506" y="54"/>
      <point x="506" y="148" type="curve" smooth="yes"/>
      <point x="506" y="220"/>
      <point x="465" y="262"/>
      <point x="425" y="302" type="curve" smooth="yes"/>
      <point x="394" y="334"/>
      <point x="374" y="355"/>
      <point x="374" y="389" type="curve" smooth="yes"/>
      <point x="374" y="423"/>
      <point x="401" y="451"/>
      <point x="446" y="470" type="curve"/>
      <point x="457" y="486"/>
      <point x="469" y="517"/>
      <point x="469" y="552" type="curve" smooth="yes"/>
      <point x="469" y="661"/>
      <point x="386" y="721"/>
      <point x="291" y="721" type="curve" smooth="yes"/>
      <point x="230" y="721"/>
      <point x="182" y="704"/>
      <point x="144" y="670" type="curve" smooth="yes"/>
      <point x="100" y="630"/>
      <point x="73" y="566"/>
      <point x="73" y="452" type="curve" smooth="yes"/>
      <point x="73" y="0" type="line"/>
    </contour>
  </outline>
</glyph>
<glyph name="grave" format="1">
  <advance width="300"/>
  <outline>
    <contour>
      <point x="22" y="693" type="line"/>
      <point x="144" y="550" type="line"/>
      <point x="206" y="550" type="line"/>
      <point x="119" y="693" type="line"/>
    </contour>
  </outline>
</glyph>
<glyph name="greater" format="1">
  <advance width="596"/>
  <outline>
    <contour>
      <point x="530" y="294" type="line"/>
      <point x="66" y="532" type="line"/>
      <point x="66" y="463" type="line"/>
      <point x="460" y="267" type="line"/>
      <point x="460" y="265" type="line"/>
      <point x="66" y="69" type="line"/>
      <point x="66" y="0" type="line"/>
      <point x="530" y="238" type="line"/>
    </contour>
  </outline>
</glyph>
<glyph name="guillemotleft" format="1">
  <advance width="419"/>
  <outline>
    <contour>
      <point x="232" y="436" type="line"/>
      <point x="161" y="436" type="line"/>
      <point x="29" y="252" type="line"/>
      <point x="161" y="68" type="line"/>
      <point x="232" y="68" type="line"/>
      <point x="98" y="252" type="line"/>
    </contour>
    <contour>
      <point x="396" y="436" type="line"/>
      <point x="325" y="436" type="line"/>
      <point x="193" y="252" type="line"/>
      <point x="325" y="68" type="line"/>
      <point x="396" y="68" type="line"/>
      <point x="262" y="252" type="line"/>
    </contour>
  </outline>
</glyph>
<glyph name="guillemotright" format="1">
  <advance width="419"/>
  <outline>
    <contour>
      <point x="157" y="252" type="line"/>
      <point x="24" y="68" type="line"/>
      <point x="94" y="68" type="line"/>
      <point x="227" y="252" type="line"/>
      <point x="94" y="436" type="line"/>
      <point x="23" y="436" type="line"/>
    </contour>
    <contour>
      <point x="320" y="252" type="line"/>
      <point x="187" y="68" type="line"/>
      <point x="257" y="68" type="line"/>
      <point x="390" y="252" type="line"/>
      <point x="257" y="436" type="line"/>
      <point x="186" y="436" type="line"/>
    </contour>
  </outline>
</glyph>
<glyph name="guilsinglleft" format="1">
  <advance width="255"/>
  <outline>
    <contour>
      <point x="232" y="436" type="line"/>
      <point x="161" y="436" type="line"/>
      <point x="29" y="252" type="line"/>
      <point x="161" y="68" type="line"/>
      <point x="232" y="68" type="line"/>
      <point x="98" y="252" type="line"/>
    </contour>
  </outline>
</glyph>
<glyph name="guilsinglright" format="1">
  <advance width="255"/>
  <outline>
    <contour>
      <point x="157" y="252" type="line"/>
      <point x="23" y="68" type="line"/>
      <point x="94" y="68" type="line"/>
      <point x="227" y="252" type="line"/>
      <point x="93" y="436" type="line"/>
      <point x="23" y="436" type="line"/>
    </contour>
  </outline>
</glyph>
<glyph name="h" format="1">
  <advance width="555"/>
  <outline>
    <contour>
      <point x="73" y="0" type="line"/>
      <point x="161" y="0" type="line"/>
      <point x="161" y="292" type="line" smooth="yes"/>
      <point x="161" y="309"/>
      <point x="162" y="322"/>
      <point x="167" y="334" type="curve" smooth="yes"/>
      <point x="183" y="382"/>
      <point x="228" y="422"/>
      <point x="285" y="422" type="curve" smooth="yes"/>
      <point x="368" y="422"/>
      <point x="397" y="356"/>
      <point x="397" y="278" type="curve" smooth="yes"/>
      <point x="397" y="0" type="line"/>
      <point x="485" y="0" type="line"/>
      <point x="485" y="288" type="line" smooth="yes"/>
      <point x="485" y="455"/>
      <point x="381" y="495"/>
      <point x="316" y="495" type="curve" smooth="yes"/>
      <point x="283" y="495"/>
      <point x="252" y="485"/>
      <point x="226" y="470" type="curve" smooth="yes"/>
      <point x="199" y="455"/>
      <point x="177" y="433"/>
      <point x="163" y="408" type="curve"/>
      <point x="161" y="408" type="line"/>
      <point x="161" y="710" type="line"/>
      <point x="73" y="710" type="line"/>
    </contour>
  </outline>
</glyph>
<glyph name="hungarumlaut" format="1">
  <advance width="300"/>
  <outline>
    <contour>
      <point x="123" y="693" type="line"/>
      <point x="44" y="556" type="line"/>
      <point x="99" y="556" type="line"/>
      <point x="209" y="693" type="line"/>
    </contour>
    <contour>
      <point x="267" y="693" type="line"/>
      <point x="188" y="556" type="line"/>
      <point x="243" y="556" type="line"/>
      <point x="353" y="693" type="line"/>
    </contour>
  </outline>
</glyph>
<glyph name="hyphen" format="1">
  <advance width="307"/>
  <outline>
    <contour>
      <point x="30" y="303" type="line"/>
      <point x="30" y="238" type="line"/>
      <point x="277" y="238" type="line"/>
      <point x="277" y="303" type="line"/>
    </contour>
  </outline>
</glyph>
<glyph name="i" format="1">
  <advance width="234"/>
  <outline>
    <contour>
      <point x="161" y="0" type="line"/>
      <point x="161" y="484" type="line"/>
      <point x="73" y="484" type="line"/>
      <point x="73" y="0" type="line"/>
    </contour>
    <contour>
      <point x="117" y="675" type="curve" smooth="yes"/>
      <point x="85" y="675"/>
      <point x="62" y="651"/>
      <point x="62" y="620" type="curve" smooth="yes"/>
      <point x="62" y="590"/>
      <point x="84" y="566"/>
      <point x="115" y="566" type="curve"/>
      <point x="150" y="566"/>
      <point x="172" y="590"/>
      <point x="171" y="620" type="curve" smooth="yes"/>
      <point x="171" y="651"/>
      <point x="150" y="675"/>
    </contour>
  </outline>
</glyph>
<glyph name="j" format="1">
  <advance width="243"/>
  <outline>
    <contour>
      <point x="-36" y="-211" type="line"/>
      <point x="11" y="-211"/>
      <point x="75" y="-195"/>
      <point x="114" y="-156" type="curve" smooth="yes"/>
      <point x="157" y="-112"/>
      <point x="172" y="-51"/>
      <point x="172" y="43" type="curve" smooth="yes"/>
      <point x="172" y="484" type="line"/>
      <point x="84" y="484" type="line"/>
      <point x="84" y="77" type="line" smooth="yes"/>
      <point x="84" y="-39"/>
      <point x="75" y="-78"/>
      <point x="51" y="-105" type="curve" smooth="yes"/>
      <point x="30" y="-128"/>
      <point x="-5" y="-139"/>
      <point x="-45" y="-142" type="curve"/>
    </contour>
    <contour>
      <point x="129" y="675" type="curve" smooth="yes"/>
      <point x="96" y="675"/>
      <point x="73" y="651"/>
      <point x="73" y="620" type="curve" smooth="yes"/>
      <point x="73" y="591"/>
      <point x="94" y="566"/>
      <point x="127" y="566" type="curve"/>
      <point x="162" y="566"/>
      <point x="183" y="591"/>
      <point x="182" y="620" type="curve" smooth="yes"/>
      <point x="182" y="651"/>
      <point x="161" y="675"/>
    </contour>
  </outline>
</glyph>
<glyph name="k" format="1">
  <advance width="469"/>
  <outline>
    <contour>
      <point x="160" y="710" type="line"/>
      <point x="73" y="710" type="line"/>
      <point x="73" y="0" type="line"/>
      <point x="160" y="0" type="line"/>
      <point x="160" y="182" type="line"/>
      <point x="205" y="232" type="line"/>
      <point x="372" y="0" type="line"/>
      <point x="479" y="0" type="line"/>
      <point x="266" y="285" type="line"/>
      <point x="453" y="484" type="line"/>
      <point x="347" y="484" type="line"/>
      <point x="205" y="317" type="line" smooth="yes"/>
      <point x="191" y="300"/>
      <point x="174" y="279"/>
      <point x="162" y="262" type="curve"/>
      <point x="160" y="262" type="line"/>
    </contour>
  </outline>
</glyph>
<glyph name="l" format="1">
  <advance width="236"/>
  <outline>
    <contour>
      <point x="73" y="0" type="line"/>
      <point x="161" y="0" type="line"/>
      <point x="161" y="710" type="line"/>
      <point x="73" y="710" type="line"/>
    </contour>
  </outline>
</glyph>
<glyph name="less" format="1">
  <advance width="596"/>
  <outline>
    <contour>
      <point x="66" y="239" type="line"/>
      <point x="530" y="0" type="line"/>
      <point x="530" y="69" type="line"/>
      <point x="139" y="265" type="line"/>
      <point x="139" y="267" type="line"/>
      <point x="530" y="463" type="line"/>
      <point x="530" y="532" type="line"/>
      <point x="66" y="293" type="line"/>
    </contour>
  </outline>
</glyph>
<glyph name="logicalnot" format="1">
  <advance width="596"/>
  <outline>
    <contour>
      <point x="40" y="399" type="line"/>
      <point x="40" y="339" type="line"/>
      <point x="492" y="339" type="line"/>
      <point x="492" y="121" type="line"/>
      <point x="556" y="121" type="line"/>
      <point x="556" y="399" type="line"/>
    </contour>
  </outline>
</glyph>
<glyph name="lslash" format="1">
  <advance width="242"/>
  <outline>
    <contour>
      <point x="165" y="0" type="line"/>
      <point x="165" y="355" type="line"/>
      <point x="236" y="416" type="line"/>
      <point x="236" y="486" type="line"/>
      <point x="165" y="425" type="line"/>
      <point x="165" y="710" type="line"/>
      <point x="77" y="710" type="line"/>
      <point x="77" y="358" type="line"/>
      <point x="9" y="299" type="line"/>
      <point x="9" y="230" type="line"/>
      <point x="77" y="288" type="line"/>
      <point x="77" y="0" type="line"/>
    </contour>
  </outline>
</glyph>
<glyph name="m" format="1">
  <advance width="834"/>
  <outline>
    <contour>
      <point x="73" y="0" type="line"/>
      <point x="159" y="0" type="line"/>
      <point x="159" y="292" type="line" smooth="yes"/>
      <point x="159" y="307"/>
      <point x="161" y="322"/>
      <point x="166" y="335" type="curve" smooth="yes"/>
      <point x="180" y="379"/>
      <point x="220" y="423"/>
      <point x="275" y="423" type="curve" smooth="yes"/>
      <point x="342" y="423"/>
      <point x="376" y="367"/>
      <point x="376" y="290" type="curve" smooth="yes"/>
      <point x="376" y="0" type="line"/>
      <point x="462" y="0" type="line"/>
      <point x="462" y="299" type="line" smooth="yes"/>
      <point x="462" y="315"/>
      <point x="465" y="331"/>
      <point x="469" y="343" type="curve" smooth="yes"/>
      <point x="484" y="386"/>
      <point x="523" y="423"/>
      <point x="573" y="423" type="curve" smooth="yes"/>
      <point x="644" y="423"/>
      <point x="678" y="367"/>
      <point x="678" y="274" type="curve" smooth="yes"/>
      <point x="678" y="0" type="line"/>
      <point x="764" y="0" type="line"/>
      <point x="764" y="285" type="line" smooth="yes"/>
      <point x="764" y="453"/>
      <point x="669" y="495"/>
      <point x="605" y="495" type="curve" smooth="yes"/>
      <point x="559" y="495"/>
      <point x="527" y="483"/>
      <point x="498" y="461" type="curve" smooth="yes"/>
      <point x="478" y="446"/>
      <point x="459" y="425"/>
      <point x="444" y="398" type="curve"/>
      <point x="442" y="398" type="line"/>
      <point x="421" y="455"/>
      <point x="371" y="495"/>
      <point x="305" y="495" type="curve" smooth="yes"/>
      <point x="225" y="495"/>
      <point x="180" y="452"/>
      <point x="153" y="406" type="curve"/>
      <point x="150" y="406" type="line"/>
      <point x="146" y="484" type="line"/>
      <point x="69" y="484" type="line"/>
      <point x="72" y="444"/>
      <point x="73" y="403"/>
      <point x="73" y="353" type="curve" smooth="yes"/>
    </contour>
  </outline>
</glyph>
<glyph name="macron" format="1">
  <advance width="300"/>
  <outline>
    <contour>
      <point x="33" y="646" type="line"/>
      <point x="33" y="586" type="line"/>
      <point x="268" y="586" type="line"/>
      <point x="268" y="646" type="line"/>
    </contour>
  </outline>
</glyph>
<glyph name="minus" format="1">
  <advance width="596"/>
  <outline>
    <contour>
      <point x="40" y="297" type="line"/>
      <point x="40" y="237" type="line"/>
      <point x="556" y="237" type="line"/>
      <point x="556" y="297" type="line"/>
    </contour>
  </outline>
</glyph>
<glyph name="multiply" format="1">
  <advance width="596"/>
  <outline>
    <contour>
      <point x="40" y="482" type="line"/>
      <point x="254" y="263" type="line"/>
      <point x="40" y="44" type="line"/>
      <point x="84" y="0" type="line"/>
      <point x="298" y="219" type="line"/>
      <point x="512" y="0" type="line"/>
      <point x="556" y="44" type="line"/>
      <point x="341" y="263" type="line"/>
      <point x="556" y="482" type="line"/>
      <point x="512" y="526" type="line"/>
      <point x="298" y="307" type="line"/>
      <point x="84" y="526" type="line"/>
    </contour>
  </outline>
</glyph>
<glyph name="n" format="1">
  <advance width="555"/>
  <outline>
    <contour>
      <point x="73" y="0" type="line"/>
      <point x="161" y="0" type="line"/>
      <point x="161" y="291" type="line" smooth="yes"/>
      <point x="161" y="306"/>
      <point x="163" y="321"/>
      <point x="167" y="332" type="curve" smooth="yes"/>
      <point x="182" y="381"/>
      <point x="227" y="422"/>
      <point x="285" y="422" type="curve" smooth="yes"/>
      <point x="368" y="422"/>
      <point x="397" y="357"/>
      <point x="397" y="279" type="curve" smooth="yes"/>
      <point x="397" y="0" type="line"/>
      <point x="485" y="0" type="line"/>
      <point x="485" y="289" type="line" smooth="yes"/>
      <point x="485" y="455"/>
      <point x="381" y="495"/>
      <point x="314" y="495" type="curve" smooth="yes"/>
      <point x="234" y="495"/>
      <point x="178" y="450"/>
      <point x="154" y="404" type="curve"/>
      <point x="152" y="404" type="line"/>
      <point x="147" y="484" type="line"/>
      <point x="69" y="484" type="line"/>
      <point x="72" y="444"/>
      <point x="73" y="403"/>
      <point x="73" y="353" type="curve" smooth="yes"/>
    </contour>
  </outline>
</glyph>
<glyph name="numbersign" format="1">
  <advance width="497"/>
  <outline>
    <contour>
      <point x="188" y="255" type="line"/>
      <point x="207" y="400" type="line"/>
      <point x="311" y="400" type="line"/>
      <point x="292" y="255" type="line"/>
    </contour>
    <contour>
      <point x="153" y="0" type="line"/>
      <point x="179" y="196" type="line"/>
      <point x="283" y="196" type="line"/>
      <point x="257" y="0" type="line"/>
      <point x="317" y="0" type="line"/>
      <point x="343" y="196" type="line"/>
      <point x="438" y="196" type="line"/>
      <point x="438" y="255" type="line"/>
      <point x="352" y="255" type="line"/>
      <point x="370" y="400" type="line"/>
      <point x="461" y="400" type="line"/>
      <point x="461" y="459" type="line"/>
      <point x="379" y="459" type="line"/>
      <point x="404" y="650" type="line"/>
      <point x="345" y="650" type="line"/>
      <point x="319" y="459" type="line"/>
      <point x="215" y="459" type="line"/>
      <point x="240" y="650" type="line"/>
      <point x="182" y="650" type="line"/>
      <point x="156" y="459" type="line"/>
      <point x="61" y="459" type="line"/>
      <point x="61" y="400" type="line"/>
      <point x="147" y="400" type="line"/>
      <point x="128" y="255" type="line"/>
      <point x="37" y="255" type="line"/>
      <point x="37" y="196" type="line"/>
      <point x="119" y="196" type="line"/>
      <point x="93" y="0" type="line"/>
    </contour>
  </outline>
</glyph>
<glyph name="o" format="1">
  <advance width="549"/>
  <outline>
    <contour>
      <point x="278" y="495" type="curve" smooth="yes"/>
      <point x="144" y="495"/>
      <point x="38" y="400"/>
      <point x="38" y="238" type="curve" smooth="yes"/>
      <point x="38" y="85"/>
      <point x="139" y="-11"/>
      <point x="270" y="-11" type="curve" smooth="yes"/>
      <point x="387" y="-11"/>
      <point x="511" y="67"/>
      <point x="511" y="246" type="curve" smooth="yes"/>
      <point x="511" y="394"/>
      <point x="417" y="495"/>
    </contour>
    <contour>
      <point x="276" y="429" type="curve" smooth="yes"/>
      <point x="380" y="429"/>
      <point x="421" y="325"/>
      <point x="421" y="243" type="curve" smooth="yes"/>
      <point x="421" y="134"/>
      <point x="358" y="55"/>
      <point x="274" y="55" type="curve" smooth="yes"/>
      <point x="188" y="55"/>
      <point x="127" y="135"/>
      <point x="127" y="241" type="curve" smooth="yes"/>
      <point x="127" y="333"/>
      <point x="172" y="429"/>
    </contour>
  </outline>
</glyph>
<glyph name="oe" format="1">
  <advance width="863"/>
  <outline>
    <contour>
      <point x="824" y="227" type="line"/>
      <point x="826" y="236"/>
      <point x="827" y="251"/>
      <point x="827" y="268" type="curve" smooth="yes"/>
      <point x="827" y="354"/>
      <point x="786" y="495"/>
      <point x="631" y="495" type="curve" smooth="yes"/>
      <point x="556" y="495"/>
      <point x="491" y="456"/>
      <point x="455" y="379" type="curve"/>
      <point x="453" y="379" type="line"/>
      <point x="423" y="453"/>
      <point x="352" y="495"/>
      <point x="270" y="495" type="curve" smooth="yes"/>
      <point x="140" y="495"/>
      <point x="38" y="396"/>
      <point x="38" y="239" type="curve" smooth="yes"/>
      <point x="38" y="86"/>
      <point x="136" y="-11"/>
      <point x="264" y="-11" type="curve" smooth="yes"/>
      <point x="339" y="-11"/>
      <point x="415" y="25"/>
      <point x="451" y="103" type="curve"/>
      <point x="454" y="103" type="line"/>
      <point x="492" y="24"/>
      <point x="561" y="-11"/>
      <point x="645" y="-11" type="curve" smooth="yes"/>
      <point x="698" y="-11"/>
      <point x="763" y="0"/>
      <point x="802" y="22" type="curve"/>
      <point x="786" y="85" type="line"/>
      <point x="753" y="71"/>
      <point x="716" y="58"/>
      <point x="656" y="58" type="curve" smooth="yes"/>
      <point x="564" y="58"/>
      <point x="496" y="117"/>
      <point x="495" y="227" type="curve"/>
    </contour>
    <contour>
      <point x="271" y="429" type="line"/>
      <point x="371" y="429"/>
      <point x="413" y="334"/>
      <point x="413" y="242" type="curve" smooth="yes"/>
      <point x="413" y="131"/>
      <point x="356" y="55"/>
      <point x="271" y="55" type="curve" smooth="yes"/>
      <point x="187" y="55"/>
      <point x="127" y="136"/>
      <point x="127" y="241" type="curve" smooth="yes"/>
      <point x="127" y="324"/>
      <point x="165" y="429"/>
      <point x="270" y="429" type="curve"/>
    </contour>
    <contour>
      <point x="495" y="290" type="line"/>
      <point x="500" y="351"/>
      <point x="537" y="431"/>
      <point x="624" y="431" type="curve" smooth="yes"/>
      <point x="720" y="431"/>
      <point x="743" y="344"/>
      <point x="742" y="290" type="curve"/>
    </contour>
  </outline>
</glyph>
<glyph name="ogonek" format="1">
  <advance width="300"/>
  <outline>
    <contour>
      <point x="123" y="4" type="line"/>
      <point x="99" y="-22"/>
      <point x="63" y="-70"/>
      <point x="63" y="-119" type="curve" smooth="yes"/>
      <point x="63" y="-175"/>
      <point x="101" y="-205"/>
      <point x="157" y="-205" type="curve" smooth="yes"/>
      <point x="182" y="-205"/>
      <point x="217" y="-198"/>
      <point x="237" y="-182" type="curve"/>
      <point x="223" y="-137" type="line"/>
      <point x="211" y="-142"/>
      <point x="195" y="-146"/>
      <point x="177" y="-146" type="curve" smooth="yes"/>
      <point x="148" y="-146"/>
      <point x="127" y="-127"/>
      <point x="127" y="-96" type="curve" smooth="yes"/>
      <point x="127" y="-58"/>
      <point x="165" y="-15"/>
      <point x="180" y="4" type="curve"/>
    </contour>
  </outline>
</glyph>
<glyph name="onehalf" format="1">
  <advance width="759"/>
  <outline>
    <contour>
      <point x="184" y="266" type="line"/>
      <point x="184" y="656" type="line"/>
      <point x="122" y="656" type="line"/>
      <point x="29" y="612" type="line"/>
      <point x="40" y="560" type="line"/>
      <point x="112" y="595" type="line"/>
      <point x="114" y="595" type="line"/>
      <point x="114" y="266" type="line"/>
    </contour>
    <contour>
      <point x="175" y="-11" type="line"/>
      <point x="554" y="661" type="line"/>
      <point x="498" y="661" type="line"/>
      <point x="119" y="-11" type="line"/>
    </contour>
    <contour>
      <point x="440" y="0" type="line"/>
      <point x="710" y="0" type="line"/>
      <point x="710" y="55" type="line"/>
      <point x="539" y="55" type="line"/>
      <point x="539" y="57" type="line"/>
      <point x="570" y="85" type="line" smooth="yes"/>
      <point x="645" y="153"/>
      <point x="703" y="207"/>
      <point x="703" y="282" type="curve" smooth="yes"/>
      <point x="703" y="336"/>
      <point x="665" y="395"/>
      <point x="570" y="395" type="curve" smooth="yes"/>
      <point x="520" y="395"/>
      <point x="475" y="376"/>
      <point x="448" y="353" type="curve"/>
      <point x="469" y="308" type="line"/>
      <point x="488" y="321"/>
      <point x="518" y="339"/>
      <point x="553" y="339" type="curve" smooth="yes"/>
      <point x="605" y="339"/>
      <point x="629" y="307"/>
      <point x="629" y="269" type="curve" smooth="yes"/>
      <point x="629" y="218"/>
      <point x="586" y="171"/>
      <point x="503" y="96" type="curve" smooth="yes"/>
      <point x="440" y="37" type="line"/>
    </contour>
  </outline>
</glyph>
<glyph name="onequarter" format="1">
  <advance width="759"/>
  <outline>
    <contour>
      <point x="198" y="266" type="line"/>
      <point x="198" y="656" type="line"/>
      <point x="137" y="656" type="line"/>
      <point x="43" y="612" type="line"/>
      <point x="54" y="560" type="line"/>
      <point x="126" y="595" type="line"/>
      <point x="128" y="595" type="line"/>
      <point x="128" y="266" type="line"/>
    </contour>
    <contour>
      <point x="195" y="-11" type="line"/>
      <point x="574" y="661" type="line"/>
      <point x="518" y="661" type="line"/>
      <point x="138" y="-11" type="line"/>
    </contour>
    <contour>
      <point x="664" y="0" type="line"/>
      <point x="664" y="103" type="line"/>
      <point x="724" y="103" type="line"/>
      <point x="724" y="152" type="line"/>
      <point x="664" y="152" type="line"/>
      <point x="664" y="395" type="line"/>
      <point x="590" y="395" type="line"/>
      <point x="397" y="142" type="line"/>
      <point x="397" y="103" type="line"/>
      <point x="597" y="103" type="line"/>
      <point x="597" y="0" type="line"/>
    </contour>
    <contour>
      <point x="597" y="152" type="line"/>
      <point x="469" y="152" type="line"/>
      <point x="469" y="153" type="line"/>
      <point x="565" y="278" type="line" smooth="yes"/>
      <point x="576" y="294"/>
      <point x="585" y="312"/>
      <point x="598" y="333" type="curve"/>
      <point x="600" y="333" type="line"/>
      <point x="599" y="314"/>
      <point x="597" y="293"/>
      <point x="597" y="270" type="curve" smooth="yes"/>
    </contour>
  </outline>
</glyph>
<glyph name="ordfeminine" format="1">
  <advance width="346"/>
  <outline>
    <contour>
      <point x="305" y="266" type="line"/>
      <point x="301" y="290"/>
      <point x="299" y="317"/>
      <point x="299" y="344" type="curve" smooth="yes"/>
      <point x="299" y="451" type="line" smooth="yes"/>
      <point x="299" y="523"/>
      <point x="272" y="591"/>
      <point x="172" y="591" type="curve" smooth="yes"/>
      <point x="129" y="591"/>
      <point x="87" y="579"/>
      <point x="58" y="558" type="curve"/>
      <point x="74" y="515" type="line"/>
      <point x="97" y="533"/>
      <point x="128" y="542"/>
      <point x="160" y="542" type="curve" smooth="yes"/>
      <point x="224" y="542"/>
      <point x="234" y="496"/>
      <point x="234" y="480" type="curve" smooth="yes"/>
      <point x="234" y="470" type="line"/>
      <point x="106" y="473"/>
      <point x="33" y="428"/>
      <point x="33" y="356" type="curve" smooth="yes"/>
      <point x="33" y="304"/>
      <point x="70" y="261"/>
      <point x="136" y="261" type="curve" smooth="yes"/>
      <point x="183" y="261"/>
      <point x="218" y="284"/>
      <point x="237" y="308" type="curve"/>
      <point x="239" y="308" type="line"/>
      <point x="245" y="266" type="line"/>
    </contour>
    <contour>
      <point x="235" y="372" type="line"/>
      <point x="235" y="365"/>
      <point x="231" y="355"/>
      <point x="225" y="345" type="curve" smooth="yes"/>
      <point x="212" y="326"/>
      <point x="187" y="309"/>
      <point x="157" y="309" type="curve" smooth="yes"/>
      <point x="126" y="309"/>
      <point x="99" y="327"/>
      <point x="99" y="360" type="curve" smooth="yes"/>
      <point x="99" y="417"/>
      <point x="172" y="428"/>
      <point x="235" y="427" type="curve"/>
    </contour>
  </outline>
</glyph>
<glyph name="ordmasculine" format="1">
  <advance width="355"/>
  <outline>
    <contour>
      <point x="179" y="591" type="curve" smooth="yes"/>
      <point x="93" y="591"/>
      <point x="18" y="527"/>
      <point x="18" y="423" type="curve" smooth="yes"/>
      <point x="18" y="325"/>
      <point x="88" y="261"/>
      <point x="177" y="261" type="curve" smooth="yes"/>
      <point x="254" y="261"/>
      <point x="336" y="313"/>
      <point x="337" y="428" type="curve" smooth="yes"/>
      <point x="337" y="522"/>
      <point x="276" y="591"/>
    </contour>
    <contour>
      <point x="177" y="541" type="curve" smooth="yes"/>
      <point x="243" y="541"/>
      <point x="270" y="476"/>
      <point x="270" y="426" type="curve" smooth="yes"/>
      <point x="270" y="357"/>
      <point x="231" y="311"/>
      <point x="178" y="311" type="curve" smooth="yes"/>
      <point x="128" y="311"/>
      <point x="85" y="359"/>
      <point x="85" y="425" type="curve" smooth="yes"/>
      <point x="85" y="478"/>
      <point x="113" y="541"/>
    </contour>
  </outline>
</glyph>
<glyph name="oslash" format="1">
  <advance width="549"/>
  <outline>
    <contour>
      <point x="276" y="495" type="line"/>
      <point x="144" y="495"/>
      <point x="38" y="400"/>
      <point x="38" y="239" type="curve" smooth="yes"/>
      <point x="38" y="160"/>
      <point x="66" y="96"/>
      <point x="113" y="52" type="curve"/>
      <point x="71" y="-8" type="line"/>
      <point x="108" y="-38" type="line"/>
      <point x="151" y="23" type="line"/>
      <point x="186" y="0"/>
      <point x="230" y="-11"/>
      <point x="275" y="-11" type="curve" smooth="yes"/>
      <point x="388" y="-11"/>
      <point x="511" y="68"/>
      <point x="511" y="246" type="curve" smooth="yes"/>
      <point x="511" y="321"/>
      <point x="485" y="386"/>
      <point x="438" y="431" type="curve"/>
      <point x="480" y="493" type="line"/>
      <point x="441" y="520" type="line"/>
      <point x="399" y="461" type="line"/>
      <point x="363" y="483"/>
      <point x="320" y="495"/>
      <point x="277" y="495" type="curve"/>
    </contour>
    <contour>
      <point x="161" y="119" type="line"/>
      <point x="159" y="120" type="line"/>
      <point x="134" y="155"/>
      <point x="123" y="199"/>
      <point x="123" y="241" type="curve" smooth="yes"/>
      <point x="123" y="329"/>
      <point x="166" y="429"/>
      <point x="274" y="429" type="curve" smooth="yes"/>
      <point x="309" y="429"/>
      <point x="337" y="418"/>
      <point x="359" y="400" type="curve"/>
    </contour>
    <contour>
      <point x="389" y="361" type="line"/>
      <point x="391" y="361" type="line"/>
      <point x="417" y="323"/>
      <point x="425" y="276"/>
      <point x="425" y="243" type="curve" smooth="yes"/>
      <point x="425" y="134"/>
      <point x="364" y="55"/>
      <point x="272" y="55" type="curve" smooth="yes"/>
      <point x="242" y="55"/>
      <point x="214" y="63"/>
      <point x="191" y="83" type="curve"/>
    </contour>
  </outline>
</glyph>
<glyph name="p" format="1">
  <advance width="569"/>
  <outline>
    <contour>
      <point x="73" y="-198" type="line"/>
      <point x="160" y="-198" type="line"/>
      <point x="160" y="65" type="line"/>
      <point x="162" y="65" type="line"/>
      <point x="191" y="17"/>
      <point x="247" y="-11"/>
      <point x="311" y="-11" type="curve" smooth="yes"/>
      <point x="425" y="-11"/>
      <point x="531" y="75"/>
      <point x="531" y="249" type="curve" smooth="yes"/>
      <point x="531" y="396"/>
      <point x="443" y="495"/>
      <point x="326" y="495" type="curve" smooth="yes"/>
      <point x="247" y="495"/>
      <point x="190" y="460"/>
      <point x="154" y="401" type="curve"/>
      <point x="152" y="401" type="line"/>
      <point x="148" y="484" type="line"/>
      <point x="69" y="484" type="line"/>
      <point x="71" y="438"/>
      <point x="73" y="388"/>
      <point x="73" y="326" type="curve" smooth="yes"/>
    </contour>
    <contour>
      <point x="160" y="280" type="line"/>
      <point x="160" y="292"/>
      <point x="163" y="305"/>
      <point x="166" y="316" type="curve" smooth="yes"/>
      <point x="183" y="382"/>
      <point x="239" y="425"/>
      <point x="299" y="425" type="curve" smooth="yes"/>
      <point x="392" y="425"/>
      <point x="443" y="342"/>
      <point x="443" y="245" type="curve" smooth="yes"/>
      <point x="443" y="134"/>
      <point x="389" y="58"/>
      <point x="296" y="58" type="curve" smooth="yes"/>
      <point x="233" y="58"/>
      <point x="180" y="100"/>
      <point x="164" y="161" type="curve" smooth="yes"/>
      <point x="162" y="172"/>
      <point x="160" y="184"/>
      <point x="160" y="197" type="curve" smooth="yes"/>
    </contour>
  </outline>
</glyph>
<glyph name="paragraph" format="1">
  <advance width="512"/>
  <outline>
    <contour>
      <point x="293" y="-49" type="line"/>
      <point x="293" y="615" type="line"/>
      <point x="364" y="615" type="line"/>
      <point x="364" y="-49" type="line"/>
      <point x="426" y="-49" type="line"/>
      <point x="426" y="667" type="line"/>
      <point x="401" y="673"/>
      <point x="362" y="676"/>
      <point x="309" y="676" type="curve" smooth="yes"/>
      <point x="89" y="676"/>
      <point x="32" y="558"/>
      <point x="34" y="454" type="curve"/>
      <point x="36" y="326"/>
      <point x="144" y="264"/>
      <point x="223" y="264" type="curve" smooth="yes"/>
      <point x="230" y="264" type="line"/>
      <point x="230" y="-49" type="line"/>
    </contour>
  </outline>
</glyph>
<glyph name="parenleft" format="1">
  <advance width="284"/>
  <outline>
    <contour>
      <point x="195" y="694" type="line"/>
      <point x="132" y="610"/>
      <point x="65" y="482"/>
      <point x="64" y="285" type="curve" smooth="yes"/>
      <point x="64" y="90"/>
      <point x="132" y="-38"/>
      <point x="195" y="-121" type="curve"/>
      <point x="264" y="-121" type="line"/>
      <point x="193" y="-21"/>
      <point x="138" y="107"/>
      <point x="138" y="285" type="curve" smooth="yes"/>
      <point x="138" y="466"/>
      <point x="191" y="596"/>
      <point x="264" y="694" type="curve"/>
    </contour>
  </outline>
</glyph>
<glyph name="parenright" format="1">
  <advance width="284"/>
  <outline>
    <contour>
      <point x="88" y="-121" type="line"/>
      <point x="152" y="-36"/>
      <point x="219" y="91"/>
      <point x="219" y="287" type="curve" smooth="yes"/>
      <point x="219" y="484"/>
      <point x="152" y="612"/>
      <point x="88" y="694" type="curve"/>
      <point x="20" y="694" type="line"/>
      <point x="92" y="595"/>
      <point x="146" y="467"/>
      <point x="146" y="288" type="curve" smooth="yes"/>
      <point x="146" y="108"/>
      <point x="91" y="-22"/>
      <point x="20" y="-121" type="curve"/>
    </contour>
  </outline>
</glyph>
<glyph name="period" format="1">
  <advance width="207"/>
  <outline>
    <contour>
      <point x="111" y="-11" type="line"/>
      <point x="148" y="-11"/>
      <point x="171" y="16"/>
      <point x="171" y="52" type="curve" smooth="yes"/>
      <point x="171" y="89"/>
      <point x="147" y="115"/>
      <point x="112" y="115" type="curve" smooth="yes"/>
      <point x="77" y="115"/>
      <point x="52" y="89"/>
      <point x="52" y="52" type="curve" smooth="yes"/>
      <point x="52" y="16"/>
      <point x="76" y="-11"/>
      <point x="110" y="-11" type="curve"/>
    </contour>
  </outline>
</glyph>
<glyph name="periodcentered" format="1">
  <advance width="207"/>
  <outline>
    <contour>
      <point x="103" y="200" type="line"/>
      <point x="139" y="200"/>
      <point x="163" y="227"/>
      <point x="163" y="263" type="curve" smooth="yes"/>
      <point x="162" y="300"/>
      <point x="139" y="326"/>
      <point x="104" y="326" type="curve" smooth="yes"/>
      <point x="69" y="326"/>
      <point x="44" y="299"/>
      <point x="44" y="263" type="curve" smooth="yes"/>
      <point x="43" y="227"/>
      <point x="68" y="200"/>
      <point x="102" y="200" type="curve"/>
    </contour>
  </outline>
</glyph>
<glyph name="perthousand" format="1">
  <advance width="1156"/>
  <outline>
    <contour>
      <point x="187" y="661" type="line"/>
      <point x="101" y="661"/>
      <point x="30" y="588"/>
      <point x="30" y="458" type="curve" smooth="yes"/>
      <point x="31" y="328"/>
      <point x="101" y="262"/>
      <point x="182" y="262" type="curve" smooth="yes"/>
      <point x="266" y="262"/>
      <point x="338" y="330"/>
      <point x="338" y="467" type="curve" smooth="yes"/>
      <point x="338" y="591"/>
      <point x="278" y="661"/>
      <point x="188" y="661" type="curve"/>
    </contour>
    <contour>
      <point x="184" y="608" type="line"/>
      <point x="245" y="608"/>
      <point x="268" y="542"/>
      <point x="268" y="463" type="curve" smooth="yes"/>
      <point x="268" y="377"/>
      <point x="242" y="315"/>
      <point x="184" y="315" type="curve" smooth="yes"/>
      <point x="129" y="315"/>
      <point x="98" y="379"/>
      <point x="100" y="461" type="curve" smooth="yes"/>
      <point x="100" y="543"/>
      <point x="129" y="608"/>
      <point x="183" y="608" type="curve"/>
    </contour>
    <contour>
      <point x="231" y="-12" type="line"/>
      <point x="614" y="662" type="line"/>
      <point x="558" y="662" type="line"/>
      <point x="175" y="-12" type="line"/>
    </contour>
    <contour>
      <point x="611" y="392" type="line"/>
      <point x="525" y="392"/>
      <point x="454" y="319"/>
      <point x="454" y="188" type="curve" smooth="yes"/>
      <point x="455" y="58"/>
      <point x="525" y="-7"/>
      <point x="606" y="-7" type="curve" smooth="yes"/>
      <point x="689" y="-7"/>
      <point x="761" y="61"/>
      <point x="761" y="198" type="curve" smooth="yes"/>
      <point x="761" y="322"/>
      <point x="702" y="392"/>
      <point x="612" y="392" type="curve"/>
    </contour>
    <contour>
      <point x="608" y="339" type="line"/>
      <point x="669" y="339"/>
      <point x="692" y="273"/>
      <point x="692" y="194" type="curve" smooth="yes"/>
      <point x="692" y="108"/>
      <point x="666" y="46"/>
      <point x="608" y="46" type="curve" smooth="yes"/>
      <point x="553" y="46"/>
      <point x="522" y="109"/>
      <point x="523" y="192" type="curve" smooth="yes"/>
      <point x="523" y="274"/>
      <point x="553" y="339"/>
      <point x="607" y="339" type="curve"/>
    </contour>
    <contour>
      <point x="975" y="392" type="line"/>
      <point x="889" y="392"/>
      <point x="818" y="319"/>
      <point x="818" y="188" type="curve" smooth="yes"/>
      <point x="819" y="58"/>
      <point x="889" y="-7"/>
      <point x="970" y="-7" type="curve" smooth="yes"/>
      <point x="1054" y="-7"/>
      <point x="1126" y="61"/>
      <point x="1126" y="198" type="curve" smooth="yes"/>
      <point x="1126" y="322"/>
      <point x="1066" y="392"/>
      <point x="976" y="392" type="curve"/>
    </contour>
    <contour>
      <point x="973" y="339" type="line"/>
      <point x="1034" y="339"/>
      <point x="1056" y="273"/>
      <point x="1056" y="194" type="curve" smooth="yes"/>
      <point x="1056" y="108"/>
      <point x="1031" y="46"/>
      <point x="972" y="46" type="curve" smooth="yes"/>
      <point x="917" y="46"/>
      <point x="886" y="109"/>
      <point x="888" y="192" type="curve" smooth="yes"/>
      <point x="888" y="274"/>
      <point x="918" y="339"/>
      <point x="972" y="339" type="curve"/>
    </contour>
  </outline>
</glyph>
<glyph name="plus" format="1">
  <advance width="596"/>
  <outline>
    <contour>
      <point x="266" y="532" type="line"/>
      <point x="266" y="297" type="line"/>
      <point x="40" y="297" type="line"/>
      <point x="40" y="237" type="line"/>
      <point x="266" y="237" type="line"/>
      <point x="266" y="0" type="line"/>
      <point x="330" y="0" type="line"/>
      <point x="330" y="237" type="line"/>
      <point x="556" y="237" type="line"/>
      <point x="556" y="297" type="line"/>
      <point x="330" y="297" type="line"/>
      <point x="330" y="532" type="line"/>
    </contour>
  </outline>
</glyph>
<glyph name="plusminus" format="1">
  <advance width="596"/>
  <outline>
    <contour>
      <point x="266" y="572" type="line"/>
      <point x="266" y="377" type="line"/>
      <point x="40" y="377" type="line"/>
      <point x="40" y="317" type="line"/>
      <point x="266" y="317" type="line"/>
      <point x="266" y="117" type="line"/>
      <point x="330" y="117" type="line"/>
      <point x="330" y="317" type="line"/>
      <point x="556" y="317" type="line"/>
      <point x="556" y="377" type="line"/>
      <point x="330" y="377" type="line"/>
      <point x="330" y="572" type="line"/>
    </contour>
    <contour>
      <point x="40" y="60" type="line"/>
      <point x="40" y="0" type="line"/>
      <point x="556" y="0" type="line"/>
      <point x="556" y="60" type="line"/>
    </contour>
  </outline>
</glyph>
<glyph name="q" format="1">
  <advance width="563"/>
  <outline>
    <contour>
      <point x="403" y="-198" type="line"/>
      <point x="491" y="-198" type="line"/>
      <point x="491" y="351" type="line" smooth="yes"/>
      <point x="491" y="401"/>
      <point x="492" y="443"/>
      <point x="494" y="484" type="curve"/>
      <point x="411" y="484" type="line"/>
      <point x="408" y="411" type="line"/>
      <point x="406" y="411" type="line"/>
      <point x="382" y="458"/>
      <point x="332" y="495"/>
      <point x="257" y="495" type="curve" smooth="yes"/>
      <point x="155" y="495"/>
      <point x="38" y="415"/>
      <point x="38" y="234" type="curve" smooth="yes"/>
      <point x="38" y="87"/>
      <point x="130" y="-11"/>
      <point x="243" y="-11" type="curve" smooth="yes"/>
      <point x="321" y="-11"/>
      <point x="375" y="27"/>
      <point x="401" y="75" type="curve"/>
      <point x="403" y="75" type="line"/>
    </contour>
    <contour>
      <point x="403" y="197" type="line"/>
      <point x="403" y="184"/>
      <point x="400" y="167"/>
      <point x="396" y="155" type="curve" smooth="yes"/>
      <point x="376" y="94"/>
      <point x="327" y="59"/>
      <point x="270" y="59" type="curve" smooth="yes"/>
      <point x="173" y="59"/>
      <point x="127" y="143"/>
      <point x="127" y="239" type="curve" smooth="yes"/>
      <point x="127" y="348"/>
      <point x="182" y="425"/>
      <point x="273" y="425" type="curve" smooth="yes"/>
      <point x="339" y="425"/>
      <point x="386" y="379"/>
      <point x="399" y="325" type="curve" smooth="yes"/>
      <point x="402" y="314"/>
      <point x="403" y="300"/>
      <point x="403" y="288" type="curve" smooth="yes"/>
    </contour>
  </outline>
</glyph>
<glyph name="question" format="1">
  <advance width="406"/>
  <outline>
    <contour>
      <point x="219" y="192" type="line"/>
      <point x="218" y="217" type="line" smooth="yes"/>
      <point x="215" y="268"/>
      <point x="231" y="313"/>
      <point x="275" y="365" type="curve" smooth="yes"/>
      <point x="323" y="421"/>
      <point x="361" y="471"/>
      <point x="361" y="539" type="curve" smooth="yes"/>
      <point x="361" y="615"/>
      <point x="309" y="686"/>
      <point x="194" y="686" type="curve" smooth="yes"/>
      <point x="141" y="686"/>
      <point x="84" y="670"/>
      <point x="51" y="646" type="curve"/>
      <point x="75" y="583" type="line"/>
      <point x="100" y="602"/>
      <point x="140" y="614"/>
      <point x="176" y="614" type="curve" smooth="yes"/>
      <point x="239" y="613"/>
      <point x="271" y="579"/>
      <point x="271" y="528" type="curve" smooth="yes"/>
      <point x="271" y="483"/>
      <point x="246" y="444"/>
      <point x="201" y="390" type="curve" smooth="yes"/>
      <point x="151" y="331"/>
      <point x="133" y="271"/>
      <point x="139" y="218" type="curve" smooth="yes"/>
      <point x="141" y="192" type="line"/>
    </contour>
    <contour>
      <point x="178" y="-11" type="line"/>
      <point x="215" y="-11"/>
      <point x="238" y="16"/>
      <point x="238" y="51" type="curve" smooth="yes"/>
      <point x="238" y="88"/>
      <point x="214" y="114"/>
      <point x="179" y="114" type="curve" smooth="yes"/>
      <point x="144" y="114"/>
      <point x="119" y="88"/>
      <point x="119" y="51" type="curve" smooth="yes"/>
      <point x="119" y="16"/>
      <point x="143" y="-11"/>
      <point x="177" y="-11" type="curve"/>
    </contour>
  </outline>
</glyph>
<glyph name="questiondown" format="1">
  <advance width="406"/>
  <outline>
    <contour>
      <point x="237" y="488" type="line"/>
      <point x="202" y="488"/>
      <point x="178" y="462"/>
      <point x="178" y="425" type="curve" smooth="yes"/>
      <point x="178" y="390"/>
      <point x="201" y="363"/>
      <point x="237" y="363" type="curve" smooth="yes"/>
      <point x="273" y="363"/>
      <point x="296" y="390"/>
      <point x="296" y="425" type="curve" smooth="yes"/>
      <point x="296" y="462"/>
      <point x="273" y="488"/>
      <point x="238" y="488" type="curve"/>
    </contour>
    <contour>
      <point x="197" y="286" type="line"/>
      <point x="198" y="260" type="line" smooth="yes"/>
      <point x="201" y="209"/>
      <point x="185" y="165"/>
      <point x="142" y="112" type="curve" smooth="yes"/>
      <point x="93" y="56"/>
      <point x="55" y="6"/>
      <point x="55" y="-61" type="curve" smooth="yes"/>
      <point x="55" y="-138"/>
      <point x="108" y="-209"/>
      <point x="222" y="-209" type="curve" smooth="yes"/>
      <point x="275" y="-209"/>
      <point x="332" y="-192"/>
      <point x="366" y="-169" type="curve"/>
      <point x="342" y="-105" type="line"/>
      <point x="316" y="-125"/>
      <point x="276" y="-137"/>
      <point x="241" y="-137" type="curve" smooth="yes"/>
      <point x="177" y="-136"/>
      <point x="146" y="-102"/>
      <point x="146" y="-50" type="curve" smooth="yes"/>
      <point x="146" y="-6"/>
      <point x="170" y="33"/>
      <point x="215" y="87" type="curve" smooth="yes"/>
      <point x="265" y="147"/>
      <point x="284" y="206"/>
      <point x="278" y="260" type="curve" smooth="yes"/>
      <point x="275" y="286" type="line"/>
    </contour>
  </outline>
</glyph>
<glyph name="quotedbl" format="1">
  <advance width="337"/>
  <outline>
    <contour>
      <point x="51" y="692" type="line"/>
      <point x="67" y="452" type="line"/>
      <point x="121" y="452" type="line"/>
      <point x="138" y="692" type="line"/>
    </contour>
    <contour>
      <point x="200" y="692" type="line"/>
      <point x="217" y="452" type="line"/>
      <point x="270" y="452" type="line"/>
      <point x="287" y="692" type="line"/>
    </contour>
  </outline>
</glyph>
<glyph name="quotedblbase" format="1">
  <advance width="356"/>
  <outline>
    <contour>
      <point x="76" y="-111" type="line"/>
      <point x="103" y="-65"/>
      <point x="147" y="42"/>
      <point x="169" y="126" type="curve"/>
      <point x="79" y="116" type="line"/>
      <point x="68" y="45"/>
      <point x="42" y="-59"/>
      <point x="20" y="-118" type="curve"/>
    </contour>
    <contour>
      <point x="224" y="-111" type="line"/>
      <point x="252" y="-65"/>
      <point x="295" y="42"/>
      <point x="318" y="126" type="curve"/>
      <point x="227" y="116" type="line"/>
      <point x="216" y="45"/>
      <point x="190" y="-59"/>
      <point x="168" y="-118" type="curve"/>
    </contour>
  </outline>
</glyph>
<glyph name="quotedblleft" format="1">
  <advance width="354"/>
  <outline>
    <contour>
      <point x="125" y="458" type="line"/>
      <point x="136" y="530"/>
      <point x="162" y="634"/>
      <point x="184" y="692" type="curve"/>
      <point x="128" y="686" type="line"/>
      <point x="100" y="640"/>
      <point x="57" y="532"/>
      <point x="34" y="448" type="curve"/>
    </contour>
    <contour>
      <point x="273" y="458" type="line"/>
      <point x="284" y="530"/>
      <point x="310" y="634"/>
      <point x="332" y="692" type="curve"/>
      <point x="276" y="686" type="line"/>
      <point x="249" y="640"/>
      <point x="205" y="532"/>
      <point x="183" y="448" type="curve"/>
    </contour>
  </outline>
</glyph>
<glyph name="quotedblright" format="1">
  <advance width="354"/>
  <outline>
    <contour>
      <point x="93" y="682" type="line"/>
      <point x="82" y="611"/>
      <point x="55" y="507"/>
      <point x="34" y="449" type="curve"/>
      <point x="90" y="455" type="line"/>
      <point x="117" y="501"/>
      <point x="160" y="609"/>
      <point x="183" y="692" type="curve"/>
    </contour>
    <contour>
      <point x="241" y="682" type="line"/>
      <point x="230" y="611"/>
      <point x="204" y="507"/>
      <point x="182" y="449" type="curve"/>
      <point x="238" y="455" type="line"/>
      <point x="265" y="501"/>
      <point x="308" y="609"/>
      <point x="331" y="692" type="curve"/>
    </contour>
  </outline>
</glyph>
<glyph name="quoteleft" format="1">
  <advance width="207"/>
  <outline>
    <contour>
      <point x="125" y="458" type="line"/>
      <point x="136" y="530"/>
      <point x="163" y="634"/>
      <point x="184" y="692" type="curve"/>
      <point x="128" y="686" type="line"/>
      <point x="101" y="640"/>
      <point x="58" y="532"/>
      <point x="35" y="448" type="curve"/>
    </contour>
  </outline>
</glyph>
<glyph name="quoteright" format="1">
  <advance width="207"/>
  <outline>
    <contour>
      <point x="93" y="682" type="line"/>
      <point x="82" y="611"/>
      <point x="56" y="507"/>
      <point x="34" y="449" type="curve"/>
      <point x="90" y="455" type="line"/>
      <point x="118" y="501"/>
      <point x="161" y="609"/>
      <point x="184" y="692" type="curve"/>
    </contour>
  </outline>
</glyph>
<glyph name="quotesinglbase" format="1">
  <advance width="207"/>
  <outline>
    <contour>
      <point x="76" y="-111" type="line"/>
      <point x="104" y="-65"/>
      <point x="147" y="42"/>
      <point x="170" y="126" type="curve"/>
      <point x="79" y="116" type="line"/>
      <point x="69" y="45"/>
      <point x="42" y="-59"/>
      <point x="21" y="-118" type="curve"/>
    </contour>
  </outline>
</glyph>
<glyph name="quotesingle" format="1">
  <advance width="188"/>
  <outline>
    <contour>
      <point x="51" y="692" type="line"/>
      <point x="67" y="452" type="line"/>
      <point x="121" y="452" type="line"/>
      <point x="138" y="692" type="line"/>
    </contour>
  </outline>
</glyph>
<glyph name="r" format="1">
  <advance width="327"/>
  <outline>
    <contour>
      <point x="73" y="0" type="line"/>
      <point x="160" y="0" type="line"/>
      <point x="160" y="258" type="line" smooth="yes"/>
      <point x="160" y="273"/>
      <point x="162" y="287"/>
      <point x="164" y="299" type="curve" smooth="yes"/>
      <point x="176" y="365"/>
      <point x="220" y="412"/>
      <point x="282" y="412" type="curve" smooth="yes"/>
      <point x="294" y="412"/>
      <point x="303" y="411"/>
      <point x="312" y="409" type="curve"/>
      <point x="312" y="492" type="line"/>
      <point x="304" y="494"/>
      <point x="297" y="495"/>
      <point x="287" y="495" type="curve" smooth="yes"/>
      <point x="228" y="495"/>
      <point x="175" y="454"/>
      <point x="153" y="389" type="curve"/>
      <point x="149" y="389" type="line"/>
      <point x="146" y="484" type="line"/>
      <point x="69" y="484" type="line"/>
      <point x="72" y="439"/>
      <point x="73" y="390"/>
      <point x="73" y="333" type="curve" smooth="yes"/>
    </contour>
  </outline>
</glyph>
<glyph name="registered" format="1">
  <advance width="419"/>
  <outline>
    <contour>
      <point x="184" y="499" type="line"/>
      <point x="202" y="499" type="line" smooth="yes"/>
      <point x="223" y="499"/>
      <point x="233" y="491"/>
      <point x="236" y="473" type="curve" smooth="yes"/>
      <point x="241" y="454"/>
      <point x="244" y="440"/>
      <point x="249" y="434" type="curve"/>
      <point x="290" y="434" type="line"/>
      <point x="286" y="439"/>
      <point x="283" y="449"/>
      <point x="278" y="474" type="curve" smooth="yes"/>
      <point x="273" y="496"/>
      <point x="264" y="509"/>
      <point x="248" y="514" type="curve"/>
      <point x="248" y="516" type="line"/>
      <point x="268" y="522"/>
      <point x="282" y="536"/>
      <point x="282" y="555" type="curve" smooth="yes"/>
      <point x="282" y="570"/>
      <point x="275" y="583"/>
      <point x="266" y="590" type="curve" smooth="yes"/>
      <point x="254" y="598"/>
      <point x="240" y="603"/>
      <point x="209" y="603" type="curve" smooth="yes"/>
      <point x="182" y="603"/>
      <point x="161" y="600"/>
      <point x="146" y="597" type="curve"/>
      <point x="146" y="434" type="line"/>
      <point x="184" y="434" type="line"/>
    </contour>
    <contour>
      <point x="185" y="573" type="line"/>
      <point x="189" y="574"/>
      <point x="196" y="575"/>
      <point x="206" y="575" type="curve" smooth="yes"/>
      <point x="230" y="575"/>
      <point x="241" y="565"/>
      <point x="241" y="550" type="curve" smooth="yes"/>
      <point x="241" y="533"/>
      <point x="224" y="526"/>
      <point x="203" y="526" type="curve" smooth="yes"/>
      <point x="185" y="526" type="line"/>
    </contour>
    <contour>
      <point x="210" y="683" type="line"/>
      <point x="116" y="683"/>
      <point x="41" y="610"/>
      <point x="41" y="519" type="curve" smooth="yes"/>
      <point x="41" y="426"/>
      <point x="116" y="354"/>
      <point x="210" y="354" type="curve" smooth="yes"/>
      <point x="305" y="354"/>
      <point x="378" y="426"/>
      <point x="378" y="519" type="curve" smooth="yes"/>
      <point x="378" y="610"/>
      <point x="305" y="683"/>
      <point x="211" y="683" type="curve"/>
    </contour>
    <contour>
      <point x="210" y="650" type="line"/>
      <point x="283" y="650"/>
      <point x="336" y="591"/>
      <point x="336" y="519" type="curve" smooth="yes"/>
      <point x="336" y="446"/>
      <point x="283" y="387"/>
      <point x="211" y="388" type="curve"/>
      <point x="137" y="388"/>
      <point x="83" y="446"/>
      <point x="83" y="519" type="curve" smooth="yes"/>
      <point x="83" y="591"/>
      <point x="137" y="650"/>
      <point x="209" y="650" type="curve"/>
    </contour>
  </outline>
</glyph>
<glyph name="ring" format="1">
  <advance width="300"/>
  <outline>
    <contour>
      <point x="142" y="537" type="curve"/>
      <point x="203" y="537"/>
      <point x="244" y="578"/>
      <point x="244" y="631" type="curve" smooth="yes"/>
      <point x="244" y="683"/>
      <point x="204" y="724"/>
      <point x="142" y="724" type="curve" smooth="yes"/>
      <point x="78" y="724"/>
      <point x="39" y="681"/>
      <point x="39" y="630" type="curve" smooth="yes"/>
      <point x="39" y="578"/>
      <point x="79" y="537"/>
    </contour>
    <contour>
      <point x="141" y="577" type="curve"/>
      <point x="109" y="577"/>
      <point x="92" y="606"/>
      <point x="92" y="631" type="curve" smooth="yes"/>
      <point x="92" y="657"/>
      <point x="109" y="685"/>
      <point x="142" y="685" type="curve" smooth="yes"/>
      <point x="175" y="685"/>
      <point x="192" y="656"/>
      <point x="192" y="630" type="curve" smooth="yes"/>
      <point x="192" y="603"/>
      <point x="175" y="577"/>
    </contour>
  </outline>
</glyph>
<glyph name="s" format="1">
  <advance width="396"/>
  <outline>
    <contour>
      <point x="39" y="23" type="line"/>
      <point x="73" y="3"/>
      <point x="122" y="-11"/>
      <point x="175" y="-11" type="curve" smooth="yes"/>
      <point x="290" y="-11"/>
      <point x="356" y="50"/>
      <point x="356" y="135" type="curve" smooth="yes"/>
      <point x="356" y="207"/>
      <point x="313" y="249"/>
      <point x="229" y="281" type="curve" smooth="yes"/>
      <point x="166" y="305"/>
      <point x="137" y="323"/>
      <point x="137" y="363" type="curve" smooth="yes"/>
      <point x="137" y="399"/>
      <point x="166" y="429"/>
      <point x="218" y="429" type="curve" smooth="yes"/>
      <point x="263" y="429"/>
      <point x="298" y="413"/>
      <point x="317" y="401" type="curve"/>
      <point x="339" y="465" type="line"/>
      <point x="312" y="481"/>
      <point x="269" y="495"/>
      <point x="220" y="495" type="curve" smooth="yes"/>
      <point x="116" y="495"/>
      <point x="53" y="431"/>
      <point x="53" y="353" type="curve" smooth="yes"/>
      <point x="53" y="295"/>
      <point x="94" y="247"/>
      <point x="181" y="216" type="curve" smooth="yes"/>
      <point x="246" y="192"/>
      <point x="271" y="169"/>
      <point x="271" y="127" type="curve" smooth="yes"/>
      <point x="271" y="87"/>
      <point x="241" y="55"/>
      <point x="177" y="55" type="curve" smooth="yes"/>
      <point x="133" y="55"/>
      <point x="87" y="73"/>
      <point x="61" y="90" type="curve"/>
    </contour>
  </outline>
</glyph>
<glyph name="section" format="1">
  <advance width="519"/>
  <outline>
    <contour>
      <point x="130" y="351" type="line"/>
      <point x="130" y="381"/>
      <point x="144" y="406"/>
      <point x="176" y="429" type="curve"/>
      <point x="208" y="409"/>
      <point x="259" y="393"/>
      <point x="299" y="378" type="curve" smooth="yes"/>
      <point x="364" y="355"/>
      <point x="388" y="323"/>
      <point x="388" y="285" type="curve" smooth="yes"/>
      <point x="388" y="254"/>
      <point x="375" y="226"/>
      <point x="350" y="208" type="curve"/>
      <point x="327" y="223"/>
      <point x="287" y="238"/>
      <point x="236" y="256" type="curve" smooth="yes"/>
      <point x="157" y="285"/>
      <point x="130" y="315"/>
      <point x="130" y="350" type="curve"/>
    </contour>
    <contour>
      <point x="418" y="650" type="line"/>
      <point x="384" y="669"/>
      <point x="336" y="683"/>
      <point x="280" y="683" type="curve" smooth="yes"/>
      <point x="177" y="683"/>
      <point x="95" y="629"/>
      <point x="95" y="541" type="curve"/>
      <point x="96" y="507"/>
      <point x="112" y="473"/>
      <point x="132" y="457" type="curve"/>
      <point x="79" y="423"/>
      <point x="59" y="378"/>
      <point x="59" y="340" type="curve" smooth="yes"/>
      <point x="59" y="254"/>
      <point x="130" y="217"/>
      <point x="233" y="182" type="curve" smooth="yes"/>
      <point x="326" y="150"/>
      <point x="355" y="125"/>
      <point x="355" y="78" type="curve" smooth="yes"/>
      <point x="355" y="25"/>
      <point x="307" y="-4"/>
      <point x="243" y="-4" type="curve" smooth="yes"/>
      <point x="183" y="-4"/>
      <point x="135" y="20"/>
      <point x="111" y="37" type="curve"/>
      <point x="87" y="-21" type="line"/>
      <point x="125" y="-48"/>
      <point x="183" y="-62"/>
      <point x="244" y="-62" type="curve" smooth="yes"/>
      <point x="337" y="-62"/>
      <point x="434" y="-17"/>
      <point x="434" y="88" type="curve" smooth="yes"/>
      <point x="434" y="129"/>
      <point x="413" y="162"/>
      <point x="396" y="176" type="curve"/>
      <point x="436" y="207"/>
      <point x="461" y="245"/>
      <point x="461" y="297" type="curve" smooth="yes"/>
      <point x="461" y="387"/>
      <point x="390" y="425"/>
      <point x="298" y="455" type="curve" smooth="yes"/>
      <point x="223" y="480"/>
      <point x="173" y="499"/>
      <point x="173" y="551" type="curve" smooth="yes"/>
      <point x="173" y="596"/>
      <point x="218" y="625"/>
      <point x="277" y="625" type="curve" smooth="yes"/>
      <point x="331" y="625"/>
      <point x="371" y="609"/>
      <point x="397" y="593" type="curve"/>
    </contour>
  </outline>
</glyph>
<glyph name="semicolon" format="1">
  <advance width="207"/>
  <outline>
    <contour>
      <point x="78" y="-117" type="line"/>
      <point x="106" y="-70"/>
      <point x="150" y="41"/>
      <point x="174" y="126" type="curve"/>
      <point x="77" y="116" type="line"/>
      <point x="66" y="43"/>
      <point x="39" y="-64"/>
      <point x="17" y="-123" type="curve"/>
    </contour>
    <contour>
      <point x="119" y="342" type="line"/>
      <point x="155" y="342"/>
      <point x="178" y="369"/>
      <point x="178" y="404" type="curve" smooth="yes"/>
      <point x="178" y="441"/>
      <point x="155" y="468"/>
      <point x="119" y="468" type="curve" smooth="yes"/>
      <point x="85" y="468"/>
      <point x="60" y="441"/>
      <point x="60" y="404" type="curve" smooth="yes"/>
      <point x="60" y="369"/>
      <point x="84" y="342"/>
      <point x="118" y="342" type="curve"/>
    </contour>
  </outline>
</glyph>
<glyph name="slash" format="1">
  <advance width="343"/>
  <outline>
    <contour>
      <point x="66" y="-40" type="line"/>
      <point x="346" y="685" type="line"/>
      <point x="278" y="685" type="line"/>
      <point x="-1" y="-40" type="line"/>
    </contour>
  </outline>
</glyph>
<glyph name="sterling" format="1">
  <advance width="513"/>
  <outline>
    <contour>
      <point x="471" y="0" type="line"/>
      <point x="471" y="73" type="line"/>
      <point x="173" y="73" type="line"/>
      <point x="173" y="75" type="line"/>
      <point x="207" y="104"/>
      <point x="231" y="140"/>
      <point x="242" y="183" type="curve" smooth="yes"/>
      <point x="251" y="219"/>
      <point x="249" y="257"/>
      <point x="246" y="295" type="curve"/>
      <point x="382" y="295" type="line"/>
      <point x="382" y="358" type="line"/>
      <point x="238" y="358" type="line"/>
      <point x="232" y="390"/>
      <point x="226" y="422"/>
      <point x="226" y="465" type="curve" smooth="yes"/>
      <point x="226" y="536"/>
      <point x="258" y="590"/>
      <point x="336" y="590" type="curve" smooth="yes"/>
      <point x="378" y="590"/>
      <point x="407" y="580"/>
      <point x="425" y="570" type="curve"/>
      <point x="445" y="636" type="line"/>
      <point x="424" y="649"/>
      <point x="388" y="661"/>
      <point x="336" y="661" type="curve" smooth="yes"/>
      <point x="225" y="661"/>
      <point x="144" y="584"/>
      <point x="144" y="466" type="curve" smooth="yes"/>
      <point x="144" y="427"/>
      <point x="150" y="388"/>
      <point x="155" y="358" type="curve"/>
      <point x="62" y="358" type="line"/>
      <point x="62" y="295" type="line"/>
      <point x="165" y="295" type="line"/>
      <point x="169" y="269"/>
      <point x="170" y="249"/>
      <point x="170" y="225" type="curve" smooth="yes"/>
      <point x="170" y="150"/>
      <point x="123" y="84"/>
      <point x="56" y="50" type="curve"/>
      <point x="56" y="0" type="line"/>
    </contour>
  </outline>
</glyph>
<glyph name="t" format="1">
  <advance width="331"/>
  <outline>
    <contour>
      <point x="93" y="596" type="line"/>
      <point x="93" y="484" type="line"/>
      <point x="18" y="484" type="line"/>
      <point x="18" y="417" type="line"/>
      <point x="93" y="417" type="line"/>
      <point x="93" y="153" type="line" smooth="yes"/>
      <point x="93" y="96"/>
      <point x="102" y="53"/>
      <point x="127" y="27" type="curve" smooth="yes"/>
      <point x="148" y="3"/>
      <point x="181" y="-11"/>
      <point x="222" y="-11" type="curve" smooth="yes"/>
      <point x="256" y="-11"/>
      <point x="283" y="-5"/>
      <point x="300" y="2" type="curve"/>
      <point x="296" y="68" type="line"/>
      <point x="283" y="64"/>
      <point x="269" y="62"/>
      <point x="245" y="62" type="curve" smooth="yes"/>
      <point x="196" y="62"/>
      <point x="179" y="96"/>
      <point x="179" y="156" type="curve" smooth="yes"/>
      <point x="179" y="417" type="line"/>
      <point x="305" y="417" type="line"/>
      <point x="305" y="484" type="line"/>
      <point x="179" y="484" type="line"/>
      <point x="179" y="619" type="line"/>
    </contour>
  </outline>
</glyph>
<glyph name="thorn" format="1">
  <advance width="569"/>
  <outline>
    <contour>
      <point x="73" y="669" type="line"/>
      <point x="73" y="-198" type="line"/>
      <point x="160" y="-198" type="line"/>
      <point x="160" y="65" type="line"/>
      <point x="162" y="65" type="line"/>
      <point x="193" y="17"/>
      <point x="247" y="-11"/>
      <point x="311" y="-11" type="curve" smooth="yes"/>
      <point x="421" y="-11"/>
      <point x="531" y="71"/>
      <point x="531" y="248" type="curve" smooth="yes"/>
      <point x="531" y="398"/>
      <point x="441" y="496"/>
      <point x="327" y="495" type="curve" smooth="yes"/>
      <point x="248" y="495"/>
      <point x="195" y="460"/>
      <point x="162" y="407" type="curve"/>
      <point x="160" y="407" type="line"/>
      <point x="160" y="669" type="line"/>
    </contour>
    <contour>
      <point x="160" y="280" type="line"/>
      <point x="160" y="296"/>
      <point x="165" y="315"/>
      <point x="170" y="329" type="curve" smooth="yes"/>
      <point x="191" y="388"/>
      <point x="244" y="425"/>
      <point x="300" y="425" type="curve" smooth="yes"/>
      <point x="390" y="425"/>
      <point x="443" y="343"/>
      <point x="443" y="247" type="curve" smooth="yes"/>
      <point x="443" y="131"/>
      <point x="385" y="58"/>
      <point x="298" y="58" type="curve" smooth="yes"/>
      <point x="240" y="58"/>
      <point x="189" y="92"/>
      <point x="170" y="147" type="curve" smooth="yes"/>
      <point x="164" y="160"/>
      <point x="160" y="177"/>
      <point x="160" y="191" type="curve" smooth="yes"/>
    </contour>
  </outline>
</glyph>
<glyph name="threequarters" format="1">
  <advance width="759"/>
  <outline>
    <contour>
      <point x="66" y="583" type="line"/>
      <point x="82" y="593"/>
      <point x="114" y="609"/>
      <point x="150" y="609" type="curve" smooth="yes"/>
      <point x="196" y="609"/>
      <point x="214" y="584"/>
      <point x="214" y="560" type="curve" smooth="yes"/>
      <point x="214" y="513"/>
      <point x="160" y="497"/>
      <point x="123" y="496" type="curve" smooth="yes"/>
      <point x="95" y="496" type="line"/>
      <point x="95" y="450" type="line"/>
      <point x="123" y="450" type="line" smooth="yes"/>
      <point x="175" y="450"/>
      <point x="228" y="430"/>
      <point x="229" y="380" type="curve" smooth="yes"/>
      <point x="229" y="349"/>
      <point x="203" y="313"/>
      <point x="141" y="313" type="curve" smooth="yes"/>
      <point x="103" y="313"/>
      <point x="64" y="328"/>
      <point x="48" y="339" type="curve"/>
      <point x="30" y="289" type="line"/>
      <point x="53" y="274"/>
      <point x="96" y="261"/>
      <point x="145" y="261" type="curve" smooth="yes"/>
      <point x="247" y="261"/>
      <point x="302" y="316"/>
      <point x="302" y="378" type="curve" smooth="yes"/>
      <point x="302" y="429"/>
      <point x="264" y="467"/>
      <point x="210" y="475" type="curve"/>
      <point x="210" y="477" type="line"/>
      <point x="257" y="493"/>
      <point x="286" y="527"/>
      <point x="286" y="567" type="curve" smooth="yes"/>
      <point x="286" y="615"/>
      <point x="250" y="661"/>
      <point x="163" y="661" type="curve" smooth="yes"/>
      <point x="114" y="661"/>
      <point x="72" y="645"/>
      <point x="49" y="629" type="curve"/>
    </contour>
    <contour>
      <point x="232" y="-11" type="line"/>
      <point x="611" y="661" type="line"/>
      <point x="555" y="661" type="line"/>
      <point x="175" y="-11" type="line"/>
    </contour>
    <contour>
      <point x="674" y="0" type="line"/>
      <point x="674" y="103" type="line"/>
      <point x="735" y="103" type="line"/>
      <point x="735" y="152" type="line"/>
      <point x="674" y="152" type="line"/>
      <point x="674" y="395" type="line"/>
      <point x="601" y="395" type="line"/>
      <point x="408" y="142" type="line"/>
      <point x="408" y="103" type="line"/>
      <point x="608" y="103" type="line"/>
      <point x="608" y="0" type="line"/>
    </contour>
    <contour>
      <point x="608" y="152" type="line"/>
      <point x="480" y="152" type="line"/>
      <point x="479" y="153" type="line"/>
      <point x="576" y="278" type="line" smooth="yes"/>
      <point x="587" y="294"/>
      <point x="596" y="311"/>
      <point x="609" y="333" type="curve"/>
      <point x="611" y="333" type="line"/>
      <point x="610" y="314"/>
      <point x="608" y="293"/>
      <point x="608" y="270" type="curve" smooth="yes"/>
    </contour>
  </outline>
</glyph>
<glyph name="tilde" format="1">
  <advance width="300"/>
  <outline>
    <contour>
      <point x="72" y="567" type="line"/>
      <point x="74" y="596"/>
      <point x="83" y="613"/>
      <point x="99" y="613" type="curve" smooth="yes"/>
      <point x="112" y="613"/>
      <point x="123" y="607"/>
      <point x="144" y="596" type="curve" smooth="yes"/>
      <point x="166" y="583"/>
      <point x="185" y="574"/>
      <point x="208" y="574" type="curve" smooth="yes"/>
      <point x="258" y="574"/>
      <point x="281" y="610"/>
      <point x="280" y="680" type="curve"/>
      <point x="230" y="680" type="line"/>
      <point x="228" y="645"/>
      <point x="218" y="636"/>
      <point x="202" y="636" type="curve" smooth="yes"/>
      <point x="188" y="636"/>
      <point x="174" y="645"/>
      <point x="157" y="654" type="curve" smooth="yes"/>
      <point x="133" y="667"/>
      <point x="115" y="677"/>
      <point x="92" y="677" type="curve" smooth="yes"/>
      <point x="47" y="677"/>
      <point x="19" y="636"/>
      <point x="21" y="567" type="curve"/>
    </contour>
  </outline>
</glyph>
<glyph name="trademark" format="1">
  <advance width="619"/>
  <outline>
    <contour>
      <point x="30" y="674" type="line"/>
      <point x="30" y="629" type="line"/>
      <point x="117" y="629" type="line"/>
      <point x="117" y="402" type="line"/>
      <point x="171" y="402" type="line"/>
      <point x="171" y="629" type="line"/>
      <point x="258" y="629" type="line"/>
      <point x="258" y="674" type="line"/>
    </contour>
    <contour>
      <point x="606" y="402" type="line"/>
      <point x="585" y="674" type="line"/>
      <point x="507" y="674" type="line"/>
      <point x="460" y="540" type="line" smooth="yes"/>
      <point x="454" y="520"/>
      <point x="448" y="497"/>
      <point x="441" y="472" type="curve"/>
      <point x="440" y="472" type="line"/>
      <point x="433" y="500"/>
      <point x="428" y="520"/>
      <point x="422" y="541" type="curve" smooth="yes"/>
      <point x="375" y="674" type="line"/>
      <point x="294" y="674" type="line"/>
      <point x="274" y="402" type="line"/>
      <point x="326" y="402" type="line"/>
      <point x="336" y="562" type="line" smooth="yes"/>
      <point x="337" y="587"/>
      <point x="338" y="613"/>
      <point x="338" y="638" type="curve"/>
      <point x="341" y="638" type="line"/>
      <point x="347" y="614"/>
      <point x="355" y="582"/>
      <point x="360" y="561" type="curve" smooth="yes"/>
      <point x="409" y="406" type="line"/>
      <point x="465" y="406" type="line"/>
      <point x="514" y="557" type="line" smooth="yes"/>
      <point x="522" y="582"/>
      <point x="530" y="614"/>
      <point x="537" y="638" type="curve"/>
      <point x="540" y="638" type="line"/>
      <point x="541" y="609"/>
      <point x="541" y="583"/>
      <point x="542" y="562" type="curve" smooth="yes"/>
      <point x="552" y="402" type="line"/>
    </contour>
  </outline>
</glyph>
